<svg width="80" height="41" viewBox="0 0 80 41" xmlns="http://www.w3.org/2000/svg"><title>Logo_Adeo</title><g fill="#FFF" fill-rule="evenodd"><path d="M0 41h79.603V39.17H0zM45.977 13.513h-.009v.032c.017.003.02-.008.01-.032zm.784-1.783c.084.389.044.024 0 0zm.63-1.468c.12.051-.072-.262 0 0zm-.739 1.8c.022-.107.022-.107 0 0zm-.591 1.483c-.112.228-.112.228 0 0zm-.02-.192l.02-.034c-.024-.007-.03.005-.02.034zm-.165-8.87c-.03.009-.143.08 0 0-.015.005 0 0 0 0zm.5 8.207c-.013.269.007.002 0 0zm.772-1.796c.013-.018.02-.03.02-.05-.03-.007-.037.01-.02.05zm-4.87 2.7l-.052.185c.05-.048.067-.109.052-.185zm-.6 13.518c-.025.03.034.089 0 0-.014.018 0 0 0 0zm15.03-6.375c-.052.051-.052.051 0 0zM45.777 4.555h-.012c-.004.045 0 .045.012 0zm-1.674 3.396c-.209.548-.209.548 0 0zm-.579 1.459c-.036.116-.036.116 0 0zm-.6 2.274c-.042.036-.019.1-.04.145.07.01.083-.038.04-.145zm.71-2.51c.105-.162.128-.353.193-.532-.117.215-.223.503-.192.533zm2.362 4.298c.088-.266-.013.067 0 0 .01-.032 0 0 0 0zm-7.6 9.045v-.025c-.052.069-.052.077 0 .025zm6.197-12.51c-.01-.024 0 0 0 0zM2.833 24.25c.028-.041.072-.088.054-.128-.096.07-.114.113-.054.128zm39.169-.323c.01-.085.01-.085 0 0zm3.486-9.157c.098-.214.098-.214 0 0zm.258-.57zm-.108.27c.123-.307.123-.307 0 0zm-1.054-4.69c-.002-.007-.05.04 0 0-.007-.021 0 0 0 0zm.877 5.078c.026-.072.026-.072 0 0zm-.192.338c.035-.084.183-.445 0 0zm-.722-5.286c-.082.2-.082.2 0 0zm9.606 10.631h-.012v.027c.017.004.02-.005.012-.027zM2.056 25.728c.008-.017.032-.04.008-.056-.047.031-.05.05-.008.056zm-.054-.148v-.024c-.017.036-.017.044 0 .024zm-.01-.168c.11-.138.11-.138 0 0zm-.02.064c-.007.02-.048.04-.016.063.031.005.036-.015.015-.063zm-.14.476c-.033.028-.052.084-.091.112.058.01.09-.028.091-.112zm-.026.312l-.007-.022c-.055.113-.053.12.007.022zm.159-.433c-.134.354-.134.354 0 0zm.229-.748c-.09.012-.123.07-.099.174.125-.042.157-.1.099-.174zm.804-1.178c-.098.235-.098.235 0 0zm-.224.199c-.022.01-.026.045-.026.058.025.003.033-.017.026-.058zm.021-.125c.015.029.02.07.007.098.09-.106.259-.221-.007-.098zm-1.1 2.03c-.008.035-.057.07-.027.104.071-.043.08-.078.027-.103zm.942-1.426c-.01.003-.011-.005-.02-.01-.016.051-.01.054.02.01zm-.146.272c.097-.223.097-.223 0 0zm21.882 7.135c-.216.223.017.049 0 0zM2.12 25.315h.028c.005-.033-.003-.033-.028 0zm.278-.514l-.028.047c.026.005.035-.01.028-.047zm51.511-3.904c0-.025.006-.05.02-.073-.05.041-.057.066-.02.073zM2.334 24.928c.011-.012.021-.086 0 0 .006-.006 0 0 0 0zm77.175-.233c-.001-.048.04-.165 0 0zm-.265.773c-.04-.012-.043-.044-.011-.097.04-.004.044.029.011.097zm-.104-2.895c-.192-.124.137-.036 0 0zm-.119 3.96c-1.577 2.455-.026-.2 0 0zm-.093-.348c-.105.25-.105.25 0 0zm-.901 1.743c-.002-.001-.008-.14 0 0zm-1.246-2.275c.096-.14.096-.14 0 0zm-.408.622l-.046.03c.036-.065.05-.075.046-.03zm-.382.468h-.021c.052-.056.06-.056.02 0zm-1.794 4.266c-.023.048.051-.139 0 0zm-.145-2.792c.107-.086.107-.086 0 0zm-.17 2.926c.126-.082.204-.024 0 0zm-.145.212c.062-.03.062-.03 0 0zm-.49.22c-.014.012-.042.001-.064.004.039-.054.06-.055.065-.005zm-.138.19l-.01-.018c.036-.007.04 0 .01.017zm-.195-.065v-.033c.052-.009.052.003 0 .033zm-4.141-1.433c.004-.001.154-.021 0 0zm-2.092 2.247c.13.034.13.034 0 0zm-.38-.087c-.085-.057.1 0 0 0zm-3.135-1.451c.124-.056.124-.056 0 0zm-5.187-.573c.284-.053.284-.053 0 0zm-.295 2.122c.096-.015.096-.015 0 0zm-.222.015l-.377-.009c.08-.01.764-.188.377.009zm-4.574-9.87c-.827.798-.397 2.41-.921 1.888.29-1.03.14-.64.643-1.66.246-.402.39-.669.666-1.172.001.07.025.058.071-.04-.006.014.206-.475.306-.513.048.066.026-.1.175-.228-.024.184.172-.412.39-.451 1.461-1.646.09.251-.593.881-.008.01-.619.968-.737 1.295zm-1.023.952c.169-.286.022.005 0 0zm.127-.307c.174.133-.217.1 0 0zm.36.13c-.06.13-.06.13 0 0zm-.01-.894c-.107.267-.107.267 0 0zm.675-.945c.006.024 0 .05-.018.064-.022-.049-.015-.07.018-.064zm-.01-.081c-.209.35-.209.35 0 0zm.019-.265h.008v.04c-.02.003-.021-.01-.008-.04zm.073.12c.022.018-.005.048-.01.076-.04.006-.037-.02.01-.076zm.091-.102c.034-.03.04-.02.019.03-.113.005-.018-.029-.019-.03zm.675-.984c.264-.408-.843 1.202 0 0zm.307-.33c-.116.116-.116.116 0 0zm.172-.212c-.124.152-.124.152 0 0zm.276-.283c.184-.263-.19.122 0 0zm-.072-.344v-.059c-.01.011.125-.135.1-.178.138-.022.272.09-.1.237zm.453.459c-.05.117-.05.117 0 0zm.095-.968c-.213.194-.213.194 0 0zm.024.968c-.137.223-.086.074 0 0-.024.04 0 0 0 0zm.192-1.146c-.083.075-.327.385 0 0zm-.007-.2c.815-.548.076-.043 0 0 .116-.08 0 0 0 0zm1.465 1.282c-.008-.016.897-.636.584-.027-.151.228-.477.802-.526 1.065l-.013.01c.005-.087-.028-.044-.1.128l.008.006c.34-.442-.595 1.012-.507.928l-.027-.03-.192.282.027.006c-4.874 5.07-1.893-.369.746-2.368zm.323-2.653c.02.006.037.016.057.023-.058.02-.077.013-.057-.023zm1.719 1.323v.023c-.054-.046-.054-.054 0-.023zm-.951 5.593l-.01.01c.02-.042.023-.045.01-.01zm-.886-3.466c.356-.556-.003.004 0 0zm-.628 4.91c-1.318 2.102-.018.022 0 0zm-1.054.484c-.295 1.673-.127-.307 0 0zm-1.003.958c.221-.204.221-.204 0 0zm-.184.172c.193-.185.193-.185 0 0zm-.48.506c-.032-.03 0-.114 0 0-.027-.027 0 0 0 0zm-.316.265c.258-.226.401-.18 0 0zm-1.622-1.95c.1-.558.1-.558 0 0zm-2.953 5.256c.124-.085.111.005 0 0zm-.156.022l-.01-.007c.067-.03.026.007.01.007zm-.093.133c.052-.076.052-.076 0 0zm-.285.046c.036-.006.232.062 0 0zm-.119.052c-.168.02.186-.097 0 0zm-.157.012c-.076.145.082-.042 0 0zm-.241.08c-.219-.085.035-.01 0 0zm-.516-1.924c-.013.032.096-.11 0 0zm.58-.412c-.072.064-.072.064 0 0zm.066-.047c.454-.163-.047.016 0 0zm.535-.3c-.073.168-.66.306 0 0zm.119-.072c.05.157-.185-.072 0 0zm.223-.147c.095-.1-.521.52 0 0zm.084-.282c-.261.185-.261.185 0 0zm.107.179c.002-.003.095-.046 0 0zm.186-.38c-.354.25-.354.25 0 0zm.123-.094c.003.001-.103.121 0 0 .01.002 0 0 0 0zm1.311-1.135c.017.004.038.141 0 0 .024.005 0 0 0 0zm-.152 3.566c.088.33-.29-.186 0 0zm-3.097 1.59c-.077.015-.077.015 0 0zm-1.016.104c-.022-.028.353-.225 0 0zm.12-2.177c.022.066-.144 0 0 0zm-.278 2.17c-.489-.15.166.113 0 0zm.02-2.08c.091-.111-.28.253 0 0zm-.646 2.53h-.039c.317-.08.326-.263.04 0zm-.184-1.998c-.023.01.423-.303 0 0zm-.15.04c.027-.014.21-.103 0 0zm.165-.192c-.122.055-.122.055 0 0zm-1.062.417c.283-.062.566.06 0 0zm-1.805-.506c-.026-.056-.026-.056 0 0zm-.62-3.216l-.026-.018c-.053-.69-.25-.515.018-.023.038-.008.041.005.009.041zm-.064.491c.33.568-.336-1.247-.081-.357.082.005.107.09.112.212.093-.045.083.003-.031.145zm-.081.4h-.012v-.08c.034-.003.039.024.012.08zm1.227-17.03c-.03.037-.032-.153 0 0zm-1.423 4.737c.105-.93.683-1.82.723-2.756-.153.013.014-.144.007-.146-.017.032.944-1.883.745-2.049h-.026c.108-.766.139-1.016.139-.167 1.35-3.316.765-5.376 2.608-6.04.192-.363.024-.085.39-.564-.202-.196.194 1.57-.785 2.307-.205.487-2.28 5.163-2.186 5.24-.005.14-.07 1.104-.385 1.217-.053.124-.117 1.143-.46 1.394.198-.233-.418.823-.37.816l.008-.01c-.061.226-.201.543-.408.758zm-.099.058c.033-.292.033-.292 0 0zm-.26-.54v.056c-.027.004-.027-.015 0-.057zm.1.2c-.023.223-.023.223 0 0zm.49-1.12c.085-.226.085-.226 0 0zm-.166.107c.334-1.473.35-.838.01.392-.136.26-.413 1.333-.01-.392zm.131-1.083c.022.041 0 .087-.027.122-.059.005-.05-.035.027-.122zm.185-.298c.023.04-.005.084-.02.12-.057.006-.05-.033.02-.12zm.33-.548c.187-.425-.908 1.432 0 0zm.48-.88c-.115.118-.03-.193 0 0zm-.13-.168c-.153-.217-.34 1.464 0 0zm-.165.087c0 .016 0 .016 0 0zm.092-.514c.165-.056-.223.198 0 0zm.203-.517c-.004.013.009.03-.006.034-.033.005-.03-.006.006-.034zm.026-.184c-.023.115-.023.115 0 0zm.065.904c.266.044-.248.154 0 0zm.073-1.195c-.07.28-.07.28 0 0zm.205-.475c.107.15-.215.169 0 0zm.002-.091c-.019.05-.032.137 0 0zm.136-.29c.088-.244.064-.134-.072.332-.136.008-.112-.102.072-.331zm.443-1.555c.065-.042.062-.127.11-.185v.07h.02c-.252.582-.947 2.65-.13.115zm.165-.007c.062.364-.204.088 0 0zm-.47 1.476c-.033.084-.033.084 0 0zm-.117.321c.085-.205.085-.205 0 0zm.264.025c.001-.005.118-.29 0 0zm-.046-.146c-.217.956.263-.29 0 0zm.186-.235c.002-.09.038-.021 0 0zm.129-.506c.11-.004.11.066 0 .208-.365-.013.004-.182 0-.208zm.232-.853c.467-.531.023 1.225 0 0zm-.1-.27c.15.168-.208.171 0 0zm.106-.483c.018.173.018.173 0 0zm.198-.184c.022.029-.005.058-.013.09-.043.005-.039-.025.013-.09zm.026.822h-.01c.012-.047.017-.007.01 0zm.036-.128v-.033c.02-.003.02.007 0 .033zm.082-.138c-.05-.085.018-.016 0 0zm0-.395c.33-.499-.072 1.13 0 0zm.02-.46c.024.032-.007.067-.007.096-.048.005-.045-.026.007-.097zm.258.12c.193.154-.267.117 0 0zm0-.337c-.002-.07.174.563 0 0zm.204-.057c-.007.011.006.027-.009.032-.03.005-.026-.006.009-.032zm.025-1.105c.034.149-.11 0 0 0zm.095.573c.048.088-.132.498 0 0zm-.028-.597c-.004.011.007.028-.007.03-.032-.039-.029-.05.007-.03zm.11.452c-.01.112-.104.143 0 0zm0-.789c-.147.311-.147.311 0 0zm.009-.34c-.048.153-.048.153 0 0zm.166 1.057c.607-.214-.334.798 0 0zm.13-.638c-.062.153-.062.153 0 0zm.238.024c-.086.266-.044-.013 0 0zm-.047-.392c.098-.166-.122.052 0 0zm.047-.847c-.098.2-.098.2 0 0zm.046 1.153c.023.019-.004.035-.007.056-.038.006-.035-.013.007-.056zm.204-1.895c.003.097-.429.784 0 0zm.499 2.562c.037-.016.027.012 0 0zm.12 5.933c-.036.12-.021 1.095 0 0zm-.027-7.528c.009.037.024.087-.012.12-.063.01-.06-.031.012-.12zm.034-.243c-.034.064-.034.064 0 0zm.204-.194c-.394.59.031-.03 0 0zm.057 7.41c-.003 0-.31 1.012 0 0zm-.02-.332c0-.003.012.082 0 0zm.129.04c-.04.028.14.289 0 0zm-.266-6.15v.064c-.036.005-.036-.016 0-.064zm.626 5.822c2.335-4.063 1.58-1.195.185-.195-.197.529-.397 1.67-.83 2.065-.616-.207.129-.082.645-1.87zm-.249.104c-.004.013.011.034-.008.039-.023.003-.02-.01.008-.04zm.092-.226c0 .044.005.087-.034.122-.06.005-.05-.035.034-.122zm.12-.338c-.04-.119-.282.632 0 0zm.157-.363c.004.05-.003.092-.034.13-.064.006-.053-.037.034-.13zm.25-.623c-.208.84-.13.055 0 0zM47.437.305c-.016.01.148 0 0 0zm.183 7.774c.074-.225.074-.225 0 0zm.214-.629c.001.04.002.055 0 0zm.072-.184c.03.154-.097-.017 0 0zm-.62 2.916c.015-.161.002-.016 0 0zm-.947 1.727c-.039.224-.039.224 0 0zm-2.888 6.707c-.05.107-.05.107 0 0zM48.386 7.44c1.431-.296.327-4.466.738-1.942.2-.987-2.37 10.239-3.847 10.239-.079.04-.132.287-.176.41l-.018.018c-.14.308-.307.596-.572 1-.223.45-2.265 4.19-1.362 2.193.312-.118 0-.212.052-.338.033-.01.364-.283.26-.494-.08.04-.084.012-.01-.082.267-.187.085-.451.422-.932.147-.228.968-2.198 1.166-2.25.047-.098.973-1.838.92-1.895-.02.005-.024-.002-.01-.025.321-.816 1.253-2.576 1.273-2.585a.74.74 0 0 0 .092-.38c.195-.494.54-1.506.592-1.55.218-.375.284-1 .48-1.387zm.1-.835c-.336.9.04-.016 0 0zm.084-.236c-.013.003.073.134 0 0zm.082-.773c-.072.27-.072.27 0 0zm.168-.743c-.038.2-.207 1.154 0 0zm.516-.718c-.008.151.1.386 0 0zm-.111 1.098h-.02c.019-.086.025-.086.02 0zm.018.95c-.003.004-.007.014-.018.007.008-.052.014-.054.018-.006zm.165-.305c.023.048.09.194.038.225l-.017-.023c-.193.183-.11.839-.286.822.002-.15.067-.92.265-1.024zm.048-.46c-.036.278-.036.278 0 0zm-.313 1.888c.022-.107.022-.107 0 0zm-.084.565c-.207-.15.561-.718 0 0zm-.157-.01c-.166.383-.479 1.38-.211.345l-.055.029.047-.172c.104-.256.219-1.655.219-.203zm-.158 1.031c.014-.073.014-.073 0 0zm-.376.08c0 .003.003-.138 0 0zm-1.522 3.822c.035-.115.035-.115 0 0zm-.1.088c.01-.148.01-.148 0 0zm-.216.214c-.027 0-.027-.053 0-.06v.06zm-.562 1.61c.005-.022.276-1.195 0 0zm-.25.514c-.36-.05.364-.584 0 0zm-.746 1.508c.088-.247.088-.247 0 0zm-.304.646c.002.02-.024-.283 0 0zm-.214.305c-.209-.053.273-.03 0 0zm-.7 1.026c.009.011-.026-.08 0 0zm-.192.742c.022-.046.022-.046 0 0zm-.592.879c.025-.089.025-.089 0 0zm.179-1.065c.035-.042.035-.042 0 0zm.283-7.843c.33.176-.342.22 0 0zm.139 1.02c-.225.846.43-1.752 0 0zm.683-3.465c-.064-.041-.064-.041 0 0zm1.318-2.742c.005-.068-.057-.268 0 0zm.026.574c.012-.258.012-.258 0 0zm.054 1.038c.024.028-.002.054-.014.075-.042.006-.037-.02.014-.075zm.012.22c-.016.066-.016.066 0 0zm-.073-.099c-.04.108-.04.108 0 0zm-.15.581c-.05-.144.042-.005 0 0zm.086-.444c.014.285-.292.51 0 0zm-.093-.666c-.024-.008-.02-.035-.02-.049.051-.046.058-.03.02.05zm-1.04 8.545c.24-.142-.157.373 0 0zm-.048-.122c.2 0-.153.236 0 0zm.322-.58c-.137.282-.137.282 0 0zm-.11-4.232c-.014.097-.014.097 0 0zm-.104.443c-.13-.538.021-.017 0 0zm-.127-.443c.981-2.104-.243 1.117 0 0zm.82-1.984c.06-.16.06-.16 0 0zm-.074.202c.106-.225.013-.021 0 0 .015-.033 0 0 0 0zm-.127 5.499c-.004.027-.011.097 0 0zm-.138-4.346h.009v.022c-.014.003-.017-.004-.009-.022zm-.013.265c-.06.238-.06.238 0 0zm-.052-.582c.021-.32.467-1.243.257-.41-.097.08-.16.268-.257.41zm.394 4.203c-.023.042-.023.042 0 0zm-.046-4.377c-.03-.043-.044-.008-.045.105.04.069.293-.222.045-.105zm.224-.516c0 .007 0 .019-.011.024-.008-.02-.004-.028.011-.024zm-.011-1.419l.018-.161c.07-.007.064.047-.018.161zm0 .082c-.024.211-.297.865-.343.909.073-.1-.165.255-.166.25-.045.297.273-1.141.509-1.16zm-.877 1.948c.218-.134.208-1.117.35-.444-.105-.01-.147.07-.127.241-.068.194-.376.782-.334.897-1.025 2.198-.048.272.11-.694zm.038 5.837c-1.29-3.107 3.352-.157 0 0zm1.29-7.705c-.02-.014-.039.217-.037.224.06-.114.045-.061-.047.161-.06-.044-.092-.006-.099.112.066-.015.072.012.019.08-.62 1.137-.075-.443.164-.577zm-.01-.574c.012-.116.012-.116 0 0zm.032-1.17c.085.118.069-.638 0 0zm.21 5.724c.005-.04.033-.011 0 0zm-.027-4.538c.031-.074.008-.019 0 0zm-.03.329c0-.002.1-.19 0 0zm-.093.201l.021-.03c.005.017-.002.027-.02.03zm.25 4.324c-.924 1.299-1.355.758 0 0zm.028-4.975c-.024-.01.017-.128 0 0-.036-.016 0 0 0 0zm.057 4.272l-.02.017-.018-.017c.02-.044.033-.044.038 0zm-.012-6.213c-.001 0-.13.556 0 0zm-.016-.685c.016.043.005.09-.029.127-.058.005-.049-.037.029-.127zm-.167 1.159c0-.186 0-.186 0 0zm-.063-.864l.016-.054c.01.024.005.042-.016.054zm.009.968c-.201.107.178-.274 0 0zm-.271-.266h.02c-.004.045-.01.045-.02 0zm-.007 1.26c.053-.13.055.276 0 0zm-.237-.64h-.012v-.032c.025-.007.028.005.012.033zm-.093.237c.08-.238.08-.238 0 0zm.055.403c-.037-.12-.283.535 0 0zm-.279.03c-.001.066-.079.103 0 0zm-.13-.088h-.015v-.035c.021-.005.026.007.015.035zm0 .542c.112-.002.013.017 0 0zm-.14.183c.052-.022-.196.598 0 0zm-.06.307c.154.153-.308.024 0 0zm-.15.42v-.052c.027-.004.027.013 0 .052zm0-.606c.022.11-.05.052 0 0zm0 .364c.234.01-.251.21 0 0zm-.08.3c0 .191 0 .191 0 0zm-.122.956c.037-.058 0-.146.065-.184 1.693-3.49-.043.714-.065.184zm-.028-.902c.02-.093.1-.15 0 0zm.046.136l-.009-.03c.028-.006.03.004.009.03zm-.236 1.412l-.02.015c0-.069.006-.074.02-.015zm-.151-.059c.018.047-.028-.167 0 0zm.039-.425c.149.051-.356.296 0 0zm-.048-.323c.07-.074.186.45 0 0zm-.054.42c-.014-.002-.017.013-.03.016.011-.06.021-.067.03-.016zm-.058.328c-.241-.043.286-.16 0 0zm-.157-.045c.131.09-.049.074 0 0zm-.127 1.57c0-.303.308-.97.45-1.266l.031.024c-.285.946-1.355 1.847-.481 1.242zm0-.547c.043.149-.043.062 0 0zm-.138-.32c.579.703-.495.155 0 0zm-.177 1.747c-.007.024-.024.088 0 0zm-.02-.603c-.095.18 0 .243 0 0zm.02-.444c.256.484-.483.117 0 0zm-.276.605c-.03-.336.183.158 0 0zm-.233 1.924c-.407-1.759 1.988-1.326 0 0zm-.138 6.433c-.042-.01-.021-.053-.026-.088.083-.012.092.018.026.088zm-.026 1.019c-.027.014.035-.113 0 0zm-.203-.615c.052-.125.052-.125 0 0zm0 1.338c-.005.038-.026.197 0 0zm-.188.415c-.006-.144-.006-.144 0 0zm-.2-8.153c-.01.063-.01.063 0 0zm.011 9.237c.036-.192.036-.192 0 0zm-.15-.024c.108-.395.02-.076 0 0zm.111.347c-.391-.115.074-.082 0 0zm-.164.64h-.008v-.06c.025-.002.027.017.008.06zm-.205 1.748c.02-.006.028.007.04.013-.04.095-.053.09-.04-.013zm-.803-10.804c-.003.034-.02.2 0 0zm-1.582 4.298c-.4-.112.074-.083 0 0zm-.047.292c.025-.09 0-.38 0 0zm-.124-.05c.015-.068.002-.01 0 0zm-2.294 4.908c0 .01 0 .02-.012.026-.01-.021-.005-.03.012-.026zm2.26-4.788c-.252.032-.566 2.046-.628 2.208-.875.94-2.85 3.912.095.29.56 1.857-4.933 3.48-5.094 5.14-.044.061-.242.146-.297.2-.002.031 8.473-7.839 3.69-3.065-.111-.056-.19.2-.462.394-.064.349-.01.03.1-.063 3.955-3.414-1.508 1.271-.799.8.41-.403-4.366 4.289-4.715 3.973.004.125-.1.185-.312.178.119-.142-.309.296-.38.215l.037-.054c-.095-.001-.141.041-.138.126h-.02c-.046.017-1.422.433-.295.22.85-.13-.414.182-.469.29.184.244.24-6.894 2.26-6.111l-.01-.047c-.455.189.35-.386.637-.493.017-.22.198-.363.674-.676.275-.277.677-.67.857-.84 1.267 1.673 3.014.541 5.242-3.393a6.684 6.684 0 0 0-.02.168c-.014.079-.131.713.047.54zm.008.3l.018-.091c.037.084.03.114-.018.09zm-.094.064c.002 0 .078-.132 0 0-.026-.004 0 0 0 0zm-.061.447c-.158.052.133-.533 0 0zm-.084 6.827c-.05 0 .413.997 0 0zm-.011-.116c.112.048-.054.115 0 0zm-.614-3.997c-.2.146.622-1.034 0 0zm-3.322 3.144c-.933.479.055-.233 0 0zm-.565.644l-.009.007c.07-.095.072-.097.009-.007zm-.074-.147c.159-.148.159-.148 0 0zm-.119.114c.02-.116.141-.118 0 0 .008-.047 0 0 0 0zm0 3.34c-.428.875.378-.922 0 0zm-.434-2.782c.21-.184.21-.184 0 0zm-.038 3.064c-.028.067.114-.298 0 0zm-.147.08c-.112 0 .314-.04 0 0zm-.085-2.92c-1.628.628-.175.639 0 0zm-6.078-3.62c-.012.053 0 .082 0 0zm.067 0c.002 0-.099.227 0 0 .049.025 0 0 0 0zm.369-.37c.102.277-.96.796 0 0zm.312-.08c.126-.118.211-.276.36-.34-.29.31-.495.896-.36.34zm.287-.565c0 .093-.064-.024 0 0zm.035-.265c.003.005.027.045 0 0zm.15.589c0 .131-.213.08 0 0zm.192-.203c-.11.16-.11.16 0 0zm.315-.362c-.21.214-.21.214 0 0zm.12-.122c-.05.063-.05.063 0 0zm.672-.655c.024.03 0 .068-.019.091-.056.009-.05-.022.019-.091zm-.433.396c-.04-.247-.01-.051 0 0zm.045.065c-.13.046 0-.006 0 0zm-.23.161c-.117-.117.095.087 0 0zm.197 4.336c1.08-2.008-.704.626 0 0zm.579-5.246c.013-.026.015-.031 0 0zm.1 4.297c-.123.173-.123.173 0 0zm.046-.057c-.036.043-.036.043 0 0zm-.138-4.072c.158-.229.187-.012 0 0zm.24 3.943c-.01.003-.014.02-.028.016.024-.049.033-.055.028-.016zm-.045-4.185c-.019.035.179-.178 0 0zm.369-.33c-.007-.04.014-.002 0 0zm.155-.096c-.144.174-.144.174 0 0zm.084-.152c-.088.1-.006-.002 0 0zm-2.177 1.741c.076-.005.061.054-.045.177.76-.804.71-.755 1.123-1.233l.011.064c.253-.37.847-.678 1.004-.91-.237.315.68-.766.711-.672.273-.255 1.176-1.104 1.421-1.079.026-.007.242.219-.175.219l-.008-.051c-.137.155-.486.521-.66.494-.427.417-1.13.872-1.53 1.377-.58.558-1.292 1.616-2.027 1.983-.018-.486.119.441.175-.369zm.324-.443c-.007.021.012.059-.03.086-.056-.004-.046-.033.03-.086zm.267-.201c.066-.054.081-.06.045-.019-.003.05.067.163-.045.019zm.137-.21c-.072.124-.072.124 0 0zm.15-.162c-.006.02-.027.09 0 0zm.736-.752c.064.063.012.012 0 0zm.649-.554c.021.017 0 .05-.022.07-.062.01-.055-.013.022-.07zm.882-.696c-.123.09-.123.09 0 0zm.086-.07c-.016.062-.016.062 0 0zm.395-.306c.056.201-.148-.206 0 0zm.672-.356c.105.03-.1.088 0 0zm-.037.911c.11.017.052-.01 0 0zm-.239.176c.11-.07.018-.011 0 0zm-.757.06c.084.07-.161.015 0 0zm-.377.224c-.146.183 0 .126 0 0zm-.296.264c.066-.486.107.244 0 0zm-.1 4.106c.02.231-.306.037 0 0zm0-3.41c-.088.116-.088.116 0 0zm-.123-.47c.124-.147.124-.147 0 0zm-.054.067c-.12.035.152-.13 0 0zm.12.546c.099.222-.353.072 0 0zm.119 3.21c0 .077-.055-.027 0 0zm.092-.024v.047c-.064.01-.064-.004 0-.047zm.038-.022c.189-.226.013.001 0 0zm-.284-2.792c.075-.716 1.473-.423 0 0zm.95 2c.098-.12.098-.12 0 0zm1.587-1.5c-.025.054-.025.054 0 0zm-.546-2.426c.116-.117.622-.317.71-.46-.12.097 1.889-1.394 1.973-1.282 4.067-2.11-.343.65-2.709 2.16-.608.51-1.268 1.087-1.93 1.259.012-.01.264-.34.242-.34.13-.076.54-.479.754-.61l.03.03c.29-.256-.093.077.1-.185-.429.277-.092.015.054-.098-.057.236.047.014.123.018.038-.039.226-.183.404-.348l.045.018.013-.074c.162.128.102-.028.191-.088zm-.008-.96c.17-.2.243-.219.22-.058-.023-.008-.025-.017-.009-.028l-.01-.011c-.032.045-.048.108-.101.12-.037.003-.084.003-.1-.023zm.293.638c.057.083-.178-.05 0 0zm-.008-.84c.003.007.021.041 0 0zm.192.68c.013 0 .023 0 .03.006-.152.12-.162.117-.03-.007zm.058-.606c0 .059-.092 0 0 0zm.1-.252c-.074.059-.507.3 0 0zm.064.154c.031.118-.114-.06 0 0zm.211-.161v.025c-.036.006-.036-.002 0-.025zm.104.515c.025.009 0 .036-.018.05-.06-.004-.053-.022.018-.05zm.074-.04c.02.051-.09-.019 0 0zm.008-.813c-.087.052-.087.052 0 0zm.23.651c-.029.202-.323.037 0 0zm.397-.248c-.07.062-.07.062 0 0zm.61-.386c-.02-.223-.383.56 0 0zm1.187-.558h.021v.023c-.022.007-.029-.001-.02-.023zm1.35-.484c.26-.276.224.257 0 0zm.358-.112c.073.16-.264-.065 0 0zm.877 1.613c.072.202.12.062 0 0zM25.555 31.425c-.041-.036.007-.017 0 0zm-.29.15c.039-.175.541-.18 0 0zm-1.734.712c.14-.075.14-.075 0 0zm-.125.076c-.127-.11.357-.124 0 0zm-5.133-3.146c.016.078.016.078 0 0zm.15-8.81c-.29.205-.011-.044 0 0zm-.262.766c-.12-.342-.94 1.102-1.186 1.03a225.881 225.881 0 0 1-5.039 4.492c-1.32 1.483-7.712 6.591-8.47 4.032.822-5.375 4.138-7.45 6.44-11.435.038.111.096.063.176-.144v.01c.07-.04.548-.533.58-.535 1.206-.954 2.534-2.033 3.921-2.782 1.088-.645 2.268-1.167 3.425-1.636 1.162-.606 4.196-1.6 5.147-.419.042.07.102.451.193.614.032.41-.078.645.157.41 0 1.264-.267.92-.977.3-.128-.034-.283-.053-.168-.131-.002-.02.01-.017.037.01.2.333-1.034-.71-.968.207-.098.15-1.509 2.19-.811 1.234-.807.724 1.288-2.23.312-.007a2.28 2.28 0 0 0-.293.396c.07.036-.013.056-.02.048l-.026.062c-.33.545-.865 1.475-1.323 2.04.002-.128-.043-.095-.137.097-1.523 1.24-2.073.904-.81 1.29-.442.894.153-.096.414-.096.2-.565.013.056.066.177-.024-.027-.048-.01-.073.05-.014.007-.49.36-.49.652-.032-.04-.058-.028-.077.034zm-1.001.98c-.113-.24.171.072 0 0zm-.87.793c.019-.02.068-.074 0 0zm-2.018 1.838c-.063.026.085-.095 0 0zm-1.792 4.11l-.026.026c.02-.047.029-.055.026-.025zm-.56.646c-.303.42.348-.25 0 0zm-.454.122c-.112-.015-.112-.015 0 0zm-.6.443c-.07-.005-.103-.029-.099-.074.122-.066.04-.005.1.074zm-.015.149c.008-.008.045-.032 0 0zm-.084.052c.105-.062.105-.062 0 0zm-.112-.13c.007-.044.093-.157 0 0zm-.085.252c-.135.156.035.008 0 0zm-3.848 2.021c.161-.127.025.024 0 0zm-.81-1.339c.211-.115.862-.292 0 0zm-.191-.008c-1.029.46-.163.053 0 0-.155.069 0 0 0 0zm-1.543.397c.097-.022.097-.022 0 0zm-.783-.598c.078.085-.131.491 0 0zm-.205-4.126c-.14.056.358-.43 0 0zm-.034.047c.045-.043.045-.043 0 0zm.384-.667c-.008.019-.015.027-.046.023-.015-.067 0-.075.046-.023zm-.008-.115h.02v.057c-.033.006-.04-.012-.02-.057zm.297-.53c.004.016 0 .03-.02.038-.036-.058-.03-.07.02-.037zm.146-.212c.004-.07.104-.226 0 0zm.203-.226c-.096.079-.096.079 0 0zm-.065-.056c-.412.223.856-.763 0 0zm.257-.273c-.12.002-.02.021 0 0zm.105-.291c-.093.126-.078.108.046-.054.019.025.004.043-.046.054zm.58-.79c.032.147-.104-.134 0 0zm.072-.3c-.006.012-.018.02-.033.018.018-.05.029-.055.033-.017zm.166-.127l.012-.087c.046-.006.042.023-.012.087zm.123.007c-.006.02-.026.09 0 0zm-.039-.03c.052-.075.052-.075 0 0zm.6-.816c-.134.206-.134.206 0 0zm.13-.151c-.191.336-.074-.01 0 0zm.432-.54c-.007.176-.47.57 0 0-.004.114 0 0 0 0zm.23-.243c-.173.483-.264-.018 0 0zm.15-.243c.15.025.06.054 0 0zm.423-.403c-.105.33-.205.212 0 0-.027.085 0 0 0 0zM3.137 26.75c-.245.26-1.41 2.324-.658 1.386.1-.353.442-1.815.875-2.135.257-.554.427-.675.731-1.313.072-.153.579-.694.536-.864h-.018c.475-.618 1.128-1.968 1.771-2.361.097-.036.407-.466.545-.628.133.15-.704 1.159-1.68 2.339-.066.14-.283.516-.434.457.036.092.021.191-.055.297-.227.322-1.77 2.71-1.613 2.822zm-.12.443c-.129.03.152-.302 0 0zm-.196.558l-.034-.035c.05-.042.043.001.034.035zm-.496 1.33c-.001-.044 0-.535 0 0zm-.15.195c.044-.27.367-.248 0 0zm-.054.283c-.088.007.258-.28 0 0zm-.046.255c.012-.15.012-.15 0 0zm-.038.604c.004.016-.027-1.513 0 0zm.297-2.23c.033-.13.033-.13 0 0zm.018-.155c.071-.053.012-.009 0 0zm-.018-1.395c.147-.022.014.188-.009.204-.081.005-.078-.062.009-.204zm.119-.283c.139.177-.268.067 0 0zm-.009-.626c-.06.095-.06.095 0 0zm.047 1.072c-.025.054-.025.054 0 0zm-.047.097c.08.085-.184.185 0 0zm.056.75c-.125.433-.16.31 0 0zm-.047-1.348c.042-.003.034-.047.02-.065.026.034-.01.125-.02.065zm.196 1.001c.003.031-.163.422 0 0 .004.043 0 0 0 0zm.034-.967c-.098.234-.098.234 0 0zm.059-.591c-.078.096-.078.096 0 0zM2.729 26.8c-.036.115-.036.115 0 0zm.045.207c-.043.132-.043.132 0 0zm.021-1.393c-.053.098-.053.098 0 0zm.072.588c.023.016-.003.032-.006.05-.044.007-.042-.01.006-.05zm.02-.686c-.035.076-.035.076 0 0zm.027-.836c.02.02-.02.04-.02.063-.036.005-.03-.016.02-.063zm.026.12h.02v.03c-.024.008-.03-.002-.02-.03zm.058-.267c.028.19-.155-.037 0 0zm.008 1.772c-.069.101-.049-.425 0 0zm.065-1.07c.005.022.031.048.009.074-.237.093-.224.002-.009-.073zm0-.129h.02v.08c-.056.012-.062-.014-.02-.08zm.085.306c-.151.437-.06.004 0 0zm-.011-.41c.021.07-.125.027 0 0zm.026-.074c.008.006-.004.014-.008.017-.013-.023-.01-.03.008-.017zm.215-.395c.063-.157-.365.986 0 0zm.046-.716c-.063.095-.063.095 0 0zm-.046.34c.082-.056.082-.056 0 0zm.093.45c-.052.097-.052.097 0 0zm0 .177l.035-.057c.005.026-.007.046-.035.057zm-.039.185l.027-.057c0 .025-.01.044-.027.057zm-.165.71c-.14.29-.14.29 0 0zm-.011-.532c.076-.152.076-.152 0 0zm.157.622c-.045.045.065-.06 0 0zm-.02-.31c-.236.378.076-.56 0 0zm.093-1.41c.06-.086.06-.086 0 0zm.23 1.195c.027-.076.027-.076 0 0zm.124-.258c-.189.22-.03.047 0 0-.038.043 0 0 0 0zm2.043-2.902c.018.003.049.126 0 0zm.612-.695c.007-.062.08-.103 0 0zm.95-.767c-.138.043.136.285 0 0zm.204-.087c-.083-.1-.015-.127 0 0zm-.211-.035c.016-.48.519-.255 0 0zm.31-.496c-.004-.014.063.13.067.111-.095.092-.116.055-.066-.111zm.158.23c-.003.021-.016.027-.039.018-.005-.025.008-.03.04-.017zm.039-.102c-.044-.05.015-.024 0 0zm-.124-.058c.129-.31.157-.355.085-.136.113-.062.085-.016-.085.136zm-4.242 5.009c.175-.406 2.537-3.172 2.43-3.494-.018-.04-.08-.175 0-.03.05.045.085-.003.106-.145-.066.007-.047-.025.057-.095.107.102.021-.026.028-.041.023-.038.04-.033.053.015.115-.192.275-.397.566-.725.092-.06.474-.569.573-.574.155-.054.334-.422.475-.484 1.376-.75-.994 1.32-1.548 1.904-.736.827-2.587 2.713-2.74 3.669zm.029-.905c.063.27-.218.017 0 0zm-.02-.315h.01v.034c-.017.002-.02-.01-.01-.034zm.03 1.071c-.059.023.044-.01 0 0zm.025-.45c-.123.239-.123.239 0 0zm.04.3c-.005.007-.02.007-.028.007.01-.062.019-.064.027-.007zm.032-.58c.047-.051.02-.023 0 0zm.067.42c-.126.259-.014.015 0 0-.02.04 0 0 0 0zm-.067-.254c.165-.318.23-.195 0 0zm.17-.161c0 .01 0 .021-.01.03-.01-.024-.007-.034.01-.03zm-.176-.241c.5-.697.1.215 0 0zm.1-.457c-.059.035-.091.006 0 0zm.262-.035c-.114.163-.114.163 0 0zm-.04.387c.115-.183.115-.183 0 0zm.092-.812c.05.016-.018.044-.006.07-.033.004-.031-.02.006-.07zm.056.69c-.017.031-.118.217 0 0zm.01-.458c.077.042-.206.198 0 0zm.212.12c.014.029-.45.432 0 0zm-.101-.692c.006.017-.09.084 0 0zm.295.008c.044.481-.57.251 0 0zm.036.355c.376-.505-.122.49 0 0zm.04-.517c-.025.01.05.264 0 0zm.099.27c-.005.016-.014.024-.028.023-.01-.045-.002-.053.028-.024zm.008-.35c-.037.054-.037.054 0 0zm.039.378c-.025.048-.009-.001 0 0zm.083-.144c.041.26-.178-.006 0 0zm-.064-.362c.226 0-.08.162 0 0zm-.013-.356c.293.098-.086.025 0 0zm.169.17c-.024.002 0 .151 0 0zm.073.3c.993-1.182.12-.252 0 0zm.008-.725c.024.02-.003.032-.008.052-.034.005-.031-.012.008-.052zm.066-.068c.067.2-.098-.174 0 0zm.054.362c.005.007.037.105 0 0zm.058-.161c.072.452-.423 0 0 0zm-.028-.634c.008-.005.012.002.015.006-.015.025-.02.023-.015-.006zm.22.546c-.097.107-.097.107 0 0zm.138-.355c.207-.814-.452 1.192 0 0zm.085-.376c.13.175-.445.132 0 0zm-.059-.074v.034c-.036.007-.036-.004 0-.034zm.124.879c.046-.075.046-.075 0 0zm.107-.401c-.095-.063-.15.69 0 0zm.113-.108c.087.26-.28-.11 0 0zm-.047-.306c.035.024.016.01 0 0zm.073-.443c.115.116.017.015 0 0 .02.02 0 0 0 0zm.15.58c-.016.03-.092.17 0 0zm0-.355c-.174.16-.174.16 0 0zm.331-.37c-.11.247-.607.481 0 0zm-.192-.128c.055.036-.076.04 0 0zm.265-.315c.02.024-.176.183 0 0zm-.036.506c.007-.062.127-.085 0 0 .005-.037 0 0 0 0zm-.073.105c.02.199-.181-.012 0 0zm-.136.322c.113-.113.214-.235.302-.368-.006.108-.148.254-.302.368zm.56-.532c0 .119-.12-.01 0 0zm-.019-.045v-.035h.02c.006.02 0 .031-.02.035zm.039-.259c-.01-.017.088-.027 0 0zm.072.193c-.06.066-.06.066 0 0zm-.316-.088c.72-.08-.029-.193 0 0zm.085-.387c.103.098-.169.066 0 0zm.073-.041c-.035.033-.035.033 0 0zm.138-.137c-.103.077-.222.031 0 0zm.093.565c.001 0-.104.16 0 0 .023.02 0 0 0 0zm.073-.3c-.046.053-.046.053 0 0zm.104-.242c.073.05-.421.347 0 0zm.053.26c-.026.03-.026.03 0 0zm.046-.364c0 .007 0 .02-.007.023-.008-.018-.005-.025.007-.023zm-.046-.275c.192-.053-.008.028 0 0zm.158.443v.067c-.038.007-.038-.016 0-.067zm.435-.587c.005.021-.093.08 0 0zm.389-.346c-.007-.019.016-.041 0 0zm-.843.667c2.179-1.143.663-1.207 0 0zm1.265-.03c0-.025-.14.151 0 0zm-.047-.493c.104-.026-.084.089 0 0zm-.028.137h.009c.003.046 0 .046-.009 0zm-.026.507v.023c-.04.007-.04-.001 0-.023zm-.012-.2c-.033.017.24-.103 0 0zm.029-.928c-.083.107-.083.107 0 0zm-.092.985c.005-.024.05-.022 0 0zm.01.2c0 .166-.208.042 0 0zm-.038-.057c.084.18-.186-.061 0 0zm-.257.01c-.007-.025.042-.055 0 0-.006-.02 0 0 0 0zm-.028.048c-.076.046-.076.046 0 0zm.212.104v.057c-.1.024-.1.005 0-.057zm-.072-.04c-.067-.035 0-.43 0 0zm.494-.444c-.04.065-.02 0 0 0zm-.052-.12c.304.067-.329 0 0 0zm.082-1.29c.088.158-.354-.029 0 0zm.056-.08c.037.146-.118-.15 0 0zm.145.12c.04.006-.067.455 0 0zm-.035.218h-.019v-.034c.032-.008.038.003.019.034zm-.222.733c-.1.007-.061-.054.119-.185 0 .074-.05.128-.119.185zm.427-.354c-.127-.023-.2.186-.297.04l.037-.022c.124-.088.197-.068.26-.018zm.054.34c-.236-.128.027-.022 0 0zm-.067.111c-.059-.005-.052.456 0 0zm-.247-.25c.05-.138.212-.155 0 0 .012-.036 0 0 0 0zm.03.192h-.012v-.029c.024-.005.028.004.011.03zm.43-.304c.087-.094.087-.094 0 0zm.167.055c.084-.061-.7.3 0 0zm.323-.557c-.109 0 .141-.11 0 0zm-.48.075c.118.04.567-.52.573-.518.157-.498-.601 1.16-.572.518zm.046-.572c-.111.107-.111.107 0 0zm.158-.43c.133.114-.274-.01 0 0zm.211.34c-.024-.034-.052-.04-.083-.017.004-.065.032-.06.083.017zm.12-.34c-.23.235-.542.202 0 0zm-.285-.054c.008 0 .023 0 .026.007v.017c-.025.009-.034 0-.026-.024zm.47-.098c-.046.046-.317.342 0 0zm.092 1.08c-.281.284-.013-.02 0 0zm.607-.698c.095-.075.069-.054 0 0zm-.338.264c.03-.048.015-.025 0 0zm-.13.128c-.037.03-.037.03 0 0zm-.007.16c.417-.022.931-.975 0 0zm-.132-.431c1.136-.718.532-.388 0 0 .192-.121 0 0 0 0zm.027-.438c-.023.073-.029 0 0 0zm.092-.243c-.057.085.008.137 0 0zm.395-.275c.459-.182-.283.225 0 0zm.216.31l.027.023c-.045.048-.053.04-.027-.023zm.073-.551c-.071.13.015.115 0 0zm.065.389c.02.237-.172.204 0 0zm.094-.493c.058.178-.23.048 0 0zm.007.645c-.144 0 .21-.062 0 0zm.157-.766c-.147.16-.147.16 0 0zm.139.356c.003.097-.067.223-.048.087-.115.005-.1-.023.048-.087zm.045-.46c-.21.13-.21.13 0 0zm.081.379c.133.08-.111.08 0 0zm0 .087c.018 0 .05.055 0 0 .011 0 0 0 0 0zm.408.219c.168-.078.234-.254.423-.3-1.197.918-2.197.85-.423.3zm-.1-.507v.023c-.04.006-.04-.001 0-.023zm.034.062c.141-.053.073-.268.223-.103.081-.166-.288.238-.223.103zm.196-.7c-.102.098-.102.098 0 0zm.509 1.13c-.064.074-.064.074 0 0zm.125-.14c.377-.143.012.106 0 0zm.157-.483c.06.114-.196.081 0 0zm.238-1.773c.363-.234 1.359-.976 1.832-.941-.434.252-2.441 1.332-1.832.94zm2.354-1.211c.14.147-.755.11 0 0zm.15-.063c.1.095-.205 0 0 0zm.183-.064c-.135.053-.135.053 0 0zm.405-.38c-.107.03-.107.03 0 0zm.37.073c-.128.242-.873.197 0 0zm.138-.056c-.145.063-.145.063 0 0zm.137-.058c-.131.078-.131.078 0 0zm-.442-.057c1.234-.571.61-.103.039.082-.044.009-.057-.019-.039-.082zm.869-.086c-.31.12-.266.103 0 0zm6.063 3.593c-.011-.03-.024-.082.007-.111h.02c.042.086.033.122-.027.11zm-1.654 4.607c-.222.234-.03-.072 0 0zm.423-.397c.04.226-.43.801-.56 1.018.229-.557.683-1.047.56-1.018zm0 .225c.015-.147.001-.012 0 0zm-.754 1.04c-.648 1.526-2.01 2.095-.847 1.234l-.04-.023c.223-.321.921-1.519.887-1.21zm-1.291.985h-.012c.012-.076.015-.076.012 0zm.166.564c.06-.12.129-.06 0 0zm.356-1.329c-.015.031-.098.201 0 0zm.666-.438c0 .01 0 .02-.008.024-.008-.019-.005-.027.008-.024zm.289-.459c.024.23-.377.642 0 0 .008.081 0 0 0 0zm-.446-3.675c.12-.156-.183-.223.25-.33.17-.15.544-.529-.25.33zm-.101.016c-.087.138-.087.138 0 0zm-.084-.563c.051-.145.052-.053 0 0 .01-.031 0 0 0 0zm-.009.386c.13.02.001.002 0 0zm-.143.248c.059-.095.059-.095 0 0zm.09.138c-.21.185-.21.185 0 0zm-.175.32c1.725-.248-.346-.719 0 0zm-.048.026c-.308.475-.308.475 0 0zm-.1-.111c-.102.162-.102.162 0 0zm-.01-.34c.008.007-.15-.196 0 0zm-.227.673c.09-.12.09-.12 0 0zm-.27.48c.022-.399.206-.336 0 0 .007-.117 0 0 0 0zm-.031.033c.023.018 0 .047-.015.064-.033.004-.028-.017.015-.064zm-.072.098c.018.021-.026.054-.026.088-.05.006-.041-.024.026-.088zm-.278.49c.002.003-.215.489 0 0 .028.055 0 0 0 0zm.012-.234c-.008.01-.019.01-.031.01.012-.053.023-.056.031-.01zm.081.08c.023.017-.004.047-.008.067-.04.005-.037-.017.008-.068zm-.112-.273c-.01.024-.033-.385 0 0zm-.185.83c.123-.237.123-.237 0 0zm.492-.122c-.063-.058-.098-.038-.103.06-.89 1.034-.185-.179.196-.575-.492.174.162-.436.1-.209.109-.175.281-.368.468-.484.102-.257.171.025.02-.017-.06.078-.567.611-.357.678-.059.035-.136.15-.197.192.316-.05.108.249-.127.355zm-.71.889c-.06.093-.05.046.027-.138l-.04-.007c.243-.047.112.014.014.145zm.027 4.75c-.026-.076-.026-.076 0 0zm-.073-4.865c.03-.114.2-.735 0 0zm.065-.57c-.046.068.004.022 0 0zm.119-.265c-.098.17-.098.17 0 0zm-.074.207l-.01.01c-.005-.073-.002-.076.01-.01zm-.315.01c.278-.837.487-.155 0 0zm.074 5.972h-.02c.019-.052.025-.052.02 0zm-.434-5.595c0-.298.441-.355 0 0zm-.056.05c.017-.03.048-.082 0 0zm-.11.393c.471-.68.057.096 0 0zm.407-.492c-.326.62-.07.03 0 0zm.1.623c.021-.062.03-.006 0 0zm-.073 5.126c.039-.028-.007-.056.02-.088.07.018.064.047-.02.088zm-.018.46v-.024c.017-.003.017.005 0 .024zm-.035-5.73c.035-.06.023-.04 0 0zm.015 5.851l-.008.007c.008-.115.011-.117.008-.007zm-.073-.427l-.02.017c.018-.07.024-.076.02-.017zm-.026.742c.001 0-.004.13 0 0 .018 0 0 0 0 0zm-.12.228h-.011v-.084c.036-.004.04.024.011.084zM18.57 27h-.007c.018-.068.02-.068.007 0zm-.036.154c.04-.097.04-.097 0 0zm-.002.037c.015-.011.013-.015 0 0 .005-.004 0 0 0 0zm-.045-5.778c.03-.08.06-.163 0 0zm-.047 5.709l.01-.105c.053-.007.05.028-.01.105zm.058.297c-.059-.065-.018-.172-.112-.026.09-.302.094-.188.112.026zm-.093.104c.03-.112.006.004 0 0zM1.971 26.58h-.006c-.002-.046 0-.046.006 0zm-.83 1.636c-.01 0 .001-.082 0 0-.014 0 0 0 0 0zM15.434 12.61h-.027v-.023c.025-.008.035-.001.027.023zm-.238.099c.143-.065.143-.065 0 0zm-.15.13c.2-.113.2-.113 0 0zm-.1-.148c-.02-.002-.035-.019-.028-.04.04-.012.049.001.027.04zm-.12.29c-.084.134.193-.356 0 0zm-.323.116c.002.002-.07.033.074-.065l-.038-.027c.096-.063.085-.032-.036.092zm-.691.125c-.554.024.054-.01 0 0zm-.408.243c-.19-.23.057-.02 0 0zm-.397.395c.038-.051.038-.051 0 0zm-.175-.102c-.227-.093.51-.106 0 0zm.018.19c-.118 0 .211-.024 0 0zm-.156-.12c-.059.02.197-.05 0 0zm-.239.17c-.221-.192.02.162 0 0zm.054.185c-.958.432-.156.178 0 0zm-.69.41c-.578.595-.247.06 0 0zm-.59.387c.17-.107.17-.107 0 0zm-.456.34c-.246.191.054-.109 0 0zm-.32.217c.255-.184.255-.184 0 0zm.11-.357c-.014.078-.014.078 0 0zm-.314.519h-.027c.04-.048.049-.048.027 0zm-.047-.168c-.001-.003.031.075 0 0zm-.019-.15c.01.003.04.167 0 0 .03.009 0 0 0 0zm-.1.437c-.018.026.106-.082 0 0zm-.222.17c.102-.096.102-.096 0 0zm-.1.073l.019-.033c.016.012.01.023-.019.033zm-.177-.208c-.002-.002-.023-.044 0 0zm-.12.571c.098-.1.098-.1 0 0zm-.296-.237c.016-.056.001-.005 0 0zm-.062.052c-.01-.02.01-.026 0 0zm-.02.363c-.043-.012 0 0 0 0-.013-.003 0 0 0 0zm-.072.081h-.03c.065-.078.075-.078.03 0zm-.157.258h-.018v-.026c.021-.007.027.002.018.026zm-.037-.453c-.109.04.132-.067 0 0zm-.14.178h-.008c.03-.113.015-.002.009 0zm-.276.638c.04-.047.14-.07 0 0zm-.185.064c.006-.026.09-.112 0 0zm-.101.065c.003-.006.083-.085 0 0zm-.065.046c-.01.013.074-.087 0 0zm-.1.09c.12-.131.01.003 0 0zm-.275.232h-.02c.025-.08.033-.012.02 0zm-.078.082c-.006.01.085-.079 0 0zm-.033-.348c-.036-.035.013-.005 0 0zm-.058.185c0-.014.04-.072 0 0zm-.187.403c.05-.064.044-.004 0 0zm-.013-.322h-.02c.004-.035.012-.021.02 0zm-.151.483c.15-.168.15-.168 0 0zm.027-.375c.023.02-.004.044-.008.064-.027-.049-.024-.07.008-.064zm.077.16c-.018.02-.067.07 0 0zm-.196.306c-.005.026.03-.069 0 0zm-.204.193c.078-.085.078-.085 0 0zm-.31.338c-.283.09 0-.109 0 0zm-.197.172c.005-.008.121-.082 0 0zm-.062-.218c0-.013.037-.04 0 0zm-.131.409c.187-.215.187-.215 0 0zm.131-.61c-.075-.072-.063.393 0 0zm-.177.367c-.012.03.065-.073 0 0zm-.054.347c.042-.119.02-.008 0 0zm-.057-.289c.037-.045.037-.045 0 0zm-.12.491c-.038-.054.062-.084.093-.127l-.092.127zm.028.09h-.008V19.6c.036-.006.038.016.008.065zm-.1-.477c.201-.37.137.146 0 0zm-.019.495c.008-.016.129-.112 0 0zm-.1-.162c-.061-.09 0 .001 0 0zm-.03.296c.008-.022.08-.061 0 0zm-.017-.427c.025 0 .028.023.028.04-.034.022-.044.01-.028-.04zm-.057.121c-.08-.021.075.027 0 0zm-.312.725c.17-.2.17-.2 0 0zm-.091.104c-.09-.116.275-.11 0 0zm-.178.196c.14-.27.094-.123 0 0zm-.018-.356c-.11-.166.036-.047 0 0zm-.093.171l-.007-.011c.058-.064.06-.06.007.011zm-.035.523c-.015.004-.018-.013-.03-.016.057-.063.018.018.03.016zm-.122-.466c.025-.075.025-.075 0 0zm-.062.506c.083-.104.083-.104 0 0zm-.031-.442h-.008c.026-.085.023-.013.008 0zm-.072.594c.053-.09.053-.09 0 0zm-.166.178c.122-.14.122-.14 0 0zm-.028.219c-.04-.03.014-.007 0 0zm-.149.023c.139-.17.139-.17 0 0zm-.034-.393c-.162-.219.154.09 0 0zm-.104.175c-.096-.226.068-.032 0 0zm-.185.13c-.002-.015.015-.006 0 0zm-.054.147c.006.013.018-.23 0 0zm-.093.182c-.006.005-.015-.003-.018-.006.044-.058.05-.055.018.006zm-.146.018c.083-.087.083-.087 0 0zm.01.557l-.01.007c.017-.042.02-.044.01-.007zm-.166-.32c.046-.09.046-.09 0 0zm-.119.73c.06-.147-.035-.098 0 0zm-.297-.194c-.133-.176.318-.03 0 0zm-.183.316c-.147.342.188-.399 0 0zm.026.136c-.008-.002-.016.005-.02.008v-.04c.025-.007.031.004.02.032zm-.092.515c-.156-.193.311-.116 0 0zm-.35.43c-.015-.012.03-.08 0 0-.015-.013 0 0 0 0zm-.02-.39c-.088.037.075-.042 0 0zm-.073.057c.011-.042.076-.058 0 0zm-.012.154l-.006-.023c.012-.002.014.005.006.023zm-.245.353c-.07.092-.142-.32 0 0zm-.13.229c.016-.228.003 0 0 0zm.045.105h-.008v-.035c.017-.003.02.009.008.035zm-.178.31c-.01.008.012-.001 0 0zm-.244.915c.034-.053.034-.053 0 0zm-.077-.321c-.034-.029-.052-.123 0 0-.013-.011 0 0 0 0zm-.048.385c.012-.057.054-.033 0 0zM.634 28.13c.009-.214.132-.237 0 0zm-.027.088c.01-.077.046-.043 0 0zm-.146.09c.008-.14.01-.004 0 0zm-.223.579l.013-.082c.04-.004.035.023-.013.082zm22.86-8.415h-.007c.021-.046.023-.046.007 0zm-.384.725c-.003.007.06-.313 0 0zm.744-2.176h-.006c.006-.056.008-.056.006 0zm-.084.298c.112-.236.112-.236 0 0zm-.2.524c-.035.003-.013-.037-.037-.05.028.01.052.023.038.05zm-.168-.2v-.035c.021-.003.021.008 0 .036zm-2.369 3.811c0 .008 0 .02-.011.023-.015-.021-.012-.028.011-.023zm.211-.178c-.036.045-.036.045 0 0zm.028-.16c-.012.02-.012.02 0 0zm.11-.128l-.037.094c-.067-.002-.055-.034.038-.094zm.16-.242c.017.242-.358.268 0 0zm.118-.155c.154-.364-.269.17 0 0zM46.18.765c-.005-.008-.008-.017 0-.015v.015zm3.517 3.95c.022.17-.129.69 0 0 .016.119 0 0 0 0zM49.78 3c.051.01.04.118 0 0 .017.003 0 0 0 0zm.083.155c.043.024-.005.054.008.087-.044.007-.046-.022-.008-.087zm.054 1.2c.219.088-.215.165 0 0zm-.542 3.684h-.011v-.034c.018-.003.022.008.01.034zm-1.264 3.387c.06-.183.06-.183 0 0zm-.019.08l-.009.005c.008-.049.011-.05.009-.006zm-.192.46c.07-.229.07-.229 0 0zm-.215.53c.04-.168.04-.168 0 0zm.46-2.489c.052-.153.052-.153 0 0zm2.92 15.064c.063.051.06.12-.007.208-.01-.087-.004-.099.006-.208zm3.437-5.864c-.057-.09.05-.087 0 0zm-.119.096c.02-.053.066-.043 0 0zm1.142-1.573c-.004-.001.506-.346 0 0-.014-.003 0 0 0 0zm-.154.087c-.01-.041.046-.041.08-.063l-.08.063zm-.083.219c-.035-.02.059-.058 0 0zm-1.161.347c.158-.14.158-.14 0 0zm5.074.396c.957 1.21.296.552 0 0zm.357.465c-.062-.157-.062-.157 0 0zm.064.469c.029.197.014.392-.045.582-.039-.17-.008-.389.045-.582zm6.866 8.408c-.088.105-.088.105 0 0zm1.06-1.038c-.051.084-.051.084 0 0zm.233-.316c-.236.354-.236.354 0 0zm.199-.306c.207-.265.265-.547.425-.702l.03.015.017-.031c-.008.075.01.057.054-.054-.082.009-.091-.018-.028-.08-.018-.051-.53.936-.498.852zm-.11-.508c.017.007.006.041-.01.058-.046.007-.042-.012.01-.058zm.082.38c-.23 0 .407-.233 0 0zm.64-1.29c.188.096-.302.52 0 0zm.064-.201c.056.056-.029.297 0 0 .05.052 0 0 0 0zm.046.457c-.16.16.274-.437 0 0zm.072-.894c-.03.254-.06-.05 0 0zm.028.88c-.032.104.064-.292 0 0zm7.71.619c0-.026.02-.008 0 0zm-4.186-4.85c-.006-.008.187-.268 0 0zm.035.288c-.052.025-.022-.136 0 0zm-.276-.363c.21-.008.21-.008 0 0zm-.1-.006c.06.008.06.008 0 0zm-.304.006c-.612.46.238-.01 0 0zm.028.363v-.034c.193.01.193.022 0 .034zm-.073.048c-.054-.172-.034-.049 0 0-.016-.052 0 0 0 0zm-.02.107c-.112-.086.098-.052 0 0zm-.14-.155c-.322.163-.491.134-.507-.088.283.124.052-.064.6 0-.089.022-.1.031-.093.088zm-.573-.219c-.091-.035.004.002 0 0zm-.202-.508c.336-.274.137.268 0 0zm-.026.388c.019-.01.078-.022 0 0zm-.029.137h-.006v-.023c.033-.007.035.001.006.023zm-.303-.46c-2.467 0 .648 0 0 0zm.193.357c-.038-.008-.039-.064 0 0-.02-.004 0 0 0 0zm-.074.126h-.02c.015-.043.03-.01.02 0zm-.183-.086c-.057.02.103.009 0 0zm-.343-.074c-.085-.065-.085-.065 0 0zm-.257.114c.263-.071.054.06 0 0zm.065.08h-.011c.014-.052.014-.002.01 0zm-.381-.292c-.167-.118.906-.247 0 0zm.139.068c.046-.048.072.005 0 0zm-.211-.017c.096-.003.096-.003 0 0zm-.12.047c-.168-.126.243.1 0 0zm1.192-.514c-.126.018-.123-.07 0 0zm-.936.805c-.13.03.138-.068 0 0zm-.108 0c-.181.031.144-.077 0 0zm-.313-.29c.124-.034.124-.034 0 0zm-.276-1.21c.039-.006.243-.035 0 0zm-.12.023c.02-.007.041-.013 0 0zm-.278.51c-.137.032.165-.06 0 0zm-.121.013c-.036.034-.128-.049 0 0-.035.032 0 0 0 0zm11.377 4.083c-.094-.9-1.343-3.833-1.053-3.242-.032.04-.057.027-.073-.041 0-.04-.206-.573-.442-.668-1.2-.916-6.083-3.23-7.208-1.669.775.287-1.46.351-2.149.428.658.001 2.242-.502 1.531.056.438-.061-2.362.242-2.519.556 4.378-.315-1.345 1.092-.265.846-.109.007 3.75-1.235 1.282.064 1.267-.033-.31.184-.84.267 1.982-.304.428.037.45.12 1.64-.14 1.004-.212.869-.023-.206.075-.492.202-.46.07-.084.045 4.363-.7-.663.568.26-.058.77-.059 1.012-.084 6.71-.892 5.78 2.26 7.332 4.314h.014l.007.05c.062-.122.113-.116.295-.306.277.203.056.454-.664.756.06.095.151.04.27-.161-.832.969-1.86 1.651-3.093 2.2 2.29-.158-2.03.42-2.29.978.886-.276 3.273-.35 1.487-.299-1.767.519-3.519.67-4.427 1.006 1.524-.845-4.125.456-2.16-1.352a.621.621 0 0 1 .341-.283c1.423-.984 2.526-4.634 2.822-4.806.252-.225 0-1.381-1.87-1.984.014.017-.487-.411-.16-.136.108.187-.08.13-.337.241.286.183-.124.138-.37.338-.59.59-3.566 4.008-2.997 4.861-.554.51-4.557 2.69-2.28 2.172.019.044.049.055.092.03-2.851 1.285-4.44 1.334-3.644 1.145.086.117.227.111.423-.017-.09.1-.215.13-.377.09-.756.285-3.518-.622-3.71-.534l-.019.018c-.445-1.399-.511-2.111-.645-1.856.569-.584 2.26-2.073 1.984-1.957.083-.271.478-.652.75-.807.803-.146-.985.678-1.507 1.726.006.015-.235-.324-.22.13.03-.028.052-.028.066 0 .227-.322-.172.172-.186.253.393-.392 2.284-2.198.707-.559-2.102 2.067-.015-.29.573-.397-1.151 1.587.94-.988 1.534-1.428-.051.137-.002.09.146-.144-.072-.014.077-.243.212-.265.119-.147 2.593-2.85 1.543-2.073.937-1.531-.065-.762.718-1.225.867-1.48-.413-1.247-.093-2.651-.608-.913-.978-1.459-1.694-1.878l.014-.016c-.994-.336-1.466-.293-2.168.247l.011.01c-.433.315-.95.6-1.336.974l.002.004.165-.137c.809-.224-.604.787-1.025 1.2-.036.099-.163.227-.214.24l-.073.08c-.127.07.906-1.04 1.086-1.04-.233.246-2.412 2.427-2.386 3.378.545-.915 3.412-4.582 3.412-3.788l.047.016-.131.111.013.012c1.755-1.037-1.103 1.573-1.155 1.543a.42.42 0 0 1 .191-.201c.202-.344.012-.054.306-.295-.408.424-.752 1.22-1.207 1.54-.087.104-.786.993-.72 1.094l.036-.049c.097.048.044.131-.158.25.046.004.046.027 0 .068-.037-.05-.068-.02-.092.093.047-.083 1.299-2.398 2.03-2.714-.005-.16.05-.06.018-.058.887-.424-.848 1.228-1.187 1.62-.016.023-.198.48-.232.502-.784 1.748-1.808 4.085-1.677 4.057.054.258-.263-2.488.31-2.609-.17.265-.19.587-.33.935-.09.035-.132.141-.117.27-.01.015-.044.248-.067.248-.093-.213-.062.192-.02.078.038.014.04.046.009.097-.051.068-.095.248-.13.443.05-.04.052-.021.01.058l-.02-.028c.016-.245.086-.96.118-.946.218-.663 1.076-2.772.255-.9-.108.04-.158.16-.145.308.297-.957.31-.512.014-.472-.365.959-.247.53-.44 1.593-.038.443-.092.681-.145 1.216.041-.053.052-.033.033.063.004-.014-.11.466-.053.537-1.984 1.881-2.875 3.512-4.062 3.117.011-.066-.02-.062-.093.012-1.114.784-2.755 1.178-3.812.594-.074-.195-.773-1.727-.515-1.28l.054-.015c.072.118.085.25.039.396l-.02-.017c-.14-.56-.153-2.982-.112-4.274-.09.23-.365.925-.174.848.001.148.074.405-.065.2-.193.462-.08-.19-.006-.385-.024-.069-.093-.372.028-.34-.013-.04-.059-.204-.022-.236.48.097-.14-.877.608-2.337.719-1.132.28-.66.177-.788.051-.229.449-2.222 1.219-2.846.024-.01.34-.254.284-.387.117-.254 1.285-2.824 1.226-2.485-.38.635 1.427-2.632 1.21-2.651-.351.652.455-.682.573-1.152.208-.665.192-1.245.385-.983.037-.102.088-.232.13-.335-.006-.05.035-.386.278-.748.116-.326.771-2.41.572-1.079.036.04.05.06-.013.031-.023.145-.062.352-.144.477-.145-.057-.04.142-.177.306-.225.693-.129.926-.33.926.1.052.18.092.44-.517.286-.767.728-1.97.628-1.999.038-.231.178-.756.278-.466.028-.089.714-2.925.83-2.925.335-2.883-.011-.938-.073.846h-.035c-.216 1.007-.897 4.58-1.891 5.699l-.021-.015c-.168.418-.85 1.888-.534 1.578-.245.393.316-.715.313-.715.896-1.83 2.122-5.06 2.535-7.566-.025-1.058-.74-3.651-1.263-3.198-.648-.854-.166-.677-1.492-1.63-.105.045-.186-.044-.23-.153l-.04.073.02.018c.048-.018.092.01.12.063-.28-.05-.724-.086-.877.098l.065.081a1.144 1.144 0 0 0-.426.618c-.307.722-1.02 2.192-1.522 3.137l.056.017c.034-.22.15-.46.306-.645a.617.617 0 0 0 .072-.144c.078-.023.14-.132.166-.229-.031.351-.249.938-.479 1.322 2.753-5.275.395-.306-.867 2.362l-.02-.023a22.795 22.795 0 0 0-.838 2.281c.42-.925.006-.076.006.248l-.006-.005a6.738 6.738 0 0 0-.639 2.038c.015.127-.029.128-.137-.03a.563.563 0 0 1-.054.242.064.064 0 0 0 .054-.018 2.085 2.085 0 0 1-.21.83l.052-.046c.02.099-.051.255-.145.353l-.02-.07c-.063-.016-.058-.118-.03-.204-.308 1.159-.408 1.508-.623 1.897.016-.021.038-.027.065-.017-.112.463.032.152-.137.404-.002.192-.118.621-.252.909.098-.076-.266.246.08-.846-.256.696-.55 1.452-.264.16-.064.199-.503 1.207-.35.458a1.48 1.48 0 0 1-.11.268l-.02-.07-.028.023-.018-.023a35.078 35.078 0 0 0-4.772 2.078l.02.023c-.038.032-.28.164-.238.105a.765.765 0 0 0-.38.202c-.051.04-.43.244-.488.373a6.58 6.58 0 0 1 .756-.38 67.021 67.021 0 0 0-2.879 2 .328.328 0 0 1-.177.154l-.008-.01c-.864.68-1.67 1.686-2.609 2.274-.134.13-2.18 2.078-2.068 2.33-.997 2.053-2.355 3.778-4.094 5.11 2.686-1.612.736-.52.86-.236a.11.11 0 0 1-.076.029l.008-.042c-.629.38-1.281.717-1.953 1.014.03-.02-.491.196-.69.225.09-.158-.377.288-.428.122-.021.03-.013.053.026.067-.618.185-1.262.248-1.89.185-.079-.052-.153-.174-.25-.202a.501.501 0 0 0-.139-.265l.04-.01c-.205-.38-.546-1.334-.408-1.555l-.009-.007-.038.054c-.067-.093-.085-.026-.054.2-.043-.792-.1-.687.02-.432.104-.052.11-.158.015-.317l-.027.024c-.107.134.607-.454.066-.135l-.02-.016-.046.065c.012-.163.188-1.378.15-.67.054-.147.49-1.516.461-1.564l-.037.031c-.05-.045-.033-.106.052-.184.197-.287.237-.608.362-.758.105-.057.374-.248.408-.426-.095.088-.071.044.073-.131.058.063.113.02.165-.128-.073-.018-.068-.056.019-.113.065-.058.318-.413.342-.436-.001-.009.043-.188.14-.241.035-.044.293-.345.336-.412.438-.576.873-1.29.935-1.555 0 0 .157-.175.02-.071l-.059-.017c-.128.227-1.727 2.812-1.898 2.708.7 1.491.543-4.536 2.912-4.896.18.15.334-.013.462-.488-.764 1.424-.586 1.298-.507 1.346.08-.206.226-.527.362-.686.645-1.056.06-.46.403-.386-.17.372-.117-.051-.036-.098 2.018-2.794-1.058 2.203-.874 2.242.113-.042.155-.167.19-.301.19-.313.777-1.44.936-1.798.326-.972.835-1.732 1.503-2.522.107-.29.717-1.24.341-1.104.268-1.135.194-1.296-.315-1.7-7.126-5.506-8.036-.086-14.364.967l-.026-.04c-.11.08-.147.056-.113-.067-.222.15-.561.579-.81.639l-.02-.048c-.035.09-.071.159-.14.111-.073.088-.233.279-.301.299-.062.03-.559.486-.701.49-1.215 1.053-6.757 6.978-6.404 7.162-.21.286-.36.489-.546.813.1.031.078.093-.06.186l-.032-.024c-.125.628.183-.311.39-.33a.805.805 0 0 0-.285.467c-.348.832-.421.44-.335.412-.21.376-.594 3.683-1.116 3.796-.032 4.733.71-5.029 2.67-5.475.467-.723 1.051-1.88 1.779-2.48.153-.173.458-.7.803-.832 2.818-2.729 10.703-6.749 8.733-6.707l-.009-.05C12.44 14.5 9.398 14.512 8.052 18.19c-.049-.039-.089-.018-.118.064-.327.331-1.42 1.327-1.442 1.417.265-.037-.16.147-.185.17.002.003-.024.176-.127.194-.031.025-.41.486-.434.482l-.019-.039c-.04.018-.042.049-.006.09-.064-.018-.094.011-.093.087-.124.141.31-.009-.507.598-1.882 2.308-3.163 6.992-4.2 7.787-.027-.016-.148.196-.071.329.014-.016.029-.01.046.016-.048.243-.154.873-.039 1.105 1.565 1.92 4.928 3.539 6.53 1.688.12-.067.777-.284.923-.436l-.026-.018c.79-.361 2.24-.813 2.72-1.522.494-.216.77-.398 2.335-1.639.036-.03.895-.7.987-.604.152-.239.438-.286.884-.9.052.036.093-.002.123-.114.097-.093 1.22-.895.726-.532.272-.136-.008.153-.193.443.224-.203.397-.06.22-.015-.032.756-.021 2.19.52 2.924 1.244 1.856 4.798 4.384 7.137 2.516.264-.201 1.08-.392 1.2-.534a.987.987 0 0 1 1.349-.19c1.403 1.225 2.978 1.503 4.832 1.185l-.046-.033.084-.041c1.81-.804 3.454-2.076 5.792-4.079-.042-.014-.039-.039.012-.073.225-.045 1.023-1.04 1.216-1.04 1.725-.832-1.542 1.15-1.308 1.404 2.003-1.895 1.805-.874 2.121-.33.942 1.98 3.093 4.017 5.479 4.165-.491-.285.19-.1.13-.054.074.067.173.077.296.03-.18-.228.363-.219.645-.143-.828-.205-.228-.01.258-.203.74-.132 1.177.25.157-.12.313-.13 1.407-.477 1.43-.46-.036.006-1.72.162.187-.203l.007.099c4.733-2.808 1.047.442 3.716-1.873 2.696 2.798 4.692 2.737 7.208 2.672.035.085.033.006.034.006 1.047-.169 3.483-.76 5.35-1.86.613.788 2.337 2.347 3.564 2.19.043-.028 1.37-1.022 2.222-.233l.065-.05c.027.043.064.054.112.035l-.058-.041c.03-.034.07-.036.12-.007.653-.065 1.444-.083 2.278-.333.518-.255 1.617-1.028 1.818-.957-.051.018.287-.126.303-.121.956-.316 1.191-.46 2.057-1.195-.041-.056 1.073-1.25 2.39-2.57.098-.214 1.074-2.433.824-2.902zm-21.526 8.141c.02-.016.015-.024-.015-.023-.008.02-.003.028.015.023zm-7.276-2.798c-.053.033-.298.189 0 0zm2.444-7.908c.035-.044.035-.044 0 0zm-2.6 8.005c-.03.02-.085.012-.085.06l.085-.06zm2.85-8.383c-.022-.01-.042.017-.046.03.02.03.035.02.046-.03zm-1.414 2.805c-.081.246-.081.246 0 0zm1.384-2.724l-.054.023c.021.003.04-.005.054-.023zm-1.374 2.702c.271-.732-.105-.196 0 0zm-50.6 2.48c-.024.098-.024.098 0 0zm.166-.548c.01-.066.01-.066 0 0zm-.047.516c-.086.213-.086.213 0 0zm-.1-.015c.038-.05.18-.228 0 0zm-.091.232l-.012.042c.017-.008.021-.022.012-.042zm48.3 3.541c.135-.086.135-.086 0 0zm.74-.495h-.028c-.02.048-.01.048.028 0zM1.357 26.822c.06-.203.06-.203 0 0zm-.039.065c-.088.238-.088.238 0 0zM.95 28.056c-.04.117-.115.234-.112.346.024-.12.062-.235.112-.346zM44.596 9.983c.02-.13.02-.13 0 0zM13.984 28.217c-.018.02-.07.02-.054.056.046.016.065-.003.054-.056zm-.11.114c.01-.003.01-.016.01-.024-.015-.003-.019.005-.01.024zM12.6 29.506l.084-.056c-.038-.006-.066.012-.084.056zm25.665-6.852c.097-.115.097-.115 0 0zM14.195 28.05c-.137.01-.145.17 0 0zm-.238.433c.083-.06-.002 0 0 0zm.361-.433c-.025.014-.135.079 0 0zm-.092-.018c.088-.05.048-.09 0 0zm-1.053.84c-.085.05-.085.05 0 0zm-.877.837c.111-.079.111-.079 0 0zm.377-.45c.079-.046-.003-.02 0 0zm.261-.196c.013.004.036-.007.046.01.048-.096.033-.1-.046-.01zm-.137.098c-.024.003-.047.024-.04.041.022.002.034-.012.04-.04zm.957-.783c-.098.098-.239.185-.331.293a.698.698 0 0 0 .33-.293zm-.575.709c.028-.032.028-.032 0 0zm1.212-1.103c.22-.172.22-.172 0 0zm-1.937 1.517c2.073-1.574.08-.756 0 0zm3.17-2.604c-.107.116-.107.116 0 0zm.11-.107l-.071.08c.047-.012.071-.039.072-.08zm-.256.16c.088-.063.088-.063 0 0zm8.193 5.453c1.179-.258.026-.158 0 0zM16.05 26.5c-.343.345-.343.345 0 0zm7.953 5.642c-.041 0-.093.054-.103.035.057.043.091.031.103-.035zm-8.736-4.998c.011-.015.049-.063 0 0zm.619-.57c-.179.16-.01.008 0 0zm-.904.906l-.006.006c.003 0 .005-.002.006-.006zm-.096.02c.08-.052-.004-.004 0 0zm-.091.081c.05-.054.05-.054 0 0zm-.062.047c-.42.093.025.156.09-.007-.072.072-.102.075-.09.007zm-.02.086c-.082-.015-.183.22 0 0zm.165-.126c.024-.032.024-.032 0 0zm.054-.065c.06-.05.06-.05 0 0zm.573-.517c-.188.141-.363.3-.523.474.233-.109.407-.267.523-.474zm-.397.265c-.079-.004-.132.05-.156.163a.391.391 0 0 0 .156-.163zm-1.328 1.204c.084-.067.176-.128.25-.203-.112-.005-.195.062-.25.203zm22.62-3.513c.076-.078.076-.078 0 0zm.131-.13c.209-.219.209-.219 0 0zm.81-.22c.043-.074-.01.015 0 0 .005-.007 0 0 0 0zm.7-1.707c-.23.246-.23.246 0 0zm-7.303 7.296c.134-.1.134-.1 0 0zm1.65-1.45c.102-.09.275-.338 0 0zm.222-.172c.088-.08.196-.128.238-.219-.295.197-.375.27-.238.219zm-.369.259c-.083.442.059-.285 0 0-.012.064 0 0 0 0zm-24.69 3.328c-.06.068-.06.068 0 0zm-.291.145c.195-.085.195-.085 0 0zm3.591-1.832c.254-.156.254-.156 0 0zm.357-.224c.693-.25-.31.245 0 0zm-3.571 1.906c-.021 0-.054-.004-.047.022.02.005.036-.003.047-.022zm3.974-2.16c-.232.147-.232.147 0 0zm-.845.53c.114-.07.114-.07 0 0zM2.399 25.05c.081-.135-.877 1.547 0 0zm20.552-4.981c-.318.036.194.395 0 0zm.008.242c.047-.19-.051-.24 0 0zm-.137.266c.008-.102.122-.143.13-.244-.04.03-.153.25-.13.244zm-.351.385h.012v-.029c-.018-.004-.022.006-.012.03zm.092.041c.185-.31.185-.31 0 0zm-.006-.3c.003-.01.02-.062 0 0zm-.243.702c-.108.208-.108.208 0 0zm.046-.097c-.015.025.088-.432 0 0zm.307-.652c.01.024.056.155.093.024-.134-.789-.276.407-.093-.024zm-2.153 10.36c.062-.008.062-.008 0 0zm-.626.074c.077-.012.077-.012 0 0zm.612-.074c-.245.034-.94.256 0 0zm.264-.064c-.194.054-.194.054 0 0zm.288-7.254c-.161.256.028.192 0 0zm.212-.277c.074-.033.107-.08.1-.145a.96.96 0 0 0-.1.145zm-.396 7.498c-.102.02-.102.02 0 0zm1.069-9.012c.114-.24.114-.24 0 0zm-.239.126l-.037.07c.034.006.047-.017.037-.07zm.092-.225c.14.052.137-.112 0 0zm.514-.788c.028-.046.028-.046 0 0zm-.737 9.708c.099-.046.099-.046 0 0zm-.1-8.13c.073-.067.146-.008 0 0zm.323-.474c-.075.148-.075.148 0 0zm-.01-.185h.01c.001-.029.008-.12-.01 0zm.341-.18c.123-.202.123-.202 0 0zm.343-.746c-.193.255-.182.673 0 0zm-.6.934c.02.303 0 .001 0 0 .003.047 0 0 0 0zm.324-.443l.006-.058c-.072.139-.074.158-.006.058zm-.243.943c-.052-.31.031-.007 0 0zm-3.355 5.04c-.024.022-.021.062-.021.096l.02-.097zm2.893-4.395c-.097.184-.097.184 0 0zm26.22-12.295c-.061.106-.061.106 0 0zm.092.644c-.094.134-.477.704-.39.895.08-.207.142-.341.242-.322l.1-.25c-.17.111.052-.18.048-.323zm-.175.128c.009-.123.095-.231.11-.345.033-.052-.784 1.181-.11.345zm-.5 1.382c-.097.254-.097.254 0 0zm.252-.12c.009-.11.009-.11 0 0zm-.242-.203c.023-.043.226-.416 0 0zm.123-.24c.061-.08.1-.193.106-.284-.085.063-.12.157-.106.283zm-.031.391c.128-.154.348-.799 0 0 .053-.064 0 0 0 0zm1.092-2.426c.034-.113.034-.113 0 0zm-.124-.845c.1-.233.1-.233 0 0zm-2.01 6.199c-.116.095-.256.308-.238.469.052-.071.273-.38.238-.47zm1.982-6.17c.058.126 0 0 0 0zm.103-.204c.05-.105.05-.105 0 0zm-1.289 4.01c.045-.17.045-.17 0 0zM18.523 27.894l-.007.034c.01-.008.012-.02.007-.034zM48.34 10.267c.013-.069.013-.069 0 0zM50.002 4.7h-.021l.008.066c.03.005.035-.018.013-.066zm-.197 1.076h.011v-.04c-.021-.005-.025.009-.011.04zm-2.598 6.334l-.012.075c.029-.016.033-.04.012-.075zM45.1 3.288c-.037.122-.037.122 0 0zM40.407 15.44c.008-.131.008-.131 0 0zm6.76-1.885c-.061.125-.061.125 0 0zm.14-.139c-.02.021-.043.056-.02.072l.02-.072zM18.423 28.032c.011-.137.011-.137 0 0zm.026 1.498c0-.735.267.938 0 0zm.02.575l-.012-.017c.01.048.015.053.013.017zm28.65-16.268c.01-.006.01-.016.01-.027-.015-.003-.018.006-.01.027zm-.617.289c.11-.88-.8 1.494 0 0zm-.164 1.192c-.177.46-.177.46 0 0zm-.01-.622l-.011.056c.048-.016.052-.034.01-.056zm.507-1.314c.386-1.879-.578.87 0 0zm-.572 1.527c.042-.107-.031-.041 0 0zm.303 14.592c.124-.054.124-.054 0 0zm.113-16.239v.04c.014-.008.014-.022 0-.04zm.414.426c-2.072-.646 1.374 3.09 0 0zM6.42 19.268c.018-.009.077-.05 0 0zm-1.115 1.38v-.04c-.041.044-.041.058 0 .04zm-.066-.072c.066-.049.027-.076 0 0zm-.01.128c-.1.15-.1.15 0 0zm-.398.676c.21.059-.078-.438 0 0zm-.026-.298l.011-.04c-.041.06-.045.074-.01.04zm.454-.19c.106-.132.106-.132 0 0zm.073.04c-.15.2-.15.2 0 0zm.138-.512l-.04.068c.038-.01.05-.033.04-.068zm.23-.053c.036-.046.036-.046 0 0zm-.12-.057c.17-.185.17-.185 0 0zm-.11.473c.112-.126.112-.126 0 0zm-.093.098c.018-.013.114-.089 0 0zm-.224-.185v-.017c-.018.038-.018.043 0 .017zm0 .276c.097.016-.005-.033 0 0zm.23-.229c.415-.564.017.007 0 0zm.31-.699c.016-.014.12-.103 0 0zm-.665 1.136c0-.018.003-.164 0 0zm-1.883 2.362c-.046-.051-.08-.027-.101.073.046.006.079-.018.1-.073zm.442-.663c.012-.018.03-.046 0 0zm.223-.352c-.025.062.005.007 0 0zm-.113.38c1.461-.47.336-.39 0 0zm-.026-.202c.08-.046-.005-.005 0 0zm1.668-2.13c.009-.009.078-.083 0 0zM3.39 23.142c-.094.158-.094.158 0 0zm1.425-1.945c.129-.144.608-.707 0 0zm-1.507 2.242l-.034.08c.038.005.05-.02.034-.08zm1.396-2.104c.026-.011.066-.048.053-.08-.088.058-.106.085-.053.08zm-.02.21c-.132.223-.132.223 0 0zm0-.364c.037.036.014.014 0 0zm.02.338c.097-.075.097-.075 0 0zm-.574.549l.04-.074c-.07.092-.082.117-.04.074zm.351-.29c.111-.068.111-.068 0 0zm-.369.186c-.004-.017.003-.03.012-.04-.042.031-.046.045-.012.04zm-.146.345c.097-.162.097-.162 0 0zm.34-.501c-.016.02-.037.054-.03.075.025-.016.035-.041.03-.075zm17.557.71c-.843-.24.339 1.192 0 0zm-11.227-6.641c-.104-.053.013.107 0 0zm-2.484 2.032c.46.056 1.508-1.761 1.864-1.6-.386.305-2.096 1.464-2.064 1.784.093.003.16-.058.2-.184zm2.382-1.912c.22-.205-.118.031 0 0zm-.092.024c-.415-.034-.312.69 0 0zM7.85 18.18c.01-.014.108-.126 0 0zm14.318 3.16c-.068.036.119-1.11-.177-.057-.2.397-.37.48-.146.357-.063.071.298-.337.323-.3zm-.33 9.28c-.21.088-.21.088 0 0zM5.754 20.293c.007-.006.05-.046 0 0zm16.315 1.392c.016-.029.077-.132 0 0zm.83 8.258c.317-.153.317-.153 0 0zm-12.19-14.127c.7.044 1.074-.8 0 0zm11.404 6.323l-.03.022c.015.016.025.008.03-.022zm.239-.363c-.031-.427-.19.377-.224.336.035-.095.064-.11.085-.046l.156-.267h-.037c-.005-.016.002-.024.02-.023zm.092-.09c-.042 0-.023.055-.026.057l.026-.058zm-.408.558c.008.001.068-.07 0 0 .016.003 0 0 0 0zm-15.268-3.2c.055-.05-.005-.018 0 0zm-3.597 4.667c.023-.05.07-.097.065-.149-.24.337-.262.387-.065.149zm3.321-4.402c-.046.051-.046.051 0 0zm-.081.112l.02-.05c-.11.102-.116.118-.02.05zm-.027.22c.123-.163.123-.163 0 0zm-.526.53c-.02.112.004 0 0 0zm.101.047l-.036.05c.031-.006.043-.023.036-.05zm.348-.726l-.026.039c.02.004.03-.01.026-.039zm-.046.277c-.218.188-.24.166 0 0zm.63-.704c-.017-.115.428-.026 0 0zm.938-.87c-.516.025.098.327 0 0zm-1.002.961c-.07.1-.07.1 0 0zm.56-.54a.462.462 0 0 0-.237.19c.105.044.185-.02.238-.19zm-.783.765c.123-.121.123-.121 0 0zm.887-1.04c.023-.018.11-.09 0 0zm-.921.91c.184-.193.184-.193 0 0zm.099-.227c.159-.16.159-.16 0 0zm.066.404v-.017c-.037.04-.037.046 0 .017zm10.397 2.348c-.024.042-.108.086-.065.129.233-.193.255-.236.065-.13zm-2.537 2.401c.061-.16.061-.16 0 0zm.034-.217l-.053.056c.046 0 .063-.02.053-.056zm.961-1.444c-.184.174-.184.174 0 0zm.203-.175c-.05.053-.05.053 0 0zm.293-.282c-.06.07-.06.07 0 0zm-1.721 1.837c.42-.06.52-1.076 0 0zm1.344-1.475c-.087.073-.087.073 0 0zm.157-.155c-.035.045-.035.045 0 0zm-.822 1.475l-.064.025c.034-.011.063-.026.064-.025zm.231-.191l.027-.026c-.015-.003-.023.006-.027.026zm-1.437 1.118c-.165.135-.409.17 0 0zm1.695-1.427c-.004-.007.007-.01.01-.013-.021-.027-.025-.022-.01.013zm.185-.127a8.824 8.824 0 0 1-.385.396c.167-.137.711-.416.385-.396zm.038-.179c-.023.005-.062.012-.054.041.026.004.044-.01.054-.04zm-.535.467c-.235.099 1.106-.842 0 0zm1.107-1.613l-.01.05c.046-.01.05-.027.01-.05zm-1.237 1.871c.077-.115.077-.115 0 0zm-.266.213c-.033-.015.234.032 0 0zm.008-.091c.645-.329.2-.475 0 0zm-2.267 1.993l.015-.034c-.058.051-.063.063-.015.034zm.099.063c.134-.149.134-.149 0 0zm.37-.363c-.012.033-.012.033 0 0zm.48-.542c-.062.077-.062.077 0 0zm.08-.07c-.08.077-.08.077 0 0zm-1.187 1.176c.159-.139.159-.139 0 0zm-.02-.122l.01-.022c-.047.045-.05.052-.01.022zm.592-.379c.062-.051.062-.051 0 0zm1.134-.91c.05-.015.056-.065.08-.096-.066-.027-.092.004-.08.096zm-.092-.42c.197-.192.197-.192 0 0zm.008.292l.073-.08c-.115.098-.139.124-.073.08zm.132-.122c.069-.073.069-.073 0 0zm.143-.474c-.17.357.015.005 0 0zm54.008 2.146c-.043.02-.05.067-.047.093l.047-.093zm-54.356-1.319c-.812.264-.398.126 0 0zm-.838.551c.098-.074.098-.074 0 0zm-.38.331c.446-.408.446-.408 0 0zm.545-.805c-.502.141-.782.408-.84.799.184-.14.904-.714.84-.8zm2.37-1.782c-.036.026-.213.147 0 0zm2.092-1.784c.052-.032.052-.032 0 0zm.262-.806c0 .472-.358.054 0 0zm0 .405c.198-.326-.032.25 0 0zm-.335-.041c-2.967.74-3.543 3.316 0 0-.095.023 0 0 0 0zm.059.28v.019c.035.004.035-.002 0-.018zM32.638 31.92c.221-.085.221-.085 0 0zM17.712 21.162c.014-.01.01-.087 0 0 .007-.005 0 0 0 0zm12.434.88l-.037.06a.085.085 0 0 0 .037-.06zm.13-.096c.126-.11.126-.11 0 0zm.222-.196c.095-.085.095-.085 0 0zm-14.676 1.122c-.027.033-.027.033 0 0zm16.151-1.312c.018-.022.05-.03.039-.05l-.039.05zm-1.096-.156c-.076.07-.076.07 0 0zm3.476-1.682l-.036.04c.025.006.038-.006.036-.04zm-.081.07l-.038.024c.016.003.03-.005.038-.024zm-4.587 2.711c-.158.161-.158.161 0 0zm-13.515.225c.067-.019.073-.063.12-.104-.057-.004-.097.03-.12.104zm.047-.225c-.122.138-.122.138 0 0zm.111-.098c-.018.004-.045.02-.039.041.023.005.036-.009.04-.04zm.112-.097c.047-.007.073-.052.08-.088l-.08.088zm.146.024c-.726.614.04-.08 0 0zm-.48.467l.027-.024c-.014-.002-.023.006-.028.024zm-.158-.043l.046-.037c-.023-.004-.039.009-.046.037zm.103.11l.021-.033c-.057.063-.064.074-.02.033zm.054-.242c-.106.108-.106.108 0 0zm1.008-.927l-.039.03c.04.02.051-.029.039-.03zm.377-.2l.01-.018c-.037.034-.04.04-.01.017zm-.804.764c.063-.078.063-.078 0 0zm.665-.637c.003-.008.023-.016.02-.024-.02-.007-.027.001-.02.024zm-.165.032c-.02.004-.03-.007-.047-.009.024.031.039.034.047.009zm-.416.514c.05-.053.05-.053 0 0zm.211-.224l.028-.017c-.011-.014-.02-.008-.028.017zm-.09.114c.076-.075.076-.075 0 0zm29.004-6.68c.03-.047.16-.249 0 0zm-32.648 9.797c.235-.202.235-.202 0 0zm6.78-6.116c.113-.146.103-.064 0 0zm.195-2.113l-.019.045c.021-.007.028-.022.02-.045zm-.314.805c-.22.4-.22.4 0 0zM20 19.1c-.113.125-.017.023 0 0zm.394-2.066c-.022.02-.165.147 0 0zm-.672 1.035c-.048.086-.048.086 0 0zm.606-1.3c-.133.214-.133.214 0 0zm-1.628 2.58l-.105.098c.043.049.078.016.105-.099zm1.417-.692l-.007.03c.01-.007.013-.016.007-.03zm-1.852 1.191c.02-.063.111-.113.1-.177-.205.134-.239.193-.1.177zm-.75.687c.068-.213.032 0 0 0zm.934-.945l-.026.034c.02.005.029-.007.026-.034zm1.753-2.274c.106-.215.106-.215 0 0zm-.026.034c-.124.17-.124.17 0 0zm-.77.961c.231-.026 2.154-3.786-.192.312.134-.033.198-.137.193-.312zm-.588.91l-.038.04c.025.006.038-.008.038-.04zm-.822.864c.062-.355-.455.237 0 0zM6.43 21.106h-.046l-.01.056c.032.006.05-.013.056-.056zm12.277-.812l-.019.056c.02-.012.026-.03.02-.056zM5.094 23.148c-.088.125-.088.125 0 0zm5.052-4.99c.076-.072-.002-.036 0 0zM4.862 23.55h-.011v.03c.018.004.021-.006.011-.03zm15.625-6.904c-.043.077-.043.077 0 0zm1.72-1.837l-.02.024c.101.076.107.068.02-.024zm-2.734 3.716l-.018.034c.017.003.023-.009.018-.034zm.111-.193c-.124.227-.124.227 0 0zm-.97 2.16c.024-.038.056-.1.04-.126-.044.08-.165.45-.04.127zm.877-1.91c.024-.007.031-.038.04-.057-.048.018-.061.038-.04.058zm3.533-3.11l-.018.016c.079.047.085.041.018-.017zm-4.693 5.279c.02-.069-.009-.024 0 0 .004-.015 0 0 0 0zm1.356-2.618c-.111.246-.111.246 0 0zm.92-1.653c-.081.129-.081.129 0 0zm-4.187 5.095c.169-.183.169-.183 0 0zm-5.35 5.569a.307.307 0 0 0-.195.187c.113-.066.205-.23.195-.187zm.12-.564c-.03.045-.03.045 0 0zm-.112.114c.12-.108.12-.108 0 0zm.231-.194c-.108.076-.108.076 0 0zm.138-.105c-.003-.003-.009-.014-.02-.01v.027c.019.005.025 0 .02-.017zm-.525.716l-.017.026c.033-.02.038-.03.017-.026zm.056-.33c.064-.04.007-.022 0 0 .018-.012 0 0 0 0zm.092.208l-.046.041c.027-.001.042-.016.046-.04zm.773-.636l-.054.042c.027.005.045-.009.054-.042zm.4-.32l.092-.082c-.045-.005-.076.023-.093.082zm-.934.943c.042-.013.062-.06.058-.08-.126.063-.145.09-.058.08zm.5-.453c.146-.11.888-.96 0 0zm2.075-2.193c-.016-.012-.538.42 0 0-.037-.027 0 0 0 0zm.112-.104c-.062.046-.062.046 0 0zm-2.706 2.588c.21-.172.21-.172 0 0zm.452-.25c-.085.302-.012-.002 0 0zm-.35.291c.045-.025.48-.275 0 0zm.139-.241l-.038.04.038-.04zm-2.878 2.441c.646-.562.13-.107 0 0 .093-.081 0 0 0 0zM4.97 31.297c-.266.085-.266.085 0 0zm8.748-6.628l-.057.05c.03.005.05-.011.057-.05zm3.725-4.11l-.026.049c.066-.039.075-.055.026-.05zm-8.936 8.595c.125-.097 0-.067 0 0zm8.771-8.424c-.15.16-.15.16 0 0zm-8.257 8.051c.143-.028.189-.144.284-.218-.078-.097-.173-.025-.284.218zm7.833-7.624c.69-.663-.468.336 0 0zm-.248.218l-.047.04c.025.004.04-.009.047-.04zm.072-.068h-.027c-.007.045.002.045.027 0zm-4.547 4.824l.02-.034c-.082.064-.089.075-.02.034zm-.434.103c-.249.131-.249.131 0 0zm.192-.17c.028.082-.401.101 0 0zm-1.872 1.889c-1.265 1.446.011-.002 0 0zm2.076-2.076l-.02.026c.022.006.028-.003.02-.026zm-.047.308l-.036.04a.059.059 0 0 0 .036-.04zm-1.798 1.604c.018-.012.109-.074 0 0zm2.04-2.061c-.148.115-.148.115 0 0zm-1.494 1.482c-.124.12-.124.12 0 0zm-.065.218l.065-.065c-.036-.006-.058.016-.065.065zm21.179-5.788c.04-.077.04-.077 0 0zm41.697 9.94c-.293.133-.002.006 0 0zm-14.88.893c.283-.052.283-.052 0 0zm-11.426-.45c.265-.085.265-.085 0 0zm-.066-.018a.079.079 0 0 0-.047.058c.093-.019.109-.038.047-.058zm-.103.065c-.097.023-.097.023 0 0zm21.32-6.287l-.016-.01c-.045.07-.04.074.017.01zm-10.084 6.806c-.005 0-.007.002-.013.006.005 0 .01-.001.013-.006zm0 0c.005-.004.009-.006.011-.01l-.01.01zm-.013.006c-.294 0-.084.038 0 0zm-25.069-1.033c.035-.085.035-.085 0 0zm-.284.114l-.077.057-.016-.016c-.152.262.094-.04.093-.04zm.228-.097c-.072-.04-.162.193 0 0zm.121-.046c.072-.121.072-.121 0 0zm.12-.115h.026c.006-.044-.002-.044-.027 0zm13.468.686c-.016-.021-.045 0-.045.016.018.005.034 0 .045-.016zm-11.293-2.219c-1.327.753.665-.637 1.153-.973-.258.206-.9.684-1.153.973zm-2.03 1.447h.02c.004-.037-.002-.037-.02 0zm.665-.42c1.517-.731-.284.878 0 0zm36.035 1.709c-.049.009-.049.009 0 0zm.792-.106c.035-.011.035-.011 0 0zm-.821.033l-.007.023c.024.006.027-.002.007-.023zm.526-.099c.093.046.051-.047 0 0zm.38.041c-.047.173.284-.084.258-.047l-.092-.01c.054-.106-.001-.087-.166.057zm1.134-.363c-.088.032-.088.032 0 0zm-12.999.259c.098-.009.098-.009 0 0zm.453-.144c-.048-.043-.107.026-.158.017.043.033.096.027.158-.017zm3.692-1.34c.021-.025-.01-.035 0 0 .006-.007 0 0 0 0zm-5.067 1.65c.062.037.062.037 0 0zM21.991 30.59l.068-.035c-.026 0-.049.011-.068.035zm-.673.226l.041-.033c-.089.015-.103.026-.04.033zm.041-.033l.01-.003c-.004 0-.007 0-.01.003zm19.168-16.405c.006-.011.006-.011 0 0zm-6.34 3.973a17.038 17.038 0 0 0-2.36 1.667c.768-.548 1.854-1.044 2.463-1.739-.053-.01-.088.014-.102.072zm.103-.072c.014-.013.035-.05 0 0zm-9.247 10.525c.006-.007.006-.007 0 0zm50.103 1.976c.052-.017.052-.017 0 0zM41.817 12.352l-.003.015c.014-.032.015-.038.003-.015zm2.86-8.328c.063-.107.202-.356.223-.494a14.43 14.43 0 0 0-.224.494zm.145.369c.022-.032.022-.032 0 0zm-.171-.384l-.012-.049c-.05.044-.045.06.012.049zm3.227 7.228c-.025.067-.025.067 0 0zm-3.056-6.844c-.005-.001-.038.055 0 0zm9.164 23.087c-.06.06-.06.06 0 0zM40.893 15.317c-.023.122-.023.122 0 0zm-.56.008v.007c.002-.002.002-.004 0-.007zm1.945-3.964c0 .036 0 .036 0 0zm-1.115 2.973c-.002.214.002.002 0 0zm-.645.476c.054-.301.175-.625.33-.864.02-.042.35-.737.1-.31.059-.321.131-.702.196-1.035a10.065 10.065 0 0 1-.626 1.79c-.093.367-.387 1.45 0 .42zm1.76-3.41c0-.016 0-.016 0 0zm-.407.83l-.046.109c.039-.03.055-.066.046-.11zm-.585 1.74c.006-.008.006-.008 0 0zm-.419.034c-.017-.054-.017-.054 0 0zm32.935 17.513c-.078.021-.078.021 0 0zm.23-.123l.027.041c.054-.054.08-.093-.026-.041zm-10.62-5.16c.004-.268-.032-.208-.109.179a.558.558 0 0 0 .109-.179zm-63.11 1.28c-.01.108-.01.108 0 0zm-.156 2.068c-.033 1.44.1.025 0 0zM.7 29.04c.158.751-.025.017 0 0zm-.6-.184c.025-.184.025-.184 0 0zm.059-.743a.115.115 0 0 0-.031.086c.036.004.047-.025.031-.086zm-.047.145v.04c.043-.014.073-.032 0-.04zm.082-.208c.069-.297.06-.292-.027.016.014.005.024 0 .027-.016zm.084-.421l-.012.041c.02-.01.024-.023.012-.041zm.08.12c-.168-.032-.111.112 0 0zm-.311.84l-.011.065c.026-.014.03-.035.01-.065zm-.026.297c.041-.016-.003-.23 0 0 .076-.028 0 0 0 0zm.054-.428c-.012.1-.012.1 0 0zm-.028.646s.046-.099 0 0zm.028-.21c.013.163.008.005 0 0zm-.065.92c.01.11.047.234.071.338-.032-.502-.056-.615-.071-.339zM22.095 11.82c-.248-.152-.248-.152 0 0zm9.059 8.707l-.01.031c.4-.332.404-.343.01-.03zm.33-.25c.394-.31.394-.31 0 0zm37.567-.935c.095-.022.095-.022 0 0zm-57.234-5.113c-.772.563.168 0 0 0zm8.544-3.053c-.012-.003-1.76-.13 0 0-.209-.047 0 0 0 0zm47.767 8.787c-.322.008-.322.008 0 0zm-26.826-6.297c.037-.14.037-.14 0 0zm-.307.96c.111-.259.175-.533.248-.805.035-.064-.379.874-.248.804zm-29.845.121c.506-.36.51-.386.012-.08-.018.017-.415.253-.012.08zm31.314-5.063c-.072.187-.93 1.862-.823 2.023.056-.09.072-.056.046.105.225-.565.756-1.494.777-2.128zm-1.532 5.473c.048-.255.048-.255 0 0zm-.148-.823c-.103.22-.115.263-.035.132.582-1.549.305-3.202.035-.132zm1.699-4.095c.07-.485-.27.599-.297.766.283.005.381-.25.297-.766zm-1.008 2.717c-.45.643.907-.33 0 0zm-.238-.427c.247-.511.778-1.6.672-2.07 0-.001-.29.866-.284.869-.003-.255-.186.336-.184.332-.066.167-.18.535-.244.789.044-.009.058.017.04.08zm.757-2.119c.013-.05.038-.09.054-.138l-.04.041c.113-.551.103-.192-.014.097zm-.353 1.522c-.038.151-.038.151 0 0zm.526-1.683c.026-.09.026-.09 0 0zM8.79 16.285c.096-.055.01-.012 0 0 .015-.009 0 0 0 0zm.086-.151v-.01c-.027.028-.027.03 0 .01zm-.093.08l.028-.04c-.08.07-.089.083-.028.04zm-.796.636c-.086.077-.086.077 0 0zm1.09-.783l-.037.04c.025.005.036-.008.036-.04zm32.703-3.91c.067-.094.087-.209.13-.313-.122-.006-.166.099-.13.313zM7.998 16.914c.134-.118.134-.118 0 0zm.017-.095c.123-.089.123-.089 0 0zm.554-.35c.227-.077.049-.034 0 0 .037-.012 0 0 0 0zm.563-.554l-.027.03a.064.064 0 0 0 .027-.03zm-.867.837c.264-.452.028-.012 0 0zm.204-.202c.059-.062.059-.062 0 0zm1.097-.967l-.11.08c.063.02.1-.007.11-.08zm.462-.282c.063-.031-.003-.006 0 0zm-.149.017l-.02.034c.047-.027.054-.038.02-.034zm.5-.352c-.077.07-.077.07 0 0zm-.5.45c-.088.076-.088.076 0 0zm-.693.557l-.019.023c.014.003.02-.004.02-.023zm.96-.846l-.22.16c.093.003.166-.05.22-.16zm-.901.699c-.04.053-.04.053 0 0zm.073.026c-.087.093-.087.093 0 0zm.356-.258c-.046.023-.046.023 0 0zm.105-.179l-.074.063c.092-.044.116-.065.074-.063zm-.37.29c-.05.053-.05.053 0 0zm1.542-.831c-.188.101-.658.195 0 0zm-2.179 1.18l.026-.018c-.01-.018-.018-.012-.026.017zM63.266 26.71v.065c.027.003.027-.02 0-.065zm.21-.861c-.06.18-.06.18 0 0zm-3.55 3.76c-.184.08-.184.08 0 0zm-1.161-11.751c0-.006 0-.02.008-.024-.044.013-.047.02-.008.024zm-.296-.282l-.039-.042c.01.054.023.067.039.042zm-4.022.16l-.056.05c.03-.004.05-.02.056-.05zm4.337.146c.073.087.012-.005 0 0zm-.103-.25c.373.163.056-.119-.23-.304.044.05.038.07-.02.062v.018c.113-.002.196.072.25.223zm.323.322c.089.12.101.166.038.138.364.824.208.023-.197-.386.02.097.074.18.16.248zm4.678 7.372c.312-.4-.029.717 0 0zM42.067 11.769c.01-.113.01-.113 0 0zm29.078 6.798c-.013.007-.015-.004-.02-.007v.024c.012.001.018-.005.02-.017zm-16.973-.63l-.031.041c.017-.006.027-.02.031-.04zm17.561.647c-.07-.012-.37-.025-.376-.031.079.106.205.116.376.03zm3.922.218c-.062-.032-.062-.032 0 0zm.195.079c-.122-.052-.122-.052 0 0zM43.754 6.523c-.324 1.36-1.037.314 0 0zm.212-.615h-.02c-.026.132-.02.132.02 0zm.038-.063c.02-.02.042-.058.02-.07-.045.076-.052.1-.02.07zm-.472.896c.006-.013.031-.063 0 0zm.547-1.08l-.009.04c.014-.008.017-.021.009-.04zm-1.174 3.483c.02-.021.042-.055.02-.082-.038.013-.044.04-.02.082zm-.303.836c.575-1.943.12-.052 0 0zm-.581 1.445c.06.93.13-.505 0 0 .007.117 0 0 0 0zm12.085 6.673c-.31.293-.31.293 0 0zm-11.9-8.252c-.017-.422 1.966-4.706 1.91-4.733.195-.315-1.567 3.596-1.969 4.675.061-.029.08-.01.059.058zm.467-.966c.055-.145.286-.478 0 0zm-.117.563c.568-.41-.073-.788 0 0zm.637-1.645c-.763 1.322-.096 1.187 0 0zm.968-2.5c.04-.108.04-.108 0 0zm7.165 17.27v.029c.028-.025.028-.035 0-.029zm.123-.156c-.38-1.094.674.306 0 0zm1.512-2.805c-.062.1-.062.1 0 0zM49.77 2.51c-.016-.076-.016-.076 0 0zm-5.516 2.91c-.024-.216.207-.34.192-.549-.147.262-.672.756-.192.548zm5.525-2.678c0-.003-.033-.347 0 0zm-5.444 1.773c.238-.54.22-.506-.053.105.051.008.07-.027.053-.105zm.15.306c.314-.864-.003-.007 0 0zm5.228-2.65c.024.161.024.161 0 0zm-.755-.776c-.146-.138-.031.173 0 0zM6.808 18.003l.038-.04c-.065.06-.078.073-.039.04zm-4.133 4.433c-.063.09-.063.09 0 0zm.14-.216c-.515.681.883-1.23 0 0zm-.114.457c.708-.944-.06-.026 0 0zm.666-.836c.047-.03.057-.082.093-.121l-.093.12zm-.361.501c.066-.061-.007-.019 0 0zm.288-.766l-.03.04c.023-.008.033-.02.03-.04zM2.508 23.2c-.039.071-.039.071 0 0zm.037-.038c.078-.14.078-.14 0 0zm.11-.45c-.11.223-.11.223 0 0zm-.052-.185l-.103.167c.077-.04.112-.096.103-.167zm-.223.571c-.365.191.014-.09 0 0-.043.023 0 0 0 0zm1.29-2.016c-.769.977 1.232-1.45 0 0zm.305-.03c.027-.064.006.021 0 0zm-.626.457l-.028.04c.02-.006.03-.019.028-.04zm.684-.513c.055-.125-.01.022 0 0 .007-.016 0 0 0 0zm.258-.347l-.074.103c.048-.008.072-.043.074-.103zm.42-.46c-.027.029-.649.717 0 0zm-.31.338l-.031.041c.024-.007.034-.02.03-.04zm-.408.434c.375-2.26-2.058 2.608 0 0zM1.53 24.624c-.061.075-.061.075 0 0zm-.239.433c-.052.106-.052.106 0 0zm-.045.114l-.02.039c.013-.008.02-.02.02-.039zm.145-.306l-.02.047c.019-.008.025-.024.02-.047zm-.025.192c-.039.089-.039.089 0 0zm-.02-.112c-.078.213.005.005 0 0zm-.147.299c-.138.286-.138.286 0 0zm-.683 1.66c.157-.506.157-.506 0 0zM.47 27l-.026.096c.032-.019.04-.051.026-.096zm.526-1.686c.184-.4.184-.4 0 0zm-.131.637c-.044.161-.044.161 0 0zm-.173.468c.043.003.07 0 .073-.048-.003.018-.073-.612-.073.048zm0-.42l-.026.064c.02-.015.028-.036.026-.064zm1.484-2.516l-.018.04c.018-.007.025-.02.018-.04zm-.238.379c-.61 1.335.31-.707 0 0-.062.137 0 0 0 0zm-.183.074c.022-.263.151-.489.387-.678a1.32 1.32 0 0 1-.309.387c-.055.105-.707 1.38-.078.29zm.725-1.218l-.007.032c.01-.007.012-.018.007-.032zm-.06.099c-.103.051-.15.123-.14.215a.408.408 0 0 0 .14-.215zm-1.12 1.901c.158-.343.158-.343 0 0zm.935-1.61c-.114.168-.114.168 0 0zm-.77 1.61l-.007.03c.01-.006.012-.016.006-.03zm2.602-4.097l.02-.046c-.05.035-.055.05-.02.046zM2.05 23.823h-.012c-.004.032 0 .032.012 0zm-.445.668c.06-.138.06-.138 0 0zm.36-.536c.017.002.095-.09 0 0 .02.002 0 0 0 0zm-.04.069c.042-.075.042-.075 0 0zm3.842-5.49c.07-.084.07-.084 0 0zm.414-.24c.096-.061 0-.04 0 0zm.405-.097l-.028.04c.017-.007.026-.02.028-.04zm.11-.356c.044-.044.046-.092.105-.112-.525.476-.403.498-.104.112zm-.44.59c-.025.065-.008.02 0 0zm.165-.073c.123-.117.123-.117 0 0zm-.305-.196l-.045.068c.08-.05.094-.072.045-.068zm.205.3l-.112.114a.763.763 0 0 0 .112-.114zm-.554.283c.368-.386.368-.386 0 0zm.369-.387c-.078.098-.078.098 0 0zm-.165.37c-.113.13-.113.13 0 0zm.404-.594c-.16.138-.16.138 0 0zm-.047.23l-.035.041c.02.003.032-.011.035-.041zm1.088-1.014c.094-.077.445-.34 0 0zm.23-.202l.059-.047c-.03-.005-.05.01-.06.047zM.402 27.162c-.093.897-.02-.037 0 0zm7.348-10.03c-.124.122-.124.122 0 0zm.045-.041c.064-.03-.001-.003 0 0zm-.178.162l-.018.032c.018.005.025-.006.018-.032zm-.626.483l-.052.057a.081.081 0 0 0 .052-.057zm-.283.276c.203-.214.203-.214 0 0zm.488-.38l-.04.041c.034 0 .047-.014.04-.042zm.045-.126l-.045.053c.026-.007.042-.025.045-.053zm-.166.173l.01-.023c-.035.02-.038.027-.01.023zm.285-.281l-.09.08c.058-.006.089-.032.09-.08zm-.857.792l-.037.052a.063.063 0 0 0 .037-.052zm-1.568 1.2l-.038.049a.088.088 0 0 0 .038-.05zm-.276.533c.046-.045.046-.045 0 0zm.68-.968c-.085.106-.23.206-.304.324.122-.087.223-.195.304-.324zm-.589.629l-.064.08a.194.194 0 0 0 .064-.08zm.1.433c.049-.043-.005-.011 0 0zm-.395.147c.236-.29.236-.29 0 0zm-.204.186c-.211.647.444-.413 0 0zm.027-.218c.122-.161.122-.161 0 0zm.27-.323l-.048.064a.124.124 0 0 0 .047-.064zm.099-.105l-.044.048a.108.108 0 0 0 .044-.048zm.934-.99c-.026.041-.026.041 0 0zm-.611 1.169c-.083.084-.083.084 0 0zm1.1-1.169c-.028.002-.046.04-.039.048l.04-.048zm-.424.128l-.047.063c.03.003.045-.018.047-.063zm.009.306l-.04.05a.11.11 0 0 0 .04-.05zm2.24-2.137c.006-.006.053-.06 0 0zm-2.26 2.072c.175-.191.175-.191 0 0zm-.773.84c.183-.228.183-.228 0 0zm1.05-1.56c-.02.029-.066.038-.054.075.033.003.051-.023.054-.074zm-.85 1.325c.396-.43.396-.43 0 0zm-.027.265c.082-.005.095-.097 0 0 .046-.003 0 0 0 0zm.105-.554c-1.18.472.558-1.243 0 0zm-.085.386c.123-.137.123-.137 0 0zm.645-1.201l-.026.039a.05.05 0 0 0 .026-.04zm-.258.708c.124-.17.124-.17 0 0zm65.012 10.317c.121-.029.121-.029 0 0zm.146-.027c.148-.032.148-.032 0 0zm-.361.08c.1-.022.1-.022 0 0zM46.144 14.85c-.045.464-.075.184 0 0-.01.101 0 0 0 0zM72.049 29c.841-.436-.125-.018 0 0zm-5.526-.685c-.244.331.424-.636 0 0zm5.376.685c-.07.044-.16.047-.219.087A.956.956 0 0 0 71.9 29zm-4.305-1.66c.088-.117-.013-.036 0 0zm.581-5.95c.617-.24-.82-.028 0 0zm-.073-.178c.254-.211-.082-.023 0 0zm-10.787 9.313c.088-.015.088-.015 0 0zm10.306-9.466c.23-.044.23-.044 0 0zm-.673 6.894c-.102.052-.102.052 0 0zm2.275-3.485c.099.056-.066.176-.092.201-.365.756.851-1.367.092-.201zm-2.387 3.548c-.12.12-.12.12 0 0zm8.81-1.047c-.018.001-.044.017-.037.038.02.002.032-.01.037-.038zm-6.781-5.548c.038.034.1-.038 0 0zm7.078 5.179l.048-.041c-.021-.028-.037-.014-.048.04zm.048-.157c-.216.181.07-.023 0 0zm-18.695 4.001c-.045.018-.045.018 0 0zm11.78-9.305c-.342-.272.041.257 0 0zm3.592 7.612c-.082.008-.15.043-.222.064.002 0 .214.01.222-.064zm.353-.14c-.84.403-.041.028 0 0zm.096-.048c.087-.031.087-.031 0 0zm-.059.028l.04-.018c-.016-.003-.029.003-.04.018zm-19.221-9.209h-.01v.03c.017.003.02-.007.01-.03zm-1.38 2.271l-.02.033c.014-.005.02-.016.02-.033zm1.337-2.421c.247-.117-.055-.137 0 0zm.017.48c.013.002.07-.074 0 0 .017.003 0 0 0 0zm.228-.622c.063.05.01 0 0 0zm.276-.171c.213-.26.022-.13-.104.053-.055.075-.087.245.104-.053zm-.07-.181c-.026.086-.026.086 0 0zm-.796 1.078c-.022.034-.022.034 0 0zm-.046.045c.01.07.383-.397.322-.422-.007.026-.016.032-.029.019l-.062.08.001.001-.062.085c-.036.037-.183.233-.17.237zm-1.01 1.875c-.065.046.06-.073.033-.029l.007-.023a.251.251 0 0 1-.04.052zm.042-.458v-.025c-.025.043-.025.051 0 .025zm-.397 1.185c-.046.095-.046.095 0 0zm-.008.272c-.032-.06.144.32 0 0zm-.212.477c-.06.201-.06.201 0 0zm.231-.615l-.01.04c.017-.005.021-.018.01-.04zm.218-.577c.011-.015.049-.063 0 0zm.471-1.293c-.03.017.024-.072 0 0zm-.081.14c.018-.019-.022.031 0 0zm-.088.126c-.442.588.367-.55 0 0zm.715-.989a.231.231 0 0 0 .026-.036c-.004.008-.033.055-.026.036zm-.306.397c-.308.364.302-.36.133-.15.499-.732.059-.129-.133.15zm-.623 1.389c-.11.077.034.087 0 0zm-1.184 3.42c.028-.039.026-.095.036-.138-.07.065-.082.111-.036.138zm2.29 2.621c-.424.362-.158.193 0 0zm2.05-2.04c-.014.004-.018-.003-.022-.008-.187.235.017.035.021.008zm-.575.542c.018-.017.063-.06 0 0zm.376-.397c.035.036.036.036 0 0zm-2.149 2.153v-.017.017zm.178-.033c.036-.054.036-.054 0 0zm1.43-1.497c.102-.102.028-.114 0 0zm-1.257 1.272c.004-.034.016-.047.027-.081-.064.03-.073.057-.027.081zm.97-9.117c.01-.007.01-.018.01-.027-.016-.003-.019.005-.01.027zm.314-.5c-.172.068.311-.061.12-.105.046.068.007.102-.12.104zm-.066 8.367l-.046.047c.028.005.043-.01.046-.047zm-.166-7.948c.032-.006.036-.036.047-.057l-.047.057zm-.287.04l.019.023c.043-.016.037-.023-.019-.023zm.4-.16c-.053.062-.053.062 0 0zm.027 0c.098-.068.098-.068 0 0zm-.14 8.246c-.05.04-.05.04 0 0zM57 24.912l.046-.071c-.087.086-.103.11-.046.071zm-1.952-6.837h.014c.005-.054 0-.054-.014 0zm-2.918 4.493c.086-.217.086-.217 0 0zm.566-1.396zm-.006.05c-.013-.01-.003-.003 0 0-.004-.003 0 0 0 0zm-.015.038h-.004c.007-.02.004-.008.004 0zm-.052.045c-.004-.009.002-.004 0 0zm.23-.387c-.032.055-.279.31-.182.33 0 .009-.004.012-.01.012l.001-.002c-.052.035-.219.229-.203.378.017-.047.024-.057.022-.03.028-.08.041-.097.039-.054l.022-.043v.011c.024-.066.034-.072.03-.017.19-.16.232-.246.126-.262.003-.026.017-.039.042-.039l.035-.08c-.037.06-.047.066-.028.019.178-.235.776-1.01 1.089-1.379l-.054-.027-.02.024-.009-.005c-.238.26-.309.347-.212.259-.042.047-.046.054-.01.02a6.377 6.377 0 0 0-.677.885zm-10.88 6.033c0-.126 0-.126 0 0zm-.011-.314c.028-.181.028-.181 0 0zm.011.145h-.01v.033c.018.004.022-.007.01-.033zm.067-1.295c-.098.39.007.01 0 0zm.118-1.268c-.037.385-.037.385 0 0zm3.706-8.766c-.056.121-.056.121 0 0zm.326-.425c-.026.118-.026.118 0 0zM42.01 28.135c.016-.17-.06-.372-.035-.513.011.411.3 1.625.035.513zm.066-3.143c-.026.16-.026.16 0 0zm9.18.347c-.02.02-.044.06-.02.081l.02-.081zm-5.657-8.552c-.442.49.066-.588 0 0zm5.747 8.125c-.017.134-.017.134 0 0zm.397-1.509c-.063.176-.063.176 0 0zm-.323.864c-.108.43-.108.43 0 0zm.157-.105l-.145.452c.13-.102.179-.253.145-.452zm-.081-.12c.086-.105.094-.238.14-.357l-.14.356zm-9.578 3.305h-.008v.035c.017.002.02-.01.008-.035zm9.743-3.725l-.019.033c.016.002.022-.009.019-.033zm-.24 1.007l-.035.13c.04-.027.052-.071.034-.13zm-9.595.607c.026.12.026.12 0 0z"/></g></svg>