<svg width="115" height="37" viewBox="0 0 115 37" xmlns="http://www.w3.org/2000/svg"><title>Air_Liquide_logo</title><g fill="#FFF" fill-rule="nonzero"><path d="M0 14.51h21.563V37H0V14.51zm14.375 15.235V17.412H9.2l-7.547 15.96H5.75l5.031-10.011v10.012h8.625v-3.628h-5.031zM22.281 29.02h89.125v1H22.281z"/><path d="M114.281 27.569H115V0H15.094v13.784h.719V.725h98.468z"/><path d="M23.719 19.588l3.953-9.286h2.731l3.81 9.286H31.84l-.791-1.959h-4.313l-.79 1.96h-2.228zm6.756-3.555l-1.51-3.99-1.58 3.99h3.09zM34.931 10.229h2.3v9.286h-2.3zM40.969 19.588h-2.3V10.23h4.6c1.869 0 3.737.508 3.737 2.395 0 1.233-.934 2.03-2.228 2.249 1.797.145 1.797 1.088 2.013 2.394.072.58.215 1.668.647 2.176H44.85c-.216-.798-.288-1.668-.431-2.54-.072-.507-.216-1.232-1.006-1.232h-2.444v3.917zm0-5.296h1.94c1.007 0 1.654-.435 1.654-1.306 0-.798-.576-1.16-1.654-1.16h-1.94v2.466zM54.05 19.588V10.23h2.3v7.836h4.744v1.523zM61.884 10.229h2.3v9.286h-2.3zM76.26 19.588h-4.6c-.216.073-.36.073-.576.145-.215.073-.359.073-.575.073-3.593 0-5.246-2.104-5.246-4.86 0-2.758 1.653-4.862 5.246-4.862 3.594 0 5.247 2.104 5.247 4.861 0 1.016-.79 2.684-1.653 3.265.216-.073.79-.073 1.366-.073h.79v1.451zm-2.948-4.643c0-1.596-.43-3.41-2.73-3.41s-2.732 1.814-2.732 3.41.431 3.41 2.731 3.41 2.731-1.814 2.731-3.41zM86.537 10.23v5.803c0 2.467-2.084 3.7-4.671 3.7-2.66 0-4.672-1.233-4.672-3.7V10.23h2.3v5.079c0 1.596.072 2.974 2.372 2.974s2.371-1.45 2.371-2.974v-5.079h2.3zM88.191 10.229h2.3v9.286h-2.3zM92 10.23h3.666c3.378 0 5.462 1.45 5.462 4.643 0 3.264-2.084 4.715-5.462 4.643H92v-9.287zm2.372 7.835h1.222c2.731 0 3.162-1.596 3.162-3.12 0-1.45-.431-3.12-3.162-3.12h-1.222v6.24zM102.35 10.23h7.26v1.595h-4.888v2.177h4.6v1.523h-4.6v2.54h5.103v1.523h-7.475zM112.125 28.222h1.222v.217h-.503v1.306h-.216V28.44h-.503zM114.856 29.745v-.87-.363l-.431 1.306h-.216l-.43-1.306v1.233h-.216v-1.523h.287l.431 1.305.431-1.305H115v1.523h-.144z"/></g></svg>