<svg id="Layer_1" xmlns="http://www.w3.org/2000/svg" viewBox="0 0 62.1 29.5" enable-background="new 0 0 62.1 29.5"><style>.st0{fill:#fff}.st1{opacity:.5}.st2{filter:url(#filter-3)}.st3{fill:#169984}.st4{fill:url(#path-2_3_);fill-opacity:.1}.st5{filter:url(#filter-5)}.st6{fill:url(#path-4_3_);fill-opacity:.1}.st7{filter:url(#filter-8)}.st8{fill:url(#path-6_4_);fill-opacity:.1}</style><filter filterUnits="objectBoundingBox" height="187%" id="filter-8" width="185.2%" x="-42.6%" y="-29.6%"><feOffset dy="4" in="SourceAlpha" result="shadowOffsetOuter1"/><feGaussianBlur in="shadowOffsetOuter1" result="shadowBlurOuter1" stdDeviation="3.5"/><feColorMatrix in="shadowBlurOuter1" values="0 0 0 0 0 0 0 0 0 0 0 0 0 0 0 0 0 0 0.11 0"/></filter><filter filterUnits="objectBoundingBox" height="229%" id="filter-5" width="226.3%" x="-63.1%" y="-43.9%"><feOffset dy="4" in="SourceAlpha" result="shadowOffsetOuter1"/><feGaussianBlur in="shadowOffsetOuter1" result="shadowBlurOuter1" stdDeviation="3.5"/><feColorMatrix in="shadowBlurOuter1" values="0 0 0 0 0 0 0 0 0 0 0 0 0 0 0 0 0 0 0.11 0"/></filter><filter filterUnits="objectBoundingBox" height="229%" id="filter-3" width="226.3%" x="-63.1%" y="-43.9%"><feOffset dy="4" in="SourceAlpha" result="shadowOffsetOuter1"/><feGaussianBlur in="shadowOffsetOuter1" result="shadowBlurOuter1" stdDeviation="3.5"/><feColorMatrix in="shadowBlurOuter1" values="0 0 0 0 0 0 0 0 0 0 0 0 0 0 0 0 0 0 0.11 0"/></filter><path id="path-6" class="st0" d="M24.3 0h13.9c4.3 0 7.7 3.5 7.7 7.7V21c0 4.3-3.5 7.7-7.7 7.7H24.3c-4.3 0-7.7-3.5-7.7-7.7V7.7C16.6 3.5 20 0 24.3 0z"/><g id="Website-iteration-5---Desktop---Pricing" transform="translate(-111 -635)"><g id="Content" transform="translate(0 149)"><g id="Comparison-table" transform="translate(0 276)"><g id="Features-column" transform="translate(28 91)"><g id="Apps-icon" transform="translate(86 122)"><g id="Rectangle-8-Copy" class="st1"><g class="st2" transform="scale(-1 1) rotate(-27 0 240.493)"><path id="path-2_3_" d="M55.5 8.5h8c3.3 0 5.9 2.6 5.9 5.9V22c0 3.3-2.6 5.9-5.9 5.9h-8c-3.3 0-5.9-2.6-5.9-5.9v-7.6c0-3.3 2.6-5.9 5.9-5.9z"/></g><g transform="scale(-1 1) rotate(-27 0 240.493)"><path id="path-2_1_" class="st3" d="M55.5 8.5h8c3.3 0 5.9 2.6 5.9 5.9V22c0 3.3-2.6 5.9-5.9 5.9h-8c-3.3 0-5.9-2.6-5.9-5.9v-7.6c0-3.3 2.6-5.9 5.9-5.9z"/></g><g transform="scale(-1 1) rotate(-27 0 240.493)"><linearGradient id="path-2_3_" gradientUnits="userSpaceOnUse" x1="84.061" y1="53.154" x2="83.794" y2="52.154" gradientTransform="matrix(-17.6367 8.7986 -8.9864 -17.2682 2022.495 186.107)"><stop offset="0" stop-color="#fff"/><stop offset="1"/></linearGradient><path id="path-2_2_" class="st4" d="M55.5 8.5h8c3.3 0 5.9 2.6 5.9 5.9V22c0 3.3-2.6 5.9-5.9 5.9h-8c-3.3 0-5.9-2.6-5.9-5.9v-7.6c0-3.3 2.6-5.9 5.9-5.9z"/></g></g><g id="Rectangle-8-Copy_1_" class="st1"><g class="st5" transform="rotate(-27 13.482 18.734)"><path id="path-4_3_" d="M6.3 3.7h8c3.3 0 5.9 2.6 5.9 5.9v7.6c0 3.3-2.6 5.9-5.9 5.9h-8C3 23.1.4 20.5.4 17.2V9.6C.4 6.3 3 3.7 6.3 3.7z"/></g><g transform="rotate(-27 13.482 18.734)"><path id="path-4_1_" class="st3" d="M6.3 3.7h8c3.3 0 5.9 2.6 5.9 5.9v7.6c0 3.3-2.6 5.9-5.9 5.9h-8C3 23.1.4 20.5.4 17.2V9.6C.4 6.3 3 3.7 6.3 3.7z"/></g><g transform="rotate(-27 13.482 18.734)"><linearGradient id="path-4_3_" gradientUnits="userSpaceOnUse" x1="1.219" y1="32.096" x2=".952" y2="31.096" gradientTransform="matrix(17.6367 8.7986 8.9863 -17.2682 -296.837 546.548)"><stop offset="0" stop-color="#fff"/><stop offset="1"/></linearGradient><path id="path-4_2_" class="st6" d="M6.3 3.7h8c3.3 0 5.9 2.6 5.9 5.9v7.6c0 3.3-2.6 5.9-5.9 5.9h-8C3 23.1.4 20.5.4 17.2V9.6C.4 6.3 3 3.7 6.3 3.7z"/></g></g><g id="Rectangle-8"><g class="st7"><path id="path-6_4_" d="M21.3-3h13.9c4.3 0 7.7 3.5 7.7 7.7V18c0 4.3-3.5 7.7-7.7 7.7H21.3c-4.3 0-7.7-3.5-7.7-7.7V4.7C13.6.5 17-3 21.3-3z"/></g><path id="path-6_2_" class="st3" d="M21.3-3h13.9c4.3 0 7.7 3.5 7.7 7.7V18c0 4.3-3.5 7.7-7.7 7.7H21.3c-4.3 0-7.7-3.5-7.7-7.7V4.7C13.6.5 17-3 21.3-3z"/><linearGradient id="path-6_4_" gradientUnits="userSpaceOnUse" x1="8.762" y1="35.787" x2="8.495" y2="34.787" gradientTransform="matrix(29.3423 0 0 -28.7292 -224.67 1024.144)"><stop offset="0" stop-color="#fff"/><stop offset="1"/></linearGradient><path id="path-6_3_" class="st8" d="M21.3-3h13.9c4.3 0 7.7 3.5 7.7 7.7V18c0 4.3-3.5 7.7-7.7 7.7H21.3c-4.3 0-7.7-3.5-7.7-7.7V4.7C13.6.5 17-3 21.3-3z"/></g></g></g></g></g></g></svg>