<svg width="124" height="29" viewBox="0 0 124 29" xmlns="http://www.w3.org/2000/svg"><title>BNP_Paribas</title><g fill="#FFF" fill-rule="nonzero"><path d="M.576 28.024V.164h27.302v27.86H.576zM21.864 7.616c.644.98.794 3.236.814 5.022.552-1.13 1.22-5.4.94-6.177 1.01-.695 1.022-.965 1.284-1.432-1.03.095-1.604.103-2.157.283-1.406-.892-4.306-1.813-6.678-2.004.745.325 3.742 2.009 4.112 2.54-1.596.223-4.621 1.163-6.146 2.009 1.752-.403 4.207-.614 5.896-.707-.66 1.005-1.031 1.517-2.098 2.718 1.832-1.138 2.348-1.224 4.033-2.252zM9.527 22.934c-.969-.372-1.666-.806-2.434-1.55.23-.66.493-1.173.92-1.833-.787.122-1.367.214-2.045.347-.552-1.002-.803-1.97-1.084-3.316-.15 1.427-.207 2.446-.013 3.582a9.982 9.982 0 0 0-1.576.576c.718.455 1.298.806 2.099 1.194a7.42 7.42 0 0 0 1.599 2.345 4.516 4.516 0 0 1-.146-1.79c.896.27 1.663.413 2.68.445zm2.52-14.201c-.445.068-1.738.656-2.59 1.354 0 0-.578-.057-1.533-.028-.954.045-2.197.285-2.68.49.932.043 2.207.298 2.693.81 0 0-1.413 1.316-2.805 4.21 0 0 2.532-2.473 3.633-3.083 0 0 .574 1.989.971 2.982 0 0 .353-2.298.942-3.637 0 0 .166-.098.975-.178.814-.076 1.964-.126 4.146.276 0 0-2.002-1.33-4.498-1.68.095-.353.445-1.11.746-1.516zm2.647 12.407c-.44.62-.819 1.107-1.307 1.674-.84.245-1.51.335-2.329.335.503.27.99.43 1.514.545a10.61 10.61 0 0 1-1.477 1.179c.853-.21 1.975-.586 2.81-1.098.437.017.845-.012 1.144-.073a6.882 6.882 0 0 1-.19-.8c.787-.632 1.358-1.204 2.012-1.892-.696.504-1.297.88-2.103 1.276a22.92 22.92 0 0 1-.074-1.146zM37.923 10.842c1.684.015 2.296.367 2.296 1.312a1 1 0 0 1-.23.668c-.304.399-.952.606-1.741.554h-.04l-.463 1.262h.463c.926-.027 1.721.274 2.133.797.2.238.296.524.296.816 0 .987-.841 1.497-2.503 1.497-.266 0-.716 0-.997-.01-.069-1.317-.069-3.1-.069-3.638 0-.621.021-2.007.069-3.191.182-.04.497-.067.786-.067zm-3.093-.907c.068.936.11 3.303.11 4.165 0 .796 0 3.458-.12 4.606l-.02.09h4.015c1.962 0 4.053-.636 4.053-2.452 0-1.136-.795-1.976-2.291-2.436 1.102-.306 1.844-1.086 1.844-1.978 0-1.483-1.644-2.04-3.172-2.079h-4.43l.01.084zM52.015 9.85h-1.95l.079 2.257c.038 1.114.074 2.26.15 3.374-.126-.349-.243-.528-.837-1.424-.001-.03-2.029-3.267-2.733-4.186l-.02-.02h-2.263v.084c.072.936.101 3.303.101 4.166 0 .795 0 3.457-.108 4.605l-.02.09h2.018v-.09c-.115-2.183-.115-4.387-.115-6.524.07.26.159.482.477.97.026.058 3.5 5.306 3.669 5.606l.017.038h1.616l-.002-.09c-.124-1.148-.134-3.81-.134-4.605 0-.863.055-3.23.108-4.166l.026-.084h-.079zM57.305 10.93c1.124-.021 1.909.215 2.282.704.17.211.265.489.265.807 0 1.295-1.403 1.576-2.576 1.576l-.477-.028-.196-.02c-.008-.3-.008-.694-.008-1.137 0-.563 0-1.23.025-1.85.166-.022.416-.052.685-.052zm-2.958-.995c.08.936.11 3.302.11 4.166 0 .795 0 3.457-.119 4.605v.09h2.4l-.01-.09c-.083-.826-.125-2.401-.133-3.605l.453.024.34.007c3.156 0 4.69-.867 4.69-2.69 0-2.076-2.153-2.552-3.948-2.591h-3.783v.084zM69.612 10.93c1.127-.021 1.91.215 2.288.704.174.211.26.489.26.807 0 1.295-1.401 1.576-2.56 1.576l-.474-.028s-.126-.011-.2-.02c-.013-.3-.013-.696-.013-1.137 0-.568 0-1.23.023-1.85.15-.022.41-.052.676-.052zm-2.953-.995c.076.936.12 3.302.12 4.166 0 .795-.008 3.457-.133 4.605v.09h2.401l-.014-.09c-.076-.826-.12-2.401-.12-3.605l.432.024.348.007c3.155 0 4.704-.867 4.704-2.69 0-2.076-2.166-2.552-3.968-2.591h-3.77v.084zM78.19 12.485c.19.427.686 1.616 1.243 3.035a5.014 5.014 0 0 1-.194.004l-1.05.015s-1.086-.015-1.267-.019c.453-1.135.902-2.16 1.268-3.035zm-.584-2.634h-.032l-.016.044c-.447 1.274-3.325 7.792-3.781 8.79l-.038.112h2.044l.017-.05c.18-.613.422-1.305.685-2.043.082 0 1.705-.025 1.705-.025l1.411.01s.228.015.296.015c.363.961.642 1.686.764 2.055l.023.038h2.368L79.226 9.85H77.606zM84.015 9.935c.068.936.103 3.303.103 4.166 0 .795 0 3.457-.13 4.605v.09H86.4l-.01-.09c-.128-1.156-.137-3.81-.137-4.605 0-.622.019-2.008.078-3.128.184-.014.463-.043.651-.043 1.118-.021 1.907.218 2.276.704.177.211.257.495.257.807 0 1.033-.93 1.557-1.796 1.604-.29.012-.505-.026-.505-.026l-.169-.03.093.164c.857 1.297 2.138 3.543 2.668 4.605l.015.038H92.4l-.064-.12c-.106-.15-1.785-2.716-2.5-3.812l-.061-.066c1.322-.413 1.96-1.18 1.96-2.357 0-2.06-2.152-2.55-3.97-2.59h-3.758l.007.084zM95.814 9.85h-2.3l.013.085c.06.936.106 3.303.106 4.166 0 .791-.01 3.449-.118 4.605l-.01.09h2.384l-.012-.09c-.092-1.156-.12-3.814-.12-4.605 0-.863.057-3.23.12-4.166V9.85h-.063zM101.155 10.842c1.684.015 2.296.367 2.296 1.312a1 1 0 0 1-.23.668c-.304.399-.952.606-1.741.554h-.04l-.463 1.262h.463c.926-.027 1.721.274 2.133.797.2.238.296.524.296.816 0 .987-.841 1.497-2.503 1.497-.266 0-.716 0-.997-.01-.069-1.317-.069-3.1-.069-3.638 0-.621.021-2.007.069-3.191.182-.04.497-.067.786-.067zm-3.093-.907c.068.936.11 3.303.11 4.165 0 .796 0 3.458-.12 4.606l-.02.09h4.015c1.962 0 4.053-.636 4.053-2.452 0-1.136-.795-1.976-2.291-2.436 1.102-.306 1.844-1.086 1.844-1.978 0-1.483-1.644-2.04-3.172-2.079h-4.43l.01.084zM111.01 12.48c.193.417.685 1.608 1.243 3.03-.085 0-.189.01-.189.01l-1.054.014s-1.1-.024-1.262-.024c.447-1.142.884-2.16 1.262-3.03zm.992-2.63h-1.614l-.01.04c-.482 1.355-3.522 8.217-3.778 8.786l-.044.12h2.054l.012-.053c.172-.613.41-1.301.678-2.054.065 0 1.697-.027 1.697-.027l1.415.024.3.003c.371.961.647 1.692.767 2.054l.021.053h2.377l-3.823-8.945h-.052zM116.55 12.164c0 1.572 1.517 2.204 2.86 2.782 1.046.433 2.14.888 2.14 1.637 0 .227-.043.417-.165.551-.252.308-.76.437-1.57.39-.8-.033-1.702-.295-2.718-.78l-.398-.199V18.494l.271.072.158.028c.502.13 1.47.366 2.432.366 2.532 0 4.042-1.048 4.042-2.78 0-1.627-1.559-2.26-2.937-2.83-1.015-.427-2.066-.85-2.066-1.548 0-.201 0-.788 1.311-.788.966 0 1.906.408 2.44.62l.486.212-.003-.336V9.89l-.484-.091c-.492-.103-1.312-.273-2.157-.273-2.184 0-3.642 1.07-3.642 2.638"/></g></svg>