<svg width="155" height="35" viewBox="0 0 155 35" xmlns="http://www.w3.org/2000/svg"><title>BNP_Paribas</title><g fill-rule="nonzero" fill="none" opacity=".6"><path d="M.723 34.796h34.235V.436H.723z" fill="#A8A5B5"/><path d="M3.397 1.05c-.664 0-1.098.572-1.2 1.374 0 0-.856 4.587-.856 14.327 0 9.745.855 16.12.855 16.12.079.77.537 1.373 1.201 1.373H33.03c.661 0 1.188-.536 1.2-1.373 0 0-.33-7.468-.33-14.761 0-7.294.33-15.686.33-15.686.015-.746-.539-1.373-1.2-1.373H3.397z" fill="#A8A5B5"/><path d="M20.039 4.556c.935.4 4.691 2.473 5.152 3.136-1.89.254-5.598 1.24-7.595 2.231l-.116.24c2.201-.494 5.28-.753 7.401-.87-.792 1.186-1.317 1.751-2.522 3.094l-.112.26c2.297-1.408 2.944-1.51 5.06-2.775.8 1.207.993 3.989 1.023 6.194.69-1.399 1.526-6.668 1.178-7.62 1.404-.984 1.594-1.776 1.594-1.776-1.287.114-1.997.136-2.691.36C26.766 6 22.994 4.64 20.148 4.312l-.11.243zM6.015 20.93c-.186 1.754-.261 3.01-.015 4.414-.696.197-1.307.225-1.868.469l-.107.24c.893.563 1.62.993 2.63 1.474.54 1.184 1.098 1.983 2.003 2.895l.11-.244c-.163-.673-.374-1.23-.294-1.965 1.122.334 2.085.51 3.364.55l.108-.244c-1.124-.446-2.248-.797-3.158-1.673.286-.811.614-1.448 1.148-2.254l.113-.246c-.966.149-1.842.51-2.678.675-.658-1.181-.914-2.798-1.246-4.337l-.11.245zM11.747 12.918s-.723-.07-1.92-.033c-1.01.047-2.519.14-3.252.36l-.107.24c1.166.05 2.763.37 3.374.996 0 0-1.77 1.63-3.524 5.196 0 0 3.18-3.045 4.558-3.8 0 0 .722 2.452 1.223 3.68l.11-.246c.138-.788.484-2.928 1.07-4.237 0 0 .207-.13 1.224-.23 1.02-.093 2.46-.148 5.197.342l.111-.24c-.625-.376-3.115-1.465-5.75-1.828h.086c.361-1.086.814-1.905.814-1.905-.56.08-2.15.84-3.214 1.705M18.408 27.963c-.04-.476-.07-.88-.093-1.417a26.916 26.916 0 0 1-1.636 2.068c-.644.183-1.382.176-2.054.168a17.826 17.826 0 0 0-.759.002l-.108.244a7.1 7.1 0 0 0 1.895.668c-.531.494-1.242.87-1.74 1.214l-.11.24c1.069-.258 2.477-.722 3.526-1.354a6.16 6.16 0 0 0 1.43-.088s.112-.249.112-.243c-.069-.246-.284-.397-.346-.742.983-.779 1.695-1.489 2.517-2.333l.114-.244c-.812.571-1.798 1.358-2.748 1.817" fill="#9693A5"/><g fill="#FFF"><path d="M27.417 9.626c-2.113 1.268-2.76 1.375-5.058 2.778 1.338-1.481 1.804-2.113 2.631-3.352-2.118.115-5.196.374-7.394.871 1.913-1.042 5.706-2.202 7.708-2.478-.464-.654-4.222-2.731-5.156-3.131 2.974.235 6.61 1.37 8.373 2.47.693-.22 1.415-.231 2.705-.349-.328.576-.343.91-1.61 1.767.352.957-.486 6.223-1.179 7.618-.025-2.203-.213-4.985-1.02-6.194M11.946 28.519c-1.214-.46-2.088-.994-3.051-1.913.288-.812.617-1.446 1.154-2.26-.987.15-1.715.264-2.565.428-.693-1.236-1.007-2.43-1.36-4.09-.188 1.76-.26 3.017-.016 4.418-.78.221-1.333.415-1.976.71.9.562 1.627.995 2.632 1.473.54 1.183 1.098 1.982 2.004 2.893a5.481 5.481 0 0 1-.181-2.208c1.123.334 2.084.509 3.36.549M15.107 11.003c-.378.502-.817 1.436-.936 1.87 3.13.433 5.64 2.073 5.64 2.073-2.736-.495-4.177-.434-5.198-.34-1.015.098-1.223.22-1.223.22-.738 1.65-1.181 4.485-1.181 4.485-.498-1.225-1.218-3.679-1.218-3.679-1.38.754-4.555 3.803-4.555 3.803 1.745-3.57 3.517-5.193 3.517-5.193-.61-.63-2.208-.945-3.378-.998.607-.253 2.165-.549 3.361-.604 1.198-.036 1.923.034 1.923.034 1.068-.861 2.69-1.586 3.248-1.67M18.426 26.306a26.305 26.305 0 0 1-1.64 2.065 9.884 9.884 0 0 1-2.92.413c.63.332 1.241.531 1.899.672a13.27 13.27 0 0 1-1.852 1.454c1.07-.259 2.476-.722 3.524-1.354a6.366 6.366 0 0 0 1.434-.09 8.37 8.37 0 0 1-.238-.987c.986-.78 1.702-1.485 2.523-2.333a16.92 16.92 0 0 1-2.638 1.573 27.809 27.809 0 0 1-.092-1.413"/></g><g fill="#A8A5B5"><path d="M47.446 13.606c2.096.018 2.863.452 2.863 1.617 0 .321-.097.606-.282.824-.402.492-1.183.748-2.18.684h-.052l-.585 1.556h.585c1.157-.034 2.163.338 2.68.983.238.293.358.646.358 1.006 0 1.218-1.05 1.847-3.123 1.847-.348 0-.916 0-1.269-.012-.06-1.625-.086-3.824-.086-4.487 0-.767.05-2.476.086-3.936a5.56 5.56 0 0 1 1.005-.082zm-3.881-1.12c.064 1.155.13 4.074.13 5.138 0 .98 0 4.264-.169 5.68l-.01.111h5.026c2.47 0 5.083-.784 5.083-3.024 0-1.4-.994-2.437-2.854-3.004 1.38-.378 2.299-1.34 2.299-2.44 0-1.829-2.057-2.516-3.991-2.564h-5.543l.029.103zM65.225 12.383H62.78l.099 2.782c.047 1.375.093 2.789.188 4.162-.158-.43-.305-.652-1.049-1.756-.002-.039-2.545-4.03-3.427-5.163l-.025-.025h-2.838v.103c.09 1.155.126 4.074.126 5.138 0 .981 0 4.264-.135 5.68l-.025.112h2.53v-.112c-.144-2.693-.144-5.41-.144-8.046.087.32.2.594.598 1.196.033.072 4.39 6.544 4.6 6.915l.023.047h2.026l-.003-.112c-.155-1.416-.168-4.699-.168-5.68 0-1.064.07-3.983.135-5.138l.033-.103h-.099zM71.859 13.714c1.41-.026 2.393.265 2.861.869.214.26.333.602.333.995 0 1.596-1.76 1.943-3.231 1.943l-.597-.035-.246-.025c-.01-.369-.01-.855-.01-1.401 0-.694 0-1.519.03-2.282a6.51 6.51 0 0 1 .86-.064zm-3.709-1.228c.099 1.155.137 4.074.137 5.138 0 .98 0 4.264-.148 5.68v.112h3.008l-.013-.112c-.103-1.019-.155-2.961-.165-4.446l.568.03.425.008c3.958 0 5.883-1.069 5.883-3.318 0-2.56-2.7-3.148-4.952-3.195H68.15v.103zM87.292 13.714c1.412-.026 2.395.265 2.869.869.217.26.326.602.326.995 0 1.596-1.758 1.943-3.21 1.943l-.596-.035s-.158-.014-.25-.025c-.016-.369-.016-.858-.016-1.401 0-.701 0-1.519.028-2.282.188-.028.514-.064.849-.064zm-3.704-1.228c.095 1.155.15 4.074.15 5.138 0 .98-.01 4.264-.166 5.68v.112h3.011l-.018-.112c-.095-1.019-.15-2.961-.15-4.446l.542.03.436.008c3.956 0 5.898-1.069 5.898-3.318 0-2.56-2.716-3.148-4.975-3.195h-4.728v.103zM98.047 15.632c.24.526.86 1.992 1.56 3.743-.108.005-.244.005-.244.005l-1.316.018s-1.362-.018-1.59-.023c.569-1.4 1.131-2.664 1.59-3.743zm-.732-3.25h-.04l-.02.056c-.56 1.57-4.17 9.609-4.741 10.84l-.048.138h2.563l.022-.061c.225-.757.529-1.61.859-2.52.102 0 2.137-.031 2.137-.031l1.77.013s.286.018.37.018c.457 1.186.807 2.08.959 2.534l.029.047h2.97l-4.798-11.033h-2.032zM105.352 12.486c.086 1.155.13 4.074.13 5.138 0 .981 0 4.264-.165 5.68v.112h3.027l-.013-.112c-.16-1.426-.171-4.699-.171-5.68 0-.766.023-2.476.098-3.858.23-.016.58-.052.816-.052 1.401-.027 2.39.268 2.854.868.222.26.322.61.322.995 0 1.275-1.165 1.92-2.251 1.978-.364.016-.635-.032-.635-.032l-.21-.037.115.202c1.075 1.6 2.682 4.37 3.346 5.68l.019.048h3.234l-.08-.15c-.133-.185-2.239-3.35-3.134-4.7l-.078-.082c1.658-.509 2.46-1.455 2.46-2.907 0-2.54-2.701-3.145-4.981-3.194h-4.712l.009.103zM120.147 12.383h-2.883l.016.103c.075 1.155.133 4.074.133 5.138 0 .976-.013 4.254-.149 5.68l-.01.112h2.987l-.015-.112c-.115-1.426-.15-4.704-.15-5.68 0-1.064.071-3.983.15-5.138v-.103h-.079zM126.846 13.606c2.11.018 2.879.452 2.879 1.617 0 .321-.098.606-.29.824-.38.492-1.193.748-2.183.684h-.049l-.581 1.556h.581c1.161-.034 2.158.338 2.674.983.252.293.372.646.372 1.006 0 1.218-1.056 1.847-3.14 1.847-.333 0-.897 0-1.25-.012-.086-1.625-.086-3.824-.086-4.487 0-.767.027-2.476.086-3.936.228-.05.624-.082.987-.082zm-3.88-1.12c.086 1.155.138 4.074.138 5.138 0 .98 0 4.264-.15 5.68l-.025.111h5.034c2.461 0 5.083-.784 5.083-3.024 0-1.4-.997-2.437-2.873-3.004 1.382-.378 2.312-1.34 2.312-2.44 0-1.829-2.06-2.516-3.977-2.564h-5.555l.013.103zM139.203 15.626c.242.513.86 1.983 1.559 3.737-.107 0-.237.011-.237.011l-1.322.018s-1.378-.03-1.583-.03c.56-1.408 1.109-2.664 1.583-3.736zm1.244-3.244h-2.024l-.012.05c-.605 1.67-4.418 10.133-4.738 10.835l-.055.149h2.575l.016-.066c.215-.756.514-1.605.85-2.534.082 0 2.128-.032 2.128-.032l1.774.028.376.004c.466 1.186.811 2.088.962 2.534l.027.066h2.98l-4.794-11.034h-.065zM146.15 15.236c0 1.938 1.902 2.718 3.586 3.431 1.312.533 2.684 1.095 2.684 2.019 0 .28-.054.514-.207.68-.316.38-.954.539-1.968.481-1.004-.041-2.136-.364-3.41-.963l-.498-.245v2.404l.34.088.198.035c.629.16 1.844.451 3.05.451 3.174 0 5.069-1.293 5.069-3.429 0-2.007-1.956-2.786-3.684-3.49-1.273-.526-2.591-1.048-2.591-1.909 0-.248 0-.972 1.645-.972 1.211 0 2.389.504 3.058.765l.61.26-.004-.413V12.43l-.606-.111c-.617-.128-1.646-.337-2.705-.337-2.739 0-4.567 1.32-4.567 3.254"/></g></g></svg>