<svg width="112" height="21" viewBox="0 0 112 21" xmlns="http://www.w3.org/2000/svg"><title>CanalPlus</title><path d="M2.357 3.8C4.277 1.446 7.232.087 10.205.046 12.68 0 15.305.479 17.34 2.01c-.335 1.583-.512 3.203-.957 4.76-1.635-1.154-3.598-1.891-5.602-1.74-1.866.138-3.748 1.17-4.6 2.94-.776 1.657-.92 3.712-.091 5.382.735 1.513 2.28 2.478 3.89 2.666 1.75.306 3.453-.358 5.054-.996-.263 1.69-.465 3.41-.896 5.06-1.56.822-3.382.955-5.104.893-3.1-.162-6.221-1.805-7.746-4.665C-.78 12.414-.29 7.283 2.357 3.8zM99.351.448c1.86-.022 3.722-.006 5.583-.008.007 2.18 0 4.356.003 6.536 2.333.007 4.665-.018 7 .013.051 1.635.003 3.271.028 4.906-.029.281.05.606-.102.86-2.257.107-4.524-.03-6.781.059-.239.2-.104.574-.15.85.005 2.244.011 4.49-.002 6.734-1.755.006-3.51.024-5.262-.002-.371.071-.313-.333-.329-.579-.005-2.337.012-4.677-.007-7.017-2.36-.032-4.719.008-7.078-.02-.07-1.913-.031-3.831-.021-5.747 2.367-.026 4.734 0 7.1-.014.02-2.191-.009-4.38.018-6.571zM25.038.832c1.919.004 3.838.004 5.758-.002.208.046.614-.097.658.226 1.332 6.429 2.671 12.856 3.978 19.29-1.653.081-3.308.076-4.963.038-.275-1.127-.539-2.259-.806-3.388-2.127.006-4.255-.014-6.38.006-.338-.047-.475.325-.61.567-.444.933-.821 1.898-1.312 2.807-1.917-.061-3.84.063-5.756-.067 2.17-4.583 4.43-9.12 6.603-13.7.95-1.922 1.849-3.871 2.83-5.777zm15.001.735c.073-.24.021-.745.387-.721 1.766.002 3.543-.073 5.305.04 2.13 3.635 4.067 7.4 6.19 11.042C52.49 8.24 52.95 4.531 53.518.842c1.754.032 3.51.018 5.264.075-.88 6.492-1.803 12.977-2.69 19.467-1.64.038-3.282.026-4.921.016-.29.067-.387-.258-.512-.444-2.105-3.873-4.21-7.746-6.355-11.596-.55 4-1.09 8.004-1.662 12-1.701-.004-3.403.026-5.102-.016.753-6.268 1.686-12.517 2.498-18.777zM67.806.84C69.904.828 72.001.834 74.1.838c1.38 6.528 2.66 13.08 3.976 19.62-1.696 0-3.391.033-5.084-.019-.26-1.16-.45-2.337-.755-3.488a86.793 86.793 0 0 0-6.502-.008c-.676 1.083-1.082 2.322-1.665 3.459-1.926.002-3.85.014-5.775-.006 3.133-6.538 6.34-13.038 9.512-19.556zm15.047.002c1.803-.012 3.606-.014 5.41.002-.68 5.028-1.392 10.054-2.017 15.09 1.92.044 3.847-.075 5.763.062-.198 1.47-.36 2.946-.592 4.41-3.747-.006-7.494.012-11.24-.01.384-3.693 1-7.36 1.483-11.043.4-2.837.775-5.678 1.193-8.511zM24.792 12.675c1.316.008 2.63.006 3.945.002-.418-2.062-.899-4.11-1.324-6.169-.856 2.062-1.767 4.101-2.621 6.167zM67.5 12.7c1.326.063 2.654-.008 3.98-.028-.435-2.072-.866-4.146-1.303-6.216-.891 2.082-1.801 4.156-2.677 6.244z" fill="#FFF" fill-rule="evenodd"/></svg>