<svg width="124" height="23" viewBox="0 0 124 23" xmlns="http://www.w3.org/2000/svg"><title>CanalPlus</title><path d="M2.61 4.162C4.736 1.584 8.007.095 11.298.05c2.74-.05 5.647.475 7.899 2.152-.371 1.734-.567 3.509-1.06 5.214-1.81-1.265-3.984-2.072-6.201-1.907-2.067.152-4.15 1.283-5.095 3.22-.858 1.816-1.018 4.066-.1 5.896.814 1.657 2.525 2.714 4.308 2.92 1.937.334 3.822-.393 5.595-1.091-.292 1.85-.515 3.734-.993 5.541-1.726.9-3.743 1.046-5.65.979-3.432-.178-6.888-1.977-8.576-5.11C-.865 13.596-.322 7.976 2.61 4.162zM109.996.49c2.06-.023 4.12-.006 6.18-.008.009 2.386 0 4.771.005 7.158 2.582.009 5.164-.02 7.749.015.057 1.79.004 3.582.032 5.373-.032.308.055.664-.113.941-2.5.117-5.01-.032-7.508.065-.265.22-.116.63-.167.931.007 2.459.013 4.917-.002 7.375-1.943.007-3.886.026-5.825-.002-.411.078-.347-.364-.364-.633-.007-2.56.013-5.123-.009-7.686-2.612-.035-5.224.009-7.836-.022-.077-2.096-.034-4.196-.023-6.294 2.62-.028 5.24 0 7.861-.015.022-2.4-.01-4.798.02-7.198zM27.72.911c2.124.005 4.248.005 6.375-.002.23.05.68-.106.728.248 1.475 7.04 2.958 14.08 4.404 21.127-1.83.089-3.662.082-5.494.041-.305-1.234-.597-2.473-.893-3.71-2.354.006-4.71-.015-7.063.006-.375-.052-.526.356-.675.62-.493 1.023-.91 2.08-1.454 3.076-2.122-.068-4.25.069-6.372-.074 2.403-5.019 4.905-9.988 7.31-15.005 1.052-2.104 2.047-4.24 3.134-6.327zm16.608.805c.08-.262.023-.816.428-.79 1.956.003 3.923-.08 5.874.044 2.359 3.982 4.502 8.104 6.852 12.094.63-4.04 1.14-8.102 1.77-12.142 1.942.035 3.887.02 5.828.083-.974 7.11-1.997 14.212-2.979 21.32-1.815.041-3.632.028-5.448.018-.321.073-.428-.283-.566-.486-2.331-4.242-4.662-8.484-7.036-12.7-.609 4.38-1.208 8.766-1.84 13.142-1.884-.004-3.767.028-5.649-.017.833-6.865 1.867-13.71 2.766-20.566zM75.07.92c2.322-.013 4.645-.007 6.967-.002 1.528 7.15 2.945 14.325 4.402 21.487-1.877 0-3.754.037-5.63-.02-.287-1.27-.498-2.56-.834-3.82a97.136 97.136 0 0 0-7.2-.009c-.747 1.187-1.197 2.543-1.842 3.789-2.133.002-4.264.015-6.394-.007C68.008 15.178 71.56 8.058 75.07.92zm16.66.002a393.6 393.6 0 0 1 5.988.002c-.752 5.507-1.54 11.012-2.233 16.528 2.127.048 4.26-.083 6.381.067-.219 1.61-.398 3.227-.656 4.83-4.148-.006-8.296.013-12.444-.01.426-4.045 1.107-8.062 1.642-12.095.443-3.107.859-6.219 1.321-9.322zm-64.283 12.96c1.458.01 2.913.007 4.368.003-.462-2.26-.995-4.503-1.466-6.757-.948 2.259-1.956 4.491-2.902 6.754zm47.284.026c1.468.07 2.938-.008 4.406-.03-.481-2.27-.958-4.541-1.442-6.809-.986 2.28-1.994 4.553-2.964 6.84z" fill="#A8A5B5" fill-rule="evenodd" opacity=".6"/></svg>