<svg width="76" height="33" viewBox="0 0 76 33" xmlns="http://www.w3.org/2000/svg"><title>Électricité_de_France_logo</title><g fill="#6E6C79" fill-rule="evenodd"><path d="M14.868 22.196c-.255.27-.95.369-1.146.678-.298.467-.982 1.53-1.516 2.037-1.724 1.639-5.415 2.462-7.236.897-.119.008-.05.078.093.526.133.847.815 2.836.563 3.344.164.565.334.358.645.672.211.212.297.765.54.915.277-.019.555-.04.832-.058.05.154.103.309.151.467l1.07-.078c.2.046.805.359.982.407l1.186-.082c.906.242 1.697-.137 2.461-.654.426-.286.892-.24 1.27-.564.55-.471 1.296-1.39 1.646-2.028.857-1.559.566-5.294-.21-6.218-.305-.332-.665-.338-1.331-.261m7.17-1.024c-.643.492-.912.37-1.289 1.131-.039 0 .057.114.02.114.382.766 1.26 1.074 1.906 1.612.2.17.746 1.117 1.004 1.185.292.347.48 1.307.672 1.307.197.27-.018.906.176 1.153.012 1.14-.145 1.218-.343 1.438 0 .079.108.285.108.362.054.054.511.382.71.343.619.017 3.156 2 3.358 2.382 1.82.137 1.688-.42 2.944-.953.339-.146.61-.008.832-.24.234-.238.252-.708.476-.952.03-4.482-6.061-8.727-10.573-8.882m4.944-9.47c-2.256.339-3.635 1.06-4.487 1.65-.596.416-.77.694-.896.87-.13.174-.217.561-.154.97.066.403.232.834.583 1.075 2.77-.205 7.58-.38 8.515 1.949.05.324.123.52.13.597.917-.227.246-.146 1.598.065.309.049 1.072-.123 1.577-.247.23-.054.361-.263.361-.263s-.044-.222-.031-.343c0 0 .474.036.668-.114 1.281-.207.608-.81 1.212-1.49-.363-4.353-4.826-5.364-9.076-4.719M9.809 19.64c.496-.128 1.341-.194 1.784-.415.706-.353 3.13-2.05 2.358-3.431-.237-2.91-3.747-.451-5.242-1.472-1.512-.195-3.21-3.057-3.666-4.284-.176-.485-.104-.32-.347-.703.002-.039-.154.133-.153.094-.44.514-.365.965-.434 2.22-.199-.012-.396-.023-.595-.037-.038.456-.083.703-.296.938-.043.078-.088.152-.132.23-.377-.125-.188.053-.34-.263-1.392.071-1.29 1.472-1.93 2.267.029 2.616 5.198 5.84 8.993 4.856m10.07-14.217c.12-.988-.026-2.431.752-3.11.229-1.055 1.887-.808 1.628-1.48-.16-.42-.939-.22-1.254-.143-.24.057-2.512.777-3.385.874-.37-.102-.741-.205-1.11-.309-1.428.193-2.25 1.328-3.043 2.23-.665.757-1.567 2.61-.85 3.72l-.12.727 1.62 2.369c.56.402.634.7 1.236 1.096l.372.56c.492.324 1.945.329 2.188.117 2.337.218 2.083-4.516 2.824-5.512-.093-.446-.486-.91-.857-1.139"/><path d="M57.472 22.967c2.07 0 3.752-.684 3.752-4.343 0-3.112-1.683-4.147-3.752-4.147h-1.086v8.49h1.086zm1.097-10.958c3.746 0 6.282 2.371 6.282 6.615 0 5.332-3.482 6.911-7.131 6.911h-4.885c.018-.296 0-1.085 0-2.074v-9.379c0-.987.018-1.618 0-2.073h5.734zM70.162 23.46c0 .99.049 2.076.049 2.076h-3.623s.023-1.086.023-2.075v-9.38c0-.988-.023-2.071-.023-2.071h8.565v2.617s-1.915-.05-2.564-.05h-2.427v2.725l2.427.025c.454 0 2.017-.025 2.017-.025v2.493s-1.386-.038-2.017-.038l-2.427.014M42.588 17.12c.054-.782.333-2.6 2.307-2.6 2.024 0 2.135 1.708 2.135 2.612v.181s-1.353.038-2.16.038c-.807 0-2.295-.038-2.295-.038l.014-.192zm3.015 5.681c-1.703 0-3.015-1.148-3.015-2.942v-.153s3.166-.077 4.24-.077c1.825 0 2.578-.017 4.017-.036v-1.02c0-4.609-1.953-6.852-5.975-6.852-1.853 0-6.163.697-6.163 7.15 0 4.308 2.171 6.88 5.968 6.88 2.98 0 4.81-.762 6.135-1.73-.15-.224-1.259-2.221-1.404-2.439-.796.608-2.109 1.22-3.803 1.22z" fill-rule="nonzero"/></g></svg>