<svg width="17" height="11" viewBox="0 0 17 11" xmlns="http://www.w3.org/2000/svg"><title>206626</title><g fill-rule="nonzero" fill="none"><path d="M16.674 10.991H.293A.29.29 0 0 1 0 10.702V.298A.29.29 0 0 1 .293.009h16.381a.29.29 0 0 1 .293.289v10.404a.29.29 0 0 1-.293.289z" fill="#F5F5F5"/><g fill="#FF4B55"><path d="M16.967.854H0V.298A.29.29 0 0 1 .293.009h16.381a.29.29 0 0 1 .293.289v.556zM0 3.388h16.967v1H0zM0 1.698h16.967v1H0zM16.967 5.922H.293A.29.29 0 0 1 0 5.633v-.555h16.967v.844zM0 8.457h16.967v1H0zM16.674 10.991H.293A.29.29 0 0 1 0 10.702v-.556h16.967v.556a.29.29 0 0 1-.293.289zM0 6.767h16.967v1H0z"/></g><path d="M7.606.01H.293A.29.29 0 0 0 0 .297v5.335c0 .16.131.29.293.29h7.313a.29.29 0 0 0 .292-.29V.298a.29.29 0 0 0-.292-.289z" fill="#41479B"/><g fill="#F5F5F5"><path d="M.821.672l.065.192.205.002c.026 0 .037.033.016.049l-.165.12.062.193c.008.025-.02.046-.042.03l-.167-.117-.166.117c-.022.016-.05-.005-.043-.03l.062-.193-.164-.12C.462.899.474.866.5.865h.204L.77.671c.009-.024.044-.024.052 0zM.821 1.676l.065.192.205.001c.026 0 .037.034.016.05l-.165.12.062.192c.008.025-.02.046-.042.03l-.167-.117-.166.118c-.022.015-.05-.006-.043-.03l.062-.193-.164-.12c-.022-.016-.01-.05.016-.05l.204-.001.065-.192c.009-.025.044-.025.052 0zM.821 2.68l.065.191.205.002c.026 0 .037.033.016.049l-.165.12.062.193c.008.025-.02.046-.042.03l-.167-.117-.166.117c-.022.016-.05-.005-.043-.03l.062-.193-.164-.12c-.022-.016-.01-.049.016-.05h.204L.77 2.68c.009-.025.044-.025.052 0zM.821 3.683l.065.192.205.001c.026 0 .037.034.016.05l-.165.12.062.193c.008.025-.02.045-.042.03L.795 4.15.63 4.27c-.022.015-.05-.005-.043-.03l.062-.193-.164-.12c-.022-.016-.01-.05.016-.05l.204-.001.065-.192c.009-.025.044-.025.052 0zM.821 4.687l.065.191.205.002c.026 0 .037.034.016.05l-.165.12.062.192c.008.025-.02.046-.042.03l-.167-.117-.166.118c-.022.015-.05-.006-.043-.03l.062-.194-.164-.12C.462 4.914.474 4.88.5 4.88l.204-.001.065-.192c.009-.025.044-.025.052 0zM1.61 1.164l.065.192.204.002c.027 0 .038.033.017.049l-.165.12.062.193c.008.025-.021.046-.043.03l-.166-.117-.167.117c-.021.016-.05-.005-.042-.03l.062-.193-.165-.12c-.021-.016-.01-.049.016-.05h.205l.065-.193c.008-.024.044-.024.052 0zM1.61 2.168l.065.192.204.001c.027 0 .038.034.017.05l-.165.12.062.192c.008.025-.021.046-.043.03l-.166-.117-.167.118c-.021.015-.05-.006-.042-.03l.062-.193-.165-.12c-.021-.016-.01-.05.016-.05l.205-.001.065-.192c.008-.025.044-.025.052 0zM1.61 3.172l.065.191.204.002c.027 0 .038.034.017.05l-.165.12.062.192c.008.025-.021.046-.043.03l-.166-.117-.167.117c-.021.016-.05-.005-.042-.03l.062-.193-.165-.12c-.021-.015-.01-.049.016-.05h.205l.065-.192c.008-.025.044-.025.052 0zM1.61 4.175l.065.192.204.001c.027 0 .038.034.017.05l-.165.12.062.193c.008.025-.021.045-.043.03l-.166-.118-.167.118c-.021.015-.05-.005-.042-.03l.062-.193-.165-.12c-.021-.016-.01-.05.016-.05l.205-.001.065-.192c.008-.025.044-.025.052 0zM2.398.672l.065.192.205.002c.026 0 .037.033.016.049l-.165.12.062.193c.008.025-.02.046-.042.03l-.167-.117-.166.117c-.022.015-.05-.005-.043-.03l.062-.193-.165-.12c-.02-.016-.01-.049.017-.05h.204l.065-.193c.008-.024.044-.024.052 0zM2.398 1.676l.065.192.205.001c.026 0 .037.034.016.05l-.165.12.062.192c.008.025-.02.046-.042.03l-.167-.117-.166.118c-.022.015-.05-.006-.043-.03l.062-.193-.165-.12c-.02-.016-.01-.05.017-.05l.204-.001.065-.192c.008-.025.044-.025.052 0zM2.398 2.68l.065.191.205.002c.026 0 .037.033.016.049l-.165.12.062.193c.008.025-.02.046-.042.03l-.167-.117-.166.117c-.022.016-.05-.005-.043-.03l.062-.193-.165-.12c-.02-.016-.01-.049.017-.05h.204l.065-.193c.008-.024.044-.024.052 0zM2.398 3.683l.065.192.205.001c.026 0 .037.034.016.05l-.165.12.062.193c.008.025-.02.045-.042.03l-.167-.118-.166.118c-.022.015-.05-.005-.043-.03l.062-.193-.165-.12c-.02-.016-.01-.05.017-.05l.204-.001.065-.192c.008-.025.044-.025.052 0zM2.398 4.687l.065.191.205.002c.026 0 .037.034.016.05l-.165.12.062.192c.008.025-.02.046-.042.03l-.167-.117-.166.118c-.022.015-.05-.006-.043-.03l.062-.194-.165-.12c-.02-.015-.01-.049.017-.049l.204-.002.065-.191c.008-.025.044-.025.052 0zM3.187 1.164l.065.192.204.002c.027 0 .038.033.017.049l-.165.12.062.193c.008.025-.021.046-.043.03l-.166-.117-.167.117c-.021.016-.05-.005-.042-.03l.062-.193-.165-.12c-.021-.016-.01-.049.016-.05h.205l.065-.193c.008-.024.044-.024.052 0zM3.187 2.168l.065.192.204.001c.027 0 .038.034.017.05l-.165.12.062.192c.008.025-.021.046-.043.03l-.166-.117-.167.118c-.021.015-.05-.006-.042-.03l.062-.193-.165-.12c-.021-.016-.01-.05.016-.05l.205-.001.065-.192c.008-.025.044-.025.052 0zM3.187 3.172l.065.191.204.002c.027 0 .038.034.017.05l-.165.12.062.192c.008.025-.021.046-.043.03l-.166-.117-.167.117c-.021.016-.05-.005-.042-.03l.062-.193-.165-.12c-.021-.015-.01-.049.016-.05h.205l.065-.192c.008-.025.044-.025.052 0zM3.187 4.175l.065.192.204.001c.027 0 .038.034.017.05l-.165.12.062.193c.008.025-.021.045-.043.03l-.166-.118-.167.118c-.021.015-.05-.005-.042-.03l.062-.193-.165-.12c-.021-.016-.01-.05.016-.05l.205-.001.065-.192c.008-.025.044-.025.052 0zM3.975.672l.065.192.205.002c.026 0 .037.033.016.049l-.165.12.062.193c.008.025-.02.046-.042.03l-.167-.117-.166.117c-.022.015-.05-.005-.043-.03l.062-.193-.165-.12c-.02-.016-.01-.049.017-.05h.204l.065-.193c.008-.024.044-.024.052 0zM3.975 1.676l.065.192.205.001c.026 0 .037.034.016.05l-.165.12.062.192c.008.025-.02.046-.042.03l-.167-.117-.166.118c-.022.015-.05-.006-.043-.03l.062-.193-.165-.12c-.02-.016-.01-.05.017-.05l.204-.001.065-.192c.008-.025.044-.025.052 0zM3.975 2.68l.065.191.205.002c.026 0 .037.033.016.049l-.165.12.062.193c.008.025-.02.046-.042.03l-.167-.117-.166.117c-.022.016-.05-.005-.043-.03l.062-.193-.165-.12c-.02-.016-.01-.049.017-.05h.204l.065-.193c.008-.024.044-.024.052 0zM3.975 3.683l.065.192.205.001c.026 0 .037.034.016.05l-.165.12.062.193c.008.025-.02.045-.042.03l-.167-.118-.166.118c-.022.015-.05-.005-.043-.03l.062-.193-.165-.12c-.02-.016-.01-.05.017-.05l.204-.001.065-.192c.008-.025.044-.025.052 0zM3.975 4.687l.065.191.205.002c.026 0 .037.034.016.05l-.165.12.062.192c.008.025-.02.046-.042.03l-.167-.117-.166.118c-.022.015-.05-.006-.043-.03l.062-.194-.165-.12c-.02-.015-.01-.049.017-.049l.204-.002.065-.191c.008-.025.044-.025.052 0zM4.764 1.164l.065.192.204.002c.027 0 .038.033.016.049l-.164.12.062.193c.008.025-.021.046-.043.03l-.166-.117-.167.117c-.021.016-.05-.005-.042-.03l.062-.193-.165-.12c-.021-.016-.01-.049.016-.05h.205l.065-.193c.008-.024.043-.024.052 0zM4.764 2.168l.065.192.204.001c.027 0 .038.034.016.05l-.164.12.062.192c.008.025-.021.046-.043.03l-.166-.117-.167.118c-.021.015-.05-.006-.042-.03l.062-.193-.165-.12c-.021-.016-.01-.05.016-.05l.205-.001.065-.192c.008-.025.043-.025.052 0zM4.764 3.172l.065.191.204.002c.027 0 .038.034.016.05l-.164.12.062.192c.008.025-.021.046-.043.03l-.166-.117-.167.117c-.021.016-.05-.005-.042-.03l.062-.193-.165-.12c-.021-.015-.01-.049.016-.05h.205l.065-.192c.008-.025.043-.025.052 0zM4.764 4.175l.065.192.204.001c.027 0 .038.034.016.05l-.164.12.062.193c.008.025-.021.045-.043.03l-.166-.118-.167.118c-.021.015-.05-.005-.042-.03l.062-.193-.165-.12c-.021-.016-.01-.05.016-.05l.205-.001.065-.192c.008-.025.043-.025.052 0zM5.552.672l.065.192.205.002c.026 0 .037.033.016.049l-.165.12.062.193c.008.025-.02.046-.042.03l-.167-.117-.166.117c-.022.015-.05-.005-.043-.03l.062-.193-.165-.12c-.02-.016-.01-.049.017-.05h.204L5.5.671c.008-.024.044-.024.052 0zM5.552 1.676l.065.192.205.001c.026 0 .037.034.016.05l-.165.12.062.192c.008.025-.02.046-.042.03l-.167-.117-.166.118c-.022.015-.05-.006-.043-.03l.062-.193-.165-.12c-.02-.016-.01-.05.017-.05l.204-.001.065-.192c.008-.025.044-.025.052 0zM5.552 2.68l.065.191.205.002c.026 0 .037.033.016.049l-.165.12.062.193c.008.025-.02.046-.042.03l-.167-.117-.166.117c-.022.016-.05-.005-.043-.03l.062-.193-.165-.12c-.02-.016-.01-.049.017-.05h.204l.065-.193c.008-.024.044-.024.052 0zM5.552 3.683l.065.192.205.001c.026 0 .037.034.016.05l-.165.12.062.193c.008.025-.02.045-.042.03l-.167-.118-.166.118c-.022.015-.05-.005-.043-.03l.062-.193-.165-.12c-.02-.016-.01-.05.017-.05l.204-.001.065-.192c.008-.025.044-.025.052 0zM5.552 4.687l.065.191.205.002c.026 0 .037.034.016.05l-.165.12.062.192c.008.025-.02.046-.042.03l-.167-.117-.166.118c-.022.015-.05-.006-.043-.03l.062-.194-.165-.12c-.02-.015-.01-.049.017-.049l.204-.002.065-.191c.008-.025.044-.025.052 0zM6.34 1.164l.066.192.204.002c.027 0 .038.033.016.049l-.164.12.061.193c.009.025-.02.046-.042.03l-.166-.117-.167.117c-.021.016-.05-.005-.042-.03l.062-.193-.165-.12c-.021-.016-.01-.049.016-.05h.205l.064-.193c.009-.024.044-.024.053 0zM6.34 2.168l.066.192.204.001c.027 0 .038.034.016.05l-.164.12.061.192c.009.025-.02.046-.042.03l-.166-.117-.167.118c-.021.015-.05-.006-.042-.03l.062-.193-.165-.12c-.021-.016-.01-.05.016-.05l.205-.001.064-.192c.009-.025.044-.025.053 0zM6.34 3.172l.066.191.204.002c.027 0 .038.034.016.05l-.164.12.061.192c.009.025-.02.046-.042.03l-.166-.117-.167.117c-.021.016-.05-.005-.042-.03l.062-.193-.165-.12c-.021-.015-.01-.049.016-.05h.205l.064-.192c.009-.025.044-.025.053 0zM6.34 4.175l.066.192.204.001c.027 0 .038.034.016.05l-.164.12.061.193c.009.025-.02.045-.042.03l-.166-.118-.167.118c-.021.015-.05-.005-.042-.03l.062-.193-.165-.12c-.021-.016-.01-.05.016-.05l.205-.001.064-.192c.009-.025.044-.025.053 0zM7.13.672l.064.192.205.002c.026 0 .037.033.016.049l-.165.12.062.193c.008.025-.02.046-.042.03l-.167-.117-.166.117c-.022.015-.05-.005-.043-.03l.062-.193-.165-.12c-.021-.016-.01-.049.017-.05h.204l.065-.193c.008-.024.044-.024.052 0zM7.13 1.676l.064.192.205.001c.026 0 .037.034.016.05l-.165.12.062.192c.008.025-.02.046-.042.03l-.167-.117-.166.118c-.022.015-.05-.006-.043-.03l.062-.193-.165-.12c-.021-.016-.01-.05.017-.05l.204-.001.065-.192c.008-.025.044-.025.052 0zM7.13 2.68l.064.191.205.002c.026 0 .037.033.016.049l-.165.12.062.193c.008.025-.02.046-.042.03l-.167-.117-.166.117c-.022.016-.05-.005-.043-.03l.062-.193-.165-.12c-.021-.016-.01-.049.017-.05h.204l.065-.193c.008-.024.044-.024.052 0zM7.13 3.683l.064.192.205.001c.026 0 .037.034.016.05l-.165.12.062.193c.008.025-.02.045-.042.03l-.167-.118-.166.118c-.022.015-.05-.005-.043-.03l.062-.193-.165-.12c-.021-.016-.01-.05.017-.05l.204-.001.065-.192c.008-.025.044-.025.052 0zM7.13 4.687l.064.191.205.002c.026 0 .037.034.016.05l-.165.12.062.192c.008.025-.02.046-.042.03l-.167-.117-.166.118c-.022.015-.05-.006-.043-.03l.062-.194-.165-.12c-.021-.015-.01-.049.017-.049l.204-.002.065-.191c.008-.025.044-.025.052 0z"/></g></g></svg>