<svg width="56" height="24" viewBox="0 0 56 24" xmlns="http://www.w3.org/2000/svg"><title>Ixxi</title><g fill="#6E6C79" fill-rule="evenodd"><path d="M29.056 24c.02-.14.008-.282.008-.422.001-.308-.004-.616-.004-.923-.002-.996-.002-1.991-.005-2.987 0-.075.012-.1.093-.099.595.003 1.19 0 1.785 0 2.26-.001 4.247-1.625 4.706-3.867.292-1.428.028-2.749-.823-3.935a5.086 5.086 0 0 0-1.165-1.137c-.666-.485-1.385-.85-2.185-1.04a2.987 2.987 0 0 1-1.095-.49c-.546-.4-.894-.948-1.124-1.578-.248-.682-.346-1.39-.344-2.114 0-.056.02-.066.07-.066.799.002 1.599-.025 2.397.007a8.891 8.891 0 0 1 3.56.891 8.865 8.865 0 0 1 2.948 2.289c.047.055.066.054.114-.001A8.91 8.91 0 0 1 42.81 5.58a8.743 8.743 0 0 1 2.024-.24c.682 0 1.364.002 2.045.003.045 0 .088-.015.088.066-.004.84-.125 1.656-.474 2.425-.386.85-.999 1.45-1.903 1.705-.35.1-.708.181-1.043.33-1.044.464-1.959 1.1-2.613 2.068a4.732 4.732 0 0 0-.805 2.4c-.124 1.995.895 3.78 2.612 4.687a4.736 4.736 0 0 0 2.26.545c.574-.002 1.147.002 1.72 0 .068 0 .094.01.094.09-.004 1.159-.004 2.317-.005 3.476 0 .258-.004.515-.006.773 0 .03-.007.062.009.092h-2.399c-.01-.023-.03-.018-.047-.019a8.908 8.908 0 0 1-1.068-.128c-1.74-.319-3.26-1.091-4.578-2.279a7.846 7.846 0 0 1-.786-.83c-.196.224-.384.45-.597.65-1.593 1.507-3.464 2.384-5.642 2.574-.087.007-.177-.006-.26.032h-2.38zM9.198 24l-.003-2.845c0-.49 0-.98-.007-1.47-.001-.1.029-.116.119-.116.638.002 1.277.014 1.914-.008 1.326-.047 2.444-.579 3.357-1.55a4.665 4.665 0 0 0 1.267-2.766c.171-1.615-.303-3.013-1.478-4.13a6.056 6.056 0 0 0-2.81-1.537c-1.002-.236-1.67-.875-2.08-1.812a5.437 5.437 0 0 1-.412-1.71 9.565 9.565 0 0 1-.033-.639c0-.056.013-.076.072-.076.796.003 1.593-.025 2.388.01 2.132.095 4.016.847 5.633 2.268.318.28.614.584.885.912.043.052.064.053.108 0a8.897 8.897 0 0 1 4.72-2.927 8.975 8.975 0 0 1 2.225-.264c.645.002 1.289.004 1.933 0 .085 0 .102.024.1.105-.014.83-.132 1.638-.48 2.398-.427.933-1.124 1.528-2.123 1.76-.726.167-1.383.494-1.997.922-.532.37-1.006.795-1.379 1.33a4.73 4.73 0 0 0-.843 2.31c-.107 1.177.137 2.271.801 3.245.804 1.178 1.91 1.889 3.315 2.107.242.038.486.051.73.051l1.692.004c.14 0 .125-.02.125.122L26.931 24h-2.398c-.011-.029-.037-.017-.056-.019a8.74 8.74 0 0 1-1.387-.195c-1.966-.455-3.631-1.43-4.964-2.974-.05-.057-.075-.059-.123 0-.361.443-.774.83-1.22 1.181-1.464 1.152-3.115 1.821-4.965 1.975-.074.006-.152-.005-.222.032H9.198zM48.774 24V5.462c0-.129 0-.13.122-.129 1.283.006 2.522.245 3.688.83 1.474.74 2.615 1.86 3.395 3.388.005.01.014.02.021.029v.169h-2.924c-.135 0-.117-.02-.117.123V20.61c0 .237-.004.474-.042.709-.12.74-.494 1.316-1.035 1.777-.597.507-1.298.743-2.044.847-.16.022-.32.038-.48.056h-.584zM0 9.713c.17-.357.36-.702.584-1.024 1.098-1.578 2.552-2.587 4.337-3.068a8.77 8.77 0 0 1 2.2-.288c.086 0 .105.024.105.113-.002 6.185-.002 12.37-.002 18.554h-.565c-.245-.031-.49-.047-.734-.093-.576-.109-1.125-.297-1.608-.656-.825-.612-1.276-1.43-1.272-2.53.01-3.618.004-7.237.006-10.856 0-.097-.024-.117-.111-.117-.98.004-1.96.002-2.94.002v-.037zM6.1 0c.166.038.337.06.501.115a2.235 2.235 0 0 1 1.525 1.996c.055 1.104-.72 2.058-1.792 2.285-1.257.266-2.523-.597-2.698-1.85-.172-1.225.644-2.32 1.88-2.523.047-.008.097.002.14-.023H6.1zM51.244 0c.169.034.339.057.504.11a2.22 2.22 0 0 1 1.533 2.317 2.23 2.23 0 0 1-1.8 1.972c-1.292.26-2.548-.638-2.693-1.925A2.236 2.236 0 0 1 50.691.021c.044-.006.09.003.13-.021h.423z"/></g></svg>