<?xml version="1.0" encoding="UTF-8"?>
<svg width="86px" height="21px" viewBox="0 0 86 21" version="1.1" xmlns="http://www.w3.org/2000/svg" xmlns:xlink="http://www.w3.org/1999/xlink">
    <!-- Generator: Sketch 48.2 (47327) - http://www.bohemiancoding.com/sketch -->
    <title>Jarger_lecoultre</title>
    <desc>Created with Sketch.</desc>
    <defs></defs>
    <g id="Website-iteration-5---Desktop---Home" stroke="none" stroke-width="1" fill="none" fill-rule="evenodd" transform="translate(-226.000000, -3913.000000)">
        <g id="Testimonial-section" transform="translate(0.000000, 3444.000000)" fill="#EDAD6F" fill-rule="nonzero">
            <g id="Testimonial-block" transform="translate(188.000000, 263.000000)">
                <g id="Jarger_lecoultre" transform="translate(38.000000, 206.000000)">
                    <path d="M50.3471214,6.44569444 C48.7156642,7.14265278 46.9595943,7.61266667 45.1218609,7.81333333 L45.1218609,2.05133333 L47.3158896,2.05133333 L45.9608787,0.0805 L43.5896098,0.0805 L43.0693824,0.834791667 L42.549155,0.0810972222 L40.1797008,0.0810972222 L38.8228752,2.05193056 L41.0187187,2.05193056 L41.0187187,7.81213889 C39.1797754,7.61027778 37.4237056,7.14145833 35.7904336,6.4445 L34.1849877,8.771875 C34.8866897,9.094375 35.6107736,9.37865278 36.353005,9.62351389 L36.9663894,8.739625 C38.8295293,9.32490278 40.8106277,9.64740278 42.864316,9.66531944 L42.864316,9.66770833 C42.9429551,9.66890278 43.0191744,9.67009722 43.0972085,9.67009722 C45.214413,9.67009722 47.2566079,9.34461111 49.1729803,8.74261111 L49.7863647,9.6265 C50.5285961,9.38163889 51.2514702,9.09676389 51.9537771,8.77486111 L50.3465165,6.44748611 L50.3471214,6.44569444 Z M42.8655259,9.25502778 C40.7465067,9.234125 38.7079413,8.88176389 36.8024573,8.24811111 L36.1951221,9.12602778 C35.7269174,8.96358333 35.2671816,8.78561111 34.8159146,8.59151389 L35.9440821,6.95393056 C37.6608325,7.65268056 39.5070347,8.10656944 41.4355055,8.27140278 L41.4355055,1.63805556 L39.6116851,1.63805556 L40.4041245,0.489597222 L42.3277559,0.489597222 L42.864316,1.26897222 L42.864316,9.25502778 L42.8655259,9.25502778 Z M49.339937,8.24870833 C47.4332432,8.88176389 45.3958876,9.234125 43.2762635,9.255625 L43.2762635,1.26956944 L43.8146384,0.489 L45.7394797,0.489 L46.531919,1.63805556 L44.7074937,1.63805556 L44.7074937,8.27140278 C46.6371743,8.10597222 48.4821668,7.65327778 50.1977073,6.95452778 L51.3264797,8.59211111 C50.8740029,8.78680556 50.414872,8.965375 49.9460624,9.126625 L49.3411469,8.24870833 L49.339937,8.24870833 Z" id="path14"></path>
                    <path d="M21.6293605,15.8662778 C21.6293605,15.7265278 21.5156364,15.6106667 21.3674321,15.5897639 L21.1617608,15.5521389 C21.1012692,15.5449722 21.0540858,15.4983889 21.0540858,15.4410556 L21.0540858,15.29175 C21.0540858,15.2463611 21.0946151,15.2081389 21.146033,15.2081389 L23.1858082,15.2081389 C23.2354113,15.2081389 23.2765455,15.2463611 23.2765455,15.29175 L23.2765455,15.4410556 C23.2765455,15.4983889 23.2281523,15.5449722 23.1676607,15.5521389 L23.0212712,15.5730417 C22.8730669,15.5945417 22.7611575,15.7104028 22.7611575,15.8501528 L22.7611575,16.5112778 C22.7611575,16.6169861 22.6946168,16.7005972 22.6038794,16.7561389 C21.4642185,17.4590694 20.6409285,17.3736667 20.6409285,17.3736667 C19.2847078,17.3736667 18.1849713,16.2819444 18.1849713,14.937 C18.1849713,13.5908611 19.2841029,12.5003333 20.6409285,12.5003333 C21.0256548,12.5003333 21.389209,12.5875278 21.7134437,12.7451944 C21.7134437,12.7451944 21.9027823,12.878375 22.0007786,12.6317222 C22.0177163,12.5869306 22.0636899,12.5552778 22.1181323,12.5552778 L22.2360908,12.5552778 C22.2905332,12.5552778 22.3359019,12.5869306 22.3510247,12.631125 L22.6776791,13.6774583 C22.6819135,13.6882083 22.6837283,13.6983611 22.6819135,13.7103056 C22.6782841,13.7443472 22.6516678,13.7712222 22.6183974,13.7789861 L22.2977922,13.8387083 C22.2820644,13.8434861 22.2657316,13.845875 22.2493989,13.8434861 C22.198586,13.8387083 22.1635009,13.7992917 22.1435387,13.7658472 L22.0818373,13.6440139 C21.5876213,12.6783056 20.5876959,12.803125 20.5876959,12.803125 C19.720247,12.8210417 19.4250482,13.6464028 19.462553,14.9053472 C19.5006627,16.1762361 19.8255023,16.9777083 20.6923463,16.9597917 C20.6923463,16.9597917 21.2089442,16.9777083 21.5694738,16.6122083 C21.6069786,16.5745833 21.6251261,16.5076944 21.6251261,16.4808194 L21.6251261,15.8674722 L21.6293605,15.8662778 Z" id="path20"></path>
                    <path d="M24.9842221,12.5493056 L27.4014647,12.5493056 C27.5333363,12.5493056 27.6452457,12.6460556 27.6887996,12.7523611 L27.9307658,13.3854167 C27.936815,13.394375 27.9380248,13.4045278 27.9380248,13.4164722 C27.9380248,13.4630556 27.8974954,13.5000833 27.8472874,13.5000833 L27.6174195,13.5000833 C27.5666066,13.5000833 27.5309166,13.4678333 27.5049052,13.4308056 L27.3857369,13.2731389 C27.1570788,12.9404861 26.8219556,12.9595972 26.8219556,12.9595972 L25.5818787,12.9595972 C25.4729939,12.9595972 25.3883057,13.0372361 25.3883057,13.1369722 L25.3883057,13.8858889 C25.3883057,13.9850278 25.4790431,14.0632639 25.586718,14.0632639 L25.8746578,14.0632639 C26.0639964,14.0644583 26.1746959,13.974875 26.210386,13.856625 L26.2769267,13.6475972 C26.2920496,13.604 26.339233,13.5699583 26.3918606,13.5699583 L26.5491387,13.5699583 C26.6035811,13.5699583 26.6507645,13.604 26.6664923,13.6475972 L27.0736005,14.8856389 C27.076625,14.8963889 27.07723,14.9077361 27.076625,14.9196806 C27.0717857,14.953125 27.0463793,14.9811944 27.012504,14.9901528 L26.8286097,15.0301667 C26.8134868,15.03375 26.7971541,15.0361389 26.7802164,15.03375 C26.7300084,15.0301667 26.6955282,14.99075 26.6749611,14.9561111 L26.5479288,14.7291667 C26.5479288,14.7291667 26.4245261,14.5034167 26.1160191,14.5034167 L25.5806689,14.5034167 C25.4717841,14.5034167 25.3840713,14.5810556 25.3840713,14.6813889 L25.3840713,16.7203056 C25.3840713,16.81825 25.4687595,16.8976806 25.5776443,16.8976806 L26.9713697,16.8976806 C26.9713697,16.8976806 27.3318994,16.909625 27.5532985,16.6110139 L27.7129962,16.3984028 C27.7402174,16.3625694 27.7753025,16.3309167 27.8261154,16.3309167 L28.0559833,16.3309167 C28.1067962,16.3309167 28.1467206,16.3697361 28.1467206,16.4145278 C28.1467206,16.4264722 28.1449059,16.4360278 28.1394617,16.4467778 L27.8388186,17.167625 C27.7964745,17.275125 27.6833553,17.3467917 27.5526936,17.3467917 L23.717529,17.3467917 C23.6679259,17.3467917 23.6280015,17.3085694 23.6280015,17.2613889 L23.6280015,17.0523611 C23.6280015,16.9962222 23.67458,16.9496389 23.7350715,16.9412778 L24.0157523,16.9012639 C24.1633517,16.8815556 24.2770759,16.7668889 24.2770759,16.62475 L24.2770759,13.2838889 C24.2770759,13.1441389 24.1633517,13.0270833 24.0157523,13.007375 L23.7332568,12.9679583 C23.6727652,12.9607917 23.6255818,12.9142083 23.6255818,12.8580694 L23.6255818,12.6478472 C23.6255818,12.6036528 23.6649013,12.5522917 23.7145044,12.5522917 L24.9830123,12.5522917 L24.9842221,12.5493056 Z" id="path22"></path>
                    <path d="M13.4394088,17.3390278 C13.3885959,17.3390278 13.3486715,17.3002083 13.3486715,17.2530278 L13.3486715,17.0451944 C13.3486715,16.9878611 13.3970647,16.9412778 13.4557415,16.9341111 L13.7382371,16.8946944 C13.889466,16.8737917 14.0019803,16.7573333 14.0019803,16.6169861 L14.0019803,13.2826944 C14.0019803,13.1429444 13.8888611,13.0270833 13.7400519,13.0061806 L13.4581612,12.9667639 C13.3988795,12.9595972 13.3516961,12.9130139 13.3516961,12.856875 L13.3516961,12.6466528 C13.3516961,12.6018611 13.3916205,12.5510972 13.4424334,12.5510972 L17.1251593,12.5510972 C17.2570309,12.5510972 17.3671255,12.6466528 17.4124942,12.7541528 L17.6544604,13.3860139 C17.6586948,13.3967639 17.6605095,13.4057222 17.6605095,13.4176667 C17.6605095,13.4654444 17.621795,13.5012778 17.571587,13.5012778 L17.3417191,13.5012778 C17.2903012,13.5012778 17.2546112,13.469625 17.2267851,13.4337917 L17.1118511,13.2749306 C16.8819832,12.9440694 16.5462551,12.9619861 16.5462551,12.9619861 L15.3043635,12.9619861 C15.1954787,12.9619861 15.1089757,13.039625 15.1089757,13.1393611 L15.1089757,13.8835 C15.1089757,13.9832361 15.1997131,14.0626667 15.3085979,14.0626667 L15.5965377,14.0626667 C15.7864812,14.0626667 15.8971807,13.9730833 15.9328707,13.8548333 L15.9994114,13.6487917 C16.0175589,13.6057917 16.0617177,13.5711528 16.1155552,13.5711528 L16.2728333,13.5711528 C16.3272757,13.5711528 16.3732493,13.6057917 16.389582,13.6487917 L16.7960852,14.8862361 C16.7997147,14.8963889 16.8021344,14.9065417 16.7997147,14.9184861 C16.7960852,14.9525278 16.7706788,14.9794028 16.7368035,14.9901528 L16.5529092,15.0307639 C16.5377863,15.0343472 16.5202437,15.0367361 16.5045159,15.0343472 C16.4524932,15.0295694 16.4198278,14.9901528 16.3992606,14.9567083 L16.2722284,14.7285694 C16.2722284,14.7285694 16.1476158,14.5034167 15.8397137,14.5034167 L15.3043635,14.5034167 C15.1954787,14.5034167 15.107161,14.5810556 15.107161,14.6807917 L15.107161,16.7197083 C15.107161,16.81825 15.1936639,16.8976806 15.3019438,16.8976806 L16.6944594,16.8976806 C16.6944594,16.8976806 17.0574087,16.9072361 17.277598,16.6098194 L17.4372957,16.3978056 C17.4645169,16.3619722 17.5002069,16.3297222 17.5510198,16.3297222 L17.7808877,16.3297222 C17.8310957,16.3297222 17.8704152,16.3673472 17.8704152,16.4133333 C17.8704152,16.4252778 17.8692054,16.4348333 17.8643661,16.4455833 L17.5619083,17.1658333 C17.5195642,17.2721389 17.4070499,17.345 17.2751783,17.345 L13.4400137,17.345 L13.4394088,17.3390278 Z" id="path24"></path>
                    <path d="M39.5130839,13.2791111 C39.5130839,13.1393611 39.6262031,13.0235 39.7731976,13.0043889 L40.0575079,12.9625833 C40.1167896,12.9548194 40.1633681,12.9088333 40.1633681,12.8520972 L40.1633681,12.6430694 C40.1633681,12.5964861 40.1234437,12.5463194 40.0726308,12.5463194 L37.843517,12.5463194 C37.7939139,12.5463194 37.7527796,12.5964861 37.7527796,12.6430694 L37.7527796,12.8520972 C37.7527796,12.9082361 37.8011729,12.9548194 37.8604546,12.9631806 L38.1435551,13.0037917 C38.2911545,13.0252917 38.4036688,13.1411528 38.4036688,13.2809028 L38.4036688,16.6217639 C38.4036688,16.7615139 38.2911545,16.877375 38.1435551,16.8982778 L37.8604546,16.9376944 C37.799963,16.9448611 37.7533845,16.9914444 37.7533845,17.0475833 L37.7533845,17.2566111 C37.7533845,17.302 37.7957286,17.3420139 37.8441219,17.3420139 L41.2497964,17.3420139 C41.3828778,17.3420139 41.4941823,17.2703472 41.5377362,17.1628472 L41.8389842,16.4425972 C41.8438235,16.4318472 41.8468481,16.4216944 41.8468481,16.40975 C41.8468481,16.3643611 41.8057138,16.3261389 41.7561107,16.3261389 L41.5262428,16.3261389 C41.474825,16.3261389 41.439135,16.3595833 41.4125187,16.3954167 L41.2522161,16.6068333 C41.0326317,16.90425 40.6702873,16.8935 40.6702873,16.8935 L39.7084716,16.8935 C39.5995868,16.8935 39.5148986,16.8158611 39.5148986,16.7173194 L39.5148986,13.2779167 L39.5130839,13.2791111 Z" id="path26"></path>
                    <path d="M43.3996663,12.5457222 L45.8181187,12.5457222 C45.9499903,12.5457222 46.0600849,12.6424722 46.1054536,12.7487778 L46.3474198,13.3818333 C46.3534689,13.3907917 46.3552837,13.4009444 46.3552837,13.4128889 C46.3552837,13.4582778 46.3165691,13.4965 46.266966,13.4965 L46.0358883,13.4965 C45.9856803,13.4965 45.9499903,13.4630556 45.923374,13.4284167 L45.8066253,13.2695556 C45.5767574,12.9380972 45.2440538,12.9560139 45.2440538,12.9560139 L44.0009524,12.9560139 C43.8920676,12.9560139 43.8073794,13.0360417 43.8073794,13.1351806 L43.8073794,13.8817083 C43.8073794,13.9832361 43.896302,14.060875 44.0051868,14.060875 L44.2943364,14.060875 C44.4842799,14.060875 44.5943745,13.9712917 44.6300645,13.8548333 L44.6966052,13.6481944 C44.7147527,13.6045972 44.7607263,13.5705556 44.8145638,13.5705556 L44.9718418,13.5705556 C45.0262842,13.5705556 45.0716529,13.6045972 45.0885905,13.6481944 L45.4963036,14.8844444 C45.4999331,14.8951944 45.500538,14.9053472 45.4999331,14.9160972 C45.4963036,14.9519306 45.4696873,14.9782083 45.435812,14.9877639 L45.2531276,15.028375 C45.2380047,15.0325556 45.221067,15.0343472 45.2035245,15.0325556 C45.1539214,15.0277778 45.1188363,14.9883611 45.099479,14.9549167 L44.9724467,14.7267778 C44.9724467,14.7267778 44.848439,14.501625 44.5411419,14.501625 L44.0063966,14.501625 C43.8975118,14.501625 43.8085892,14.5792639 43.8085892,14.679 L43.8085892,16.7179167 C43.8085892,16.8152639 43.8932774,16.8946944 44.0021622,16.8946944 L45.3964925,16.8946944 C45.3964925,16.8946944 45.7576271,16.90425 45.9772115,16.6068333 L46.138119,16.3948194 C46.1653402,16.3589861 46.2010302,16.3255417 46.2518431,16.3255417 L46.4829209,16.3255417 C46.5313141,16.3255417 46.5724484,16.3631667 46.5724484,16.4091528 C46.5724484,16.4210972 46.5700287,16.4306528 46.5651894,16.4414028 L46.2627316,17.16225 C46.2222023,17.2685556 46.1084781,17.3414167 45.9766066,17.3414167 L42.1384174,17.3414167 C42.0882094,17.3414167 42.04768,17.3014028 42.04768,17.2542222 L42.04768,17.0451944 C42.04768,16.9884583 42.0960733,16.941875 42.1547501,16.9347083 L42.4390604,16.8940972 C42.5866598,16.8743889 42.6991741,16.7567361 42.6991741,16.6175833 L42.6991741,13.2779167 C42.6991741,13.1381667 42.5866598,13.0211111 42.4390604,13.0014028 L42.1547501,12.9619861 C42.0960733,12.9560139 42.0488899,12.9082361 42.0488899,12.8526944 L42.0488899,12.6436667 C42.0488899,12.5982778 42.0888143,12.5469167 42.1396272,12.5469167 L43.4039007,12.5469167 L43.3996663,12.5457222 Z" id="path28"></path>
                    <path d="M60.736546,15.4135833 C60.736546,15.4135833 60.6240317,16.8958889 61.9342788,16.8958889 C63.115074,16.8958889 63.115074,15.5700556 63.115074,15.5700556 L63.115074,13.3018056 C63.115074,13.1620556 63.0606316,13.0461944 62.9130322,13.0252917 L62.6892134,12.9852778 C62.6287219,12.9781111 62.5821434,12.9315278 62.5821434,12.8741944 L62.5821434,12.6663611 C62.5821434,12.6185833 62.6226727,12.566625 62.6728807,12.566625 L64.046039,12.566625 C64.0956421,12.566625 64.1367763,12.6179861 64.1367763,12.6645694 L64.1367763,12.8718056 C64.1367763,12.9297361 64.0883831,12.9763194 64.0297063,12.9834861 L63.8034679,13.0229028 C63.6564734,13.0432083 63.6026359,13.1590694 63.6026359,13.2988194 L63.6026359,15.4088056 C63.6111047,15.6614306 63.5826737,17.3330556 61.746755,17.3330556 C59.4934446,17.3330556 59.6150326,15.426125 59.6150326,15.426125 L59.6150326,13.276125 C59.6150326,13.1357778 59.5121969,13.0193194 59.3645976,12.9990139 L59.0802872,12.9595972 C59.0197957,12.9524306 58.974427,12.9058472 58.974427,12.8497083 L58.974427,12.6388889 C58.974427,12.5940972 59.0143514,12.5433333 59.0651644,12.5433333 L61.1745049,12.5433333 C61.2259227,12.5433333 61.2652422,12.5940972 61.2652422,12.6388889 L61.2652422,12.8497083 C61.2652422,12.9058472 61.2180588,12.9524306 61.1581722,12.9595972 L60.9343534,12.9990139 C60.786754,13.0187222 60.7329165,13.136375 60.7329165,13.2755278 L60.7329165,15.4076111 L60.736546,15.4135833 Z" id="path30"></path>
                    <path d="M66.3332247,13.2803056 C66.3332247,13.1405556 66.4463439,13.0246944 66.5933384,13.0037917 L66.8752291,12.9679583 C66.9357206,12.959 66.9841139,12.9124167 66.9841139,12.8544861 L66.9841139,12.6454583 C66.9841139,12.6000694 66.9429796,12.5487083 66.8933765,12.5487083 L64.6636578,12.5487083 C64.6134498,12.5487083 64.5729205,12.6000694 64.5729205,12.6466528 L64.5729205,12.8556806 C64.5729205,12.9130139 64.6213137,12.9595972 64.6799905,12.9679583 L64.9643008,13.0061806 C65.1119002,13.0276806 65.2244145,13.1435417 65.2244145,13.2832917 L65.2244145,16.6241528 C65.2244145,16.7639028 65.1119002,16.8797639 64.9643008,16.9006667 L64.6799905,16.9424722 C64.6207088,16.9484444 64.5735254,16.9944306 64.5735254,17.0517639 L64.5735254,17.2607917 C64.5735254,17.3061806 64.6134498,17.3473889 64.6642627,17.3473889 L68.0687274,17.3473889 C68.200599,17.3473889 68.3131133,17.2745278 68.3560623,17.1682222 L68.6585201,16.447375 C68.6645693,16.4378194 68.6669889,16.4264722 68.6669889,16.4145278 C68.6669889,16.3697361 68.6264596,16.3333056 68.5762516,16.3333056 L68.3463837,16.3333056 C68.2955708,16.3333056 68.2598808,16.3655556 68.2326596,16.4013889 L68.0735668,16.614 C67.8533775,16.9114167 67.491638,16.9018611 67.491638,16.9018611 L66.5298223,16.9018611 C66.4209375,16.9018611 66.3362493,16.8242222 66.3362493,16.7244861 L66.3362493,13.2844861 L66.3332247,13.2803056 Z" id="path32"></path>
                    <path d="M70.9711123,13.1226389 C70.9711123,13.0240972 71.0558004,12.9458611 71.1646852,12.9458611 L71.7308862,12.9458611 C71.7308862,12.9458611 72.0920208,12.9840833 72.312815,13.2820972 L72.4719077,13.4941111 C72.4991289,13.5299444 72.534819,13.5627917 72.5850269,13.5627917 L72.8161047,13.5627917 C72.8657078,13.5627917 72.906842,13.5251667 72.906842,13.4791806 C72.906842,13.4672361 72.9038174,13.4576806 72.8983732,13.4469306 L72.5977302,12.7272778 C72.5553861,12.6197778 72.441662,12.5481111 72.3097904,12.5481111 L68.523019,12.5481111 C68.3899376,12.5481111 68.2786331,12.6197778 68.2350792,12.7272778 L67.9326214,13.4469306 C67.9308067,13.4576806 67.9265723,13.4678333 67.9265723,13.4797778 C67.9265723,13.5251667 67.9689164,13.5633889 68.0173096,13.5633889 L68.2471775,13.5633889 C68.2998052,13.5633889 68.3354952,13.5299444 68.3621115,13.4941111 L68.5212043,13.2820972 C68.7426034,12.9846806 69.1043429,12.9458611 69.1043429,12.9458611 L69.6687291,12.9458611 C69.7776139,12.9458611 69.862302,13.0235 69.862302,13.1220417 L69.862302,16.6098194 C69.862302,16.7471806 69.7491828,16.866625 69.6009785,16.8845417 L69.318483,16.9263472 C69.2604111,16.9323194 69.2132277,16.9777083 69.2132277,17.0350417 L69.2132277,17.2440694 C69.2132277,17.2906528 69.2525472,17.3420139 69.303965,17.3420139 L71.5312641,17.3420139 C71.581472,17.3420139 71.6220014,17.2906528 71.6220014,17.2440694 L71.6220014,17.0350417 C71.6220014,16.9777083 71.574818,16.931125 71.5155363,16.9251528 L71.2336456,16.8833472 C71.0854413,16.8642361 70.9723221,16.7459861 70.9723221,16.6074306 L70.9723221,13.1196528 L70.9711123,13.1226389 Z" id="path34"></path>
                    <path d="M12.8605046,16.9347083 L12.7746066,16.9048472 C12.7746066,16.9048472 12.5411092,16.8540833 12.3814115,16.4855972 L11.0372892,12.7410139 C11.0372892,12.7410139 10.9786124,12.5499028 10.7396707,12.5499028 L9.79963195,12.5499028 C9.56008539,12.5499028 9.5020135,12.7410139 9.5020135,12.7410139 L8.01997039,16.4873889 C7.8687415,16.8815556 7.56386407,16.9102222 7.56386407,16.9102222 L7.42473349,16.9376944 C7.37029109,16.9496389 7.33036666,16.9938333 7.33036666,17.0463889 L7.33036666,17.2595972 C7.33036666,17.3049861 7.370896,17.3414167 7.421104,17.3414167 L8.92008473,17.3414167 C8.96968781,17.3414167 9.01263681,17.3055833 9.01263681,17.2595972 L9.01263681,17.0445972 C9.01263681,16.9908472 8.9733173,16.94725 8.92189948,16.9353056 L8.87653081,16.9233611 C8.74042481,16.8946944 8.63758917,16.7830139 8.63758917,16.6510278 C8.63758917,16.6169861 8.64363833,16.5853333 8.65573664,16.5566667 L8.77369517,16.2580556 C8.77369517,16.2580556 8.82450808,16.1236806 9.00961224,16.1236806 L10.8388769,16.1236806 C11.0227712,16.1236806 11.0747939,16.25925 11.0747939,16.25925 L11.1794443,16.5578611 C11.1915426,16.5877222 11.1975918,16.6187778 11.1975918,16.6522222 C11.1975918,16.7836111 11.0947561,16.8958889 10.9574403,16.9239583 L10.9150962,16.9359028 C10.8606538,16.9478472 10.8243589,16.9914444 10.8243589,17.0434028 L10.8243589,17.2595972 C10.8243589,17.3049861 10.866703,17.3414167 10.9163061,17.3414167 L12.8592948,17.3414167 C12.9101077,17.3414167 12.9500321,17.3037917 12.9500321,17.2578056 L12.9500321,17.0451944 C12.951242,16.9926389 12.9107126,16.9484444 12.8568751,16.9365 L12.8605046,16.9347083 Z M10.7033758,15.6835278 L9.18382791,15.6835278 C9.00235325,15.6835278 9.06163497,15.539 9.06163497,15.539 L9.84379078,13.5586111 C9.84379078,13.5586111 9.89823318,13.3854167 9.98534102,13.3854167 C10.0718439,13.3854167 10.1293109,13.5586111 10.1293109,13.5586111 L10.823754,15.539 C10.8249638,15.539 10.8842455,15.6835278 10.7027709,15.6835278 L10.7033758,15.6835278 Z" id="path38"></path>
                    <path d="M34.2158384,16.9347083 L34.0404129,16.915 C33.960564,16.8911111 33.6429834,16.9388889 33.3550436,16.4252778 C32.7803738,15.3980556 32.4537194,15.1113889 32.3430198,15.006875 C32.2329252,14.9017639 32.3732656,14.8736944 32.3732656,14.8736944 C33.7204125,14.5511944 33.6375391,13.6780556 33.6375391,13.6780556 C33.6375391,12.5421389 32.170014,12.5493056 32.170014,12.5493056 L28.7758328,12.5493056 C28.724415,12.5493056 28.6838857,12.6000694 28.6838857,12.6448611 L28.6838857,12.8556806 C28.6838857,12.9118194 28.7310691,12.9584028 28.7915606,12.9655694 L29.0740562,13.0049861 C29.2216556,13.0246944 29.3341699,13.1244306 29.3341699,13.2641806 L29.3341699,16.6175833 C29.3341699,16.7573333 29.2216556,16.8731944 29.0740562,16.8940972 L28.7915606,16.9323194 C28.7310691,16.9382917 28.6838857,16.9860694 28.6838857,17.0416111 L28.6838857,17.2518333 C28.6838857,17.2984167 28.724415,17.3372361 28.7758328,17.3372361 L31.0055515,17.3372361 C31.0575743,17.3372361 31.0974987,17.2984167 31.0974987,17.2512361 L31.0974987,17.0410139 C31.0974987,16.984875 31.0503153,16.9382917 30.9898237,16.9299306 L30.7073282,16.8911111 C30.558519,16.8708056 30.4447948,16.75375 30.4447948,16.6151944 L30.4417703,15.2606944 C30.4417703,15.1603611 30.5312978,15.0833194 30.6401826,15.0833194 L30.9583681,15.0833194 C30.9583681,15.0833194 31.460448,15.0576389 31.8137187,15.684125 C31.8137187,15.684125 32.0738324,16.1481667 32.3508837,16.6850694 C32.6291449,17.2225694 32.8251375,17.3360417 33.652662,17.3360417 L34.2212826,17.3360417 C34.2708857,17.3360417 34.31202,17.2990139 34.31202,17.253625 L34.31202,17.0398194 C34.31202,16.9872639 34.2714906,16.9430694 34.218258,16.931125 L34.2158384,16.9347083 Z M31.5723574,14.641375 L30.6389727,14.641375 C30.5300879,14.641375 30.4411653,14.5649306 30.4411653,14.4657917 L30.4411653,13.1166667 C30.4411653,13.0193194 30.5270633,12.9398889 30.6359481,12.9398889 L31.5735673,12.9398889 C31.5735673,12.9398889 32.5027175,12.9458611 32.5027175,13.7998889 C32.5027175,14.6336111 31.5747771,14.6419722 31.5747771,14.6419722 L31.5723574,14.641375 Z" id="path40"></path>
                    <path d="M57.1137068,12.7428056 C56.7906819,12.5851389 56.4253129,12.4979444 56.0411915,12.4979444 C54.6861807,12.4979444 53.5864442,13.5884722 53.5864442,14.9346111 C53.5864442,16.2795556 54.6849708,17.3712778 56.0411915,17.3712778 C57.3974122,17.3712778 58.4971487,16.2795556 58.4971487,14.9346111 C58.4959388,13.9700972 57.9333674,13.1381667 57.1137068,12.7428056 Z M56.1034978,16.958 C55.2336292,16.9789028 54.9009257,16.1798194 54.8634209,14.9083333 C54.8253113,13.6016111 55.1126461,12.8228333 55.9794901,12.8019306 C56.8408899,12.7810278 57.1832721,13.5436806 57.219567,14.8515972 C57.2594914,16.1451806 56.9896991,16.9382917 56.1047076,16.958 L56.1034978,16.958 Z" id="path42"></path>
                    <path d="M78.7581902,16.941875 L78.5815548,16.9239583 C78.5029158,16.9000694 78.1853351,16.9466528 77.8980002,16.4324444 C77.3221206,15.4052222 76.9966761,15.1185556 76.8859765,15.0140417 C76.7770917,14.9089306 76.9150125,14.8808611 76.9150125,14.8808611 C78.2627643,14.5583611 78.179286,13.6864167 78.179286,13.6864167 C78.179286,12.5493056 76.7111559,12.555875 76.7111559,12.555875 L73.3157649,12.555875 C73.2643471,12.555875 73.2238178,12.609625 73.2238178,12.6556111 L73.2238178,12.8634444 C73.2238178,12.9207778 73.2710012,12.9673611 73.3327026,12.9745278 L73.6139883,13.0151389 C73.7615877,13.0348472 73.8759167,13.1315972 73.8759167,13.2719444 L73.8759167,16.6253472 C73.8759167,16.7662917 73.7621926,16.8821528 73.6139883,16.9018611 L73.3320977,16.9424722 C73.2716061,16.9496389 73.2232129,16.9962222 73.2232129,17.0535556 L73.2232129,17.2601944 C73.2232129,17.3067778 73.2643471,17.3473889 73.3157649,17.3473889 L75.5454837,17.3473889 C75.5975064,17.3473889 75.636221,17.3067778 75.636221,17.2601944 L75.636221,17.0523611 C75.636221,16.9944306 75.5908523,16.9478472 75.5297559,16.9406806 L75.2478652,16.9012639 C75.0996609,16.8815556 74.9859368,16.7656944 74.9859368,16.62475 L74.9847269,15.2720417 C74.9847269,15.1729028 75.0730446,15.092875 75.1819294,15.092875 L75.5007199,15.092875 C75.5007199,15.092875 76.0027998,15.0701806 76.3554656,15.6960694 C76.3554656,15.6960694 76.6155793,16.1595139 76.8938404,16.6976111 C77.1702868,17.2351111 77.3674893,17.3485833 78.1944089,17.3485833 L78.7630295,17.3485833 C78.8126326,17.3485833 78.8537668,17.3115556 78.8537668,17.2673611 L78.8537668,17.0541528 C78.8549766,17.0004028 78.8138424,16.9550139 78.7600049,16.9430694 L78.7581902,16.941875 Z M76.115919,14.6485417 L75.1807196,14.6485417 C75.0718348,14.6485417 74.9810975,14.5726944 74.9810975,14.4735556 L74.9810975,13.1238333 C74.9810975,13.0246944 75.0676004,12.9464583 75.1764852,12.9464583 L76.1141043,12.9464583 C76.1141043,12.9464583 77.0426497,12.9512361 77.0426497,13.80825 C77.0426497,14.6407778 76.1134994,14.6485417 76.1134994,14.6485417 L76.115919,14.6485417 Z" id="path44"></path>
                    <path d="M36.976673,14.5703056 C36.976673,14.5237222 36.9373535,14.4884861 36.8859356,14.4884861 L34.7403002,14.4884861 C34.6900922,14.4884861 34.6495628,14.5243194 34.6495628,14.5703056 L34.6495628,15.0803333 C34.6495628,15.1269167 34.6900922,15.1639444 34.7403002,15.1639444 L36.8865405,15.1639444 C36.9373535,15.1639444 36.9772779,15.1269167 36.9772779,15.0803333 L36.9772779,14.5703056 L36.976673,14.5703056 Z" id="path46"></path>
                    <path d="M52.4764242,15.7193611 C51.653739,16.9078333 50.4342293,16.8564722 50.4342293,16.8564722 C49.1076494,16.8923056 48.6243219,15.5348194 48.5686697,13.8464722 C48.5130175,12.158125 48.9158912,10.77675 50.2309776,10.7409167 C50.2309776,10.7409167 51.4843627,10.5707083 52.3016036,11.8206944 C52.3239854,11.8565278 52.356046,11.8953472 52.4092785,11.8983333 C52.4256113,11.9013194 52.4413391,11.8983333 52.4576718,11.8953472 L52.778277,11.835625 C52.8121523,11.8260694 52.8375587,11.7997917 52.8411882,11.7639583 C52.8436079,11.7538056 52.8411882,11.7436528 52.8381637,11.7329028 L52.398995,10.3963194 C52.3826623,10.3509306 52.3360838,10.3186806 52.2828512,10.3186806 L52.1255731,10.3186806 C52.0711307,10.3186806 52.0257621,10.3509306 52.0094294,10.3963194 C51.9586164,10.8221389 51.6162342,10.6041528 51.6162342,10.6041528 C51.1964229,10.3939306 50.7270084,10.2756806 50.2340022,10.2756806 C48.4253047,10.2756806 46.9577796,11.8642917 46.9577796,13.824375 C46.9577796,15.7832639 48.4253047,17.3736667 50.2340022,17.3736667 C50.779636,17.3736667 51.2998634,17.2255556 51.7535501,16.96875 C51.7535501,16.96875 52.1346469,16.7155278 52.1848549,17.1419444 C52.2011876,17.1867361 52.2471612,17.2195833 52.2997888,17.2195833 L52.4594865,17.2195833 C52.5139289,17.2195833 52.5580878,17.1867361 52.5744205,17.1419444 L53.0135892,15.8059583 C53.0166137,15.7964028 53.0172187,15.7850556 53.0166137,15.7731111 C53.0141941,15.7390694 52.986368,15.7121944 52.9537025,15.7032361 L52.6330973,15.6435139 C52.6167646,15.6417222 52.6010368,15.6375417 52.584704,15.6417222 C52.5326813,15.6476944 52.498806,15.6865139 52.477634,15.7211528 L52.4764242,15.7193611 Z" id="path48"></path>
                    <path d="M2.12688308,16.9406806 C1.59818689,16.6271389 1.5443494,16.3482361 1.65504895,16.1744444 C1.75183544,15.9910972 2.02223269,15.8979306 2.56242228,16.189375 C3.02094827,16.436625 3.45043831,16.9239583 3.68635538,17.2225694 C3.4032549,17.2416806 2.65678911,17.2548194 2.12688308,16.9406806 Z M82.0924847,17.3408194 C83.3325616,17.3348472 84.1225813,17.2733333 84.890824,16.780625 C85.8187645,16.2192361 86.1393697,15.3652083 85.8187645,14.8175556 C85.4969494,14.2705 84.6730544,14.2215278 83.8225432,14.765 C83.8225432,14.765 82.8788749,15.3144444 81.7398189,16.8869306 L81.7289304,16.898875 L80.9994023,16.898875 C80.8905175,16.898875 80.8058293,16.8212361 80.8058293,16.7220972 L80.8058293,14.6831806 C80.8058293,14.5840417 80.8935421,14.5058056 81.001217,14.5058056 L81.5359624,14.5058056 C81.8444693,14.5058056 81.968477,14.7309583 81.968477,14.7309583 L82.0942994,14.9579028 C82.1154715,14.9925417 82.1487418,15.0319583 82.1995547,15.0367361 C82.2164924,15.039125 82.2340349,15.0367361 82.247948,15.0331528 L82.4312374,14.9913472 C82.4675323,14.9811944 82.4917289,14.953125 82.4953584,14.9196806 C82.4965683,14.9089306 82.4953584,14.8975833 82.4923339,14.8868333 L82.0870404,13.6493889 C82.0713126,13.6051944 82.0235243,13.57175 81.9702917,13.57175 L81.8130137,13.57175 C81.7585713,13.57175 81.7119928,13.6051944 81.6968699,13.6493889 L81.6291194,13.8548333 C81.5928244,13.9730833 81.4821249,14.0638611 81.2927863,14.0638611 L81.0048465,14.0638611 C80.8959617,14.0638611 80.8076441,13.9826389 80.8076441,13.8846944 L80.8076441,13.1357778 C80.8076441,13.0366389 80.8935421,12.9584028 81.001217,12.9584028 L82.2425037,12.9584028 C82.2425037,12.9584028 82.577022,12.9404861 82.8074949,13.2701528 L82.9224288,13.4296111 C82.94965,13.4654444 82.98534,13.4970972 83.0361529,13.4970972 L83.2660209,13.4970972 C83.3156239,13.4970972 83.3567582,13.4612639 83.3567582,13.4134861 C83.3567582,13.4015417 83.3537336,13.3919861 83.3482894,13.3824306 L83.1063232,12.7517639 C83.0639791,12.6442639 82.9520697,12.5487083 82.820803,12.5487083 L79.1380771,12.5487083 C79.0872642,12.5487083 79.0473398,12.598875 79.0473398,12.6442639 L79.0473398,12.8544861 C79.0473398,12.910625 79.0939183,12.9572083 79.1538049,12.964375 L79.4369054,13.0037917 C79.5851097,13.0246944 79.6970191,13.1411528 79.6970191,13.2803056 L79.6970191,16.6187778 C79.6970191,16.7603194 79.5851097,16.8755833 79.4369054,16.8958889 L79.1538049,16.9376944 C79.0933134,16.9436667 79.0467349,16.9914444 79.0467349,17.0475833 L79.0467349,17.2554167 C79.0467349,17.302 79.0872642,17.3426111 79.1374722,17.3426111 L80.9691565,17.3366389 L81.4137694,17.3366389 C80.3267362,18.764 79.2094572,19.5762222 77.5302116,19.7213472 L8.14639774,19.7213472 C6.45505386,19.5762222 5.744883,19.0572361 4.70684791,17.6549583 L4.69293485,17.6430139 C6.9855648,17.1556806 7.18276727,15.4547917 7.29709631,14.2484028 C7.39267296,13.2390972 7.36726651,12.0088194 7.36726651,12.0088194 L7.36726651,11.3255972 C7.36726651,11.1727083 7.48099064,11.0466944 7.62919495,11.0257917 L7.91169051,10.9827917 C7.97218206,10.9732361 8.02057531,10.9230694 8.02057531,10.8633472 L8.02057531,10.5539861 C8.02057531,10.5038194 7.97944105,10.4632083 7.92983797,10.4632083 L5.22647037,10.4632083 C5.17505255,10.4632083 5.13452321,10.5038194 5.13452321,10.5539861 L5.13452321,10.86275 C5.13452321,10.9236667 5.18170662,10.9738333 5.24219818,10.9821944 L5.52469374,11.0257917 C5.67229313,11.0466944 5.78662217,11.1727083 5.78662217,11.3255972 L5.78662217,14.3164861 C5.76847471,14.8145694 5.86102679,16.0245417 5.15025101,16.6755139 C4.90949462,16.8964861 4.60582702,17.0338472 4.30639382,17.1144722 L4.30034466,17.0965556 C3.20544751,15.6333611 2.32227081,15.1173611 2.32227081,15.1173611 C1.46933988,14.5738889 0.646654725,14.6216667 0.326049483,15.1693194 C0.00544423997,15.7169722 0.32362982,16.5704028 1.25278011,17.1341806 C1.99198691,17.608375 3.14798053,17.7994861 4.06563743,17.7343889 L4.07773574,17.7391667 C4.07773574,17.7391667 4.82783102,18.7365278 5.13210355,19.1527917 C5.43577115,19.5678611 6.08787012,20.7814167 9.00961224,20.7814167 L76.6125547,20.7814167 C79.5548639,20.7814167 80.657625,19.2668611 80.9618975,18.8523889 C81.1978146,18.5269028 82.0930896,17.3372361 82.0930896,17.3372361 L82.0924847,17.3408194 Z M82.4312374,16.8917083 C82.670784,16.5930972 83.0869659,16.1308472 83.529764,15.8913611 C84.0717684,15.5987222 84.3415607,15.6930833 84.4371374,15.8764306 C84.5496517,16.049625 84.4310882,16.4109444 83.9108608,16.6384861 C83.9120707,16.6384861 83.4632233,16.8696111 82.4306325,16.8929028 L82.4312374,16.8917083 Z" id="path50"></path>
                </g>
            </g>
        </g>
    </g>
</svg>