<svg width="59" height="47" viewBox="0 0 59 47" xmlns="http://www.w3.org/2000/svg"><title>Logo customer</title><g fill="#211F2D" fill-rule="evenodd"><path d="M53.892 40.833c-.377.33-.522.483-.725 1.529h4.63l-.166 1.016h-4.634c-.162 1.103-.066 1.254.199 1.593.24.296.682.549 1.352.549h3.387l-.193 1.144h-3.384c-1.469 0-2.358-.698-2.695-1.355-.23-.445-.308-.595-.003-2.408.3-1.809.43-1.963.806-2.407.556-.658 1.68-1.355 3.15-1.355H59l-.192 1.143h-3.386c-.666 0-1.195.254-1.53.551zm-7.042-.671h-2.554l.168-1.014h6.527l-.172 1.014h-2.558l-1.089 6.503h-1.411l1.089-6.503zm-10.236 4.676c.631.454 1.525.75 2.522.75 1.15 0 1.914-.425 2.021-1.045.086-.526-.225-.931-1.05-1.013-.412-.043-.732-.085-1.206-.138-1.58-.182-2.305-1.024-2.122-2.111.215-1.29 1.479-2.197 3.408-2.197a5.66 5.66 0 0 1 2.893.782l-.943.94a4.53 4.53 0 0 0-2.209-.581c-.863 0-1.62.359-1.74 1.078-.07.421.24.843 1.163.959.244.03.59.074 1.029.116 1.716.168 2.366 1.142 2.191 2.165-.23 1.384-1.636 2.182-3.641 2.182-1.374 0-2.525-.335-3.39-1.033l1.074-.854zm-4.545-5.753c1.468 0 2.36.696 2.695 1.35.228.444.297.666-.006 2.472-.305 1.807-.444 2.026-.821 2.47-.556.654-1.682 1.348-3.15 1.348h-.633c-1.47 0-2.363-.694-2.698-1.349-.226-.443-.295-.662.007-2.47.305-1.805.446-2.027.822-2.47.555-.655 1.679-1.351 3.146-1.351h.638zm.445 5.954c.428-.38.57-.592.83-2.132.257-1.543.187-1.756-.117-2.133-.24-.296-.68-.55-1.348-.55h-.637c-.67 0-1.197.254-1.532.55-.432.377-.573.59-.832 2.133-.258 1.54-.187 1.751.117 2.132.238.295.68.549 1.348.549h.634a2.33 2.33 0 0 0 1.537-.55zm-12.321-5.891h3.378c.734 0 1.364.075 2.007.528.507.347.845.982.711 1.793-.18 1.067-1.388 2.263-3.302 2.263H20.84l-.49 2.933h-1.416l1.26-7.517zm.825 3.504h2.099c1.047 0 1.66-.62 1.76-1.213.086-.508-.112-.815-.433-1.004-.287-.169-.568-.21-.974-.21h-2.045l-.407 2.427zm-6.604-2.217c.23.444.296.666-.007 2.472l-.629 3.756h-1.415l.504-3.003H8.964l-.506 3.003h-1.41l.626-3.756c.3-1.806.444-2.028.821-2.472.554-.653 1.678-1.35 3.148-1.35h.078c1.47 0 2.358.697 2.693 1.35zm-4.496.34c-.404.354-.553.565-.784 1.871h3.9c.208-1.306.128-1.517-.156-1.872-.237-.296-.68-.55-1.349-.55h-.077c-.668 0-1.197.254-1.534.55zM.212 45.036c.13-.757.987-5.897.987-5.897h1.417s-.813 4.923-.938 5.55c-.157.792.041.828.615.828h3.792l-.183 1.147H1.271c-1.181 0-1.17-.99-1.059-1.628zM10.399 19.234c0-2.099.617-4.175 1.6-6.067a18.335 18.335 0 0 1 2.22-3.299c.423-.508.883-1.005 1.374-1.488 1.724-1.708 3.834-3.24 6.243-4.493a30.442 30.442 0 0 1 3.308-1.46c2.672-.984 5.353-1.54 7.91-1.691.5-.03 1.007-.047 1.516-.047 3.83 0 7.813.898 10.87 3.288 2.356 1.857 3.92 4.566 4.075 7.616.009.17.014.34.014.51v.074c-.01 2.749-1.064 5.427-2.57 7.682-.208.31-.425.614-.65.908A21.295 21.295 0 0 1 44.338 23a25.264 25.264 0 0 1-5.162 3.898 28.55 28.55 0 0 1-4.39 2.051c-2.965 1.102-6.133 1.73-9.298 1.74h-.146a23.963 23.963 0 0 1-1.433-.047 21.107 21.107 0 0 1-3.202-.444c-2.396-.532-4.524-1.475-6.217-2.796a11.398 11.398 0 0 1-2.04-2.055 10.025 10.025 0 0 1-2.05-6.113zm3.715 2.375C26.84 18.35 35.28 15.92 46.598 13.753c.347-.052.556-.202-.003-.21l-19.606.36c.077.807-.773 1.968-2.549 3.082-.912.576-2.99 1.69-10.348 4.494-.097.042-.05.145.022.13zm20.693-4.472c.056-.06.054-.12-.041-.088L17.2 21.535c-.036.014-.062.07.025.07l13.61-.442c.835-.034 1.43-.701 1.742-1.127l2.23-2.9zm3.047-7.367c-.925-.013-15.599.053-17.307.062-.271-.003-.467-.003-.132.131 1.783.644 4.73 1.789 6.273 3.189l11.272-.125c.32-.398.44-.561.773-1.02.814-1.103.867-2.213-.879-2.237z"/></g></svg>