<svg width="122" height="34" viewBox="0 0 122 34" xmlns="http://www.w3.org/2000/svg"><title>La_Poste</title><g fill="#FFF" fill-rule="evenodd"><path d="M61.42 14.9c-.43.358-.597.524-.828 1.66h5.293l-.19 1.104h-5.297c-.186 1.198-.076 1.361.227 1.73.275.321.78.596 1.545.596h3.873l-.222 1.243h-3.867c-1.68 0-2.697-.758-3.082-1.472-.262-.483-.351-.647-.003-2.615.343-1.965.492-2.132.922-2.615.635-.715 1.92-1.471 3.6-1.471h3.869l-.219 1.24h-3.872c-.76 0-1.365.277-1.749.6zm-8.05-.73h-2.92l.192-1.1h7.462l-.196 1.1h-2.925l-1.244 7.064h-1.614l1.245-7.064zM41.67 19.25c.721.493 1.743.815 2.883.815 1.315 0 2.188-.461 2.31-1.135.099-.572-.256-1.011-1.2-1.1-.47-.047-.837-.093-1.379-.15-1.806-.198-2.635-1.112-2.425-2.293.245-1.4 1.69-2.386 3.896-2.386 1.314 0 2.421.356 3.307.85l-1.079 1.02a5.39 5.39 0 0 0-2.524-.631c-.987 0-1.852.39-1.99 1.17-.08.458.275.916 1.33 1.042.278.033.673.08 1.176.126 1.961.183 2.704 1.24 2.505 2.352-.264 1.503-1.87 2.37-4.163 2.37-1.57 0-2.886-.364-3.874-1.122l1.227-.928zM36.473 13c1.679 0 2.698.757 3.081 1.467.261.483.34.724-.007 2.685-.348 1.962-.508 2.2-.938 2.682-.637.711-1.923 1.465-3.6 1.465h-.726c-1.68 0-2.7-.754-3.084-1.465-.258-.482-.337-.72.009-2.682.348-1.961.51-2.202.939-2.685.635-.71 1.92-1.467 3.597-1.467h.729zm.508 6.467c.49-.413.652-.643.949-2.315.295-1.676.215-1.907-.133-2.317-.274-.322-.777-.597-1.541-.597h-.729c-.766 0-1.368.275-1.751.597-.493.41-.655.641-.95 2.317-.295 1.672-.214 1.902.133 2.315.272.321.777.597 1.54.597h.726c.766 0 1.37-.276 1.756-.597zM22.896 13.07h3.862c.84 0 1.56.081 2.295.573.579.377.965 1.067.813 1.949-.207 1.158-1.587 2.457-3.775 2.457h-2.455l-.561 3.186h-1.619l1.44-8.165zm.944 3.806h2.399c1.197 0 1.898-.673 2.012-1.318.098-.55-.128-.884-.495-1.09-.327-.183-.649-.229-1.113-.229h-2.338l-.465 2.637zm-7.55-2.408c.262.483.339.724-.008 2.685l-.719 4.08h-1.618l.576-3.262H10.06l-.578 3.261H7.869l.716-4.08c.343-1.96.508-2.201.939-2.684.634-.71 1.918-1.467 3.598-1.467h.09c1.68 0 2.695.757 3.078 1.467zm-5.14.368c-.46.385-.632.614-.896 2.034h4.46c.236-1.42.145-1.649-.18-2.034-.271-.322-.777-.597-1.541-.597h-.088c-.765 0-1.369.275-1.754.597zM.056 19.465c.148-.822 1.128-6.405 1.128-6.405h1.62s-.93 5.348-1.072 6.028c-.18.861.047.9.703.9h4.334l-.208 1.246H1.265c-1.35 0-1.338-1.076-1.21-1.768zM77 20.912c0-2.366.705-4.707 1.829-6.841a20.662 20.662 0 0 1 2.536-3.72 23.006 23.006 0 0 1 1.57-1.678c1.97-1.927 4.382-3.655 7.134-5.067a35.016 35.016 0 0 1 3.78-1.646C96.9.85 99.966.223 102.887.052A29.03 29.03 0 0 1 104.62 0c4.378 0 8.929 1.013 12.421 3.707 2.693 2.094 4.479 5.15 4.657 8.589.01.192.015.384.016.576v.082c-.01 3.1-1.216 6.12-2.938 8.664-.237.35-.484.692-.74 1.024a24.118 24.118 0 0 1-2.255 2.517 28.836 28.836 0 0 1-5.898 4.396 32.823 32.823 0 0 1-5.016 2.314c-3.389 1.242-7.008 1.951-10.625 1.962h-.167a27.743 27.743 0 0 1-1.637-.053 24.42 24.42 0 0 1-3.66-.502c-2.738-.6-5.169-1.663-7.104-3.152a12.938 12.938 0 0 1-2.33-2.318 11.298 11.298 0 0 1-1.656-2.996A11.212 11.212 0 0 1 77 20.912zm4.246 2.679c14.54-3.674 24.184-6.414 37.118-8.86.397-.058.635-.226-.003-.235l-22.404.406c.088.91-.883 2.218-2.913 3.475-1.041.649-3.417 1.904-11.824 5.068-.111.046-.058.163.026.146zm23.645-5.044c.064-.066.06-.134-.048-.098l-20.071 5.059c-.042.015-.071.08.028.078l15.55-.498c.956-.038 1.637-.79 1.993-1.27l2.548-3.27zm3.481-8.307c-1.057-.015-17.824.06-19.777.07-.309-.003-.533-.003-.15.148 2.038.726 5.406 2.017 7.168 3.596l12.88-.14c.365-.45.502-.634.884-1.15.93-1.245.99-2.497-1.005-2.524z"/></g></svg>