<svg width="59" height="47" viewBox="0 0 59 47" xmlns="http://www.w3.org/2000/svg"><title>La poste</title><g fill="#EDAD6F" fill-rule="evenodd"><path d="M53.892 40.833c-.377.33-.522.483-.725 1.529h4.63l-.166 1.016h-4.634c-.162 1.103-.066 1.254.199 1.593.24.296.682.549 1.352.549h3.387l-.193 1.144h-3.384c-1.469 0-2.358-.698-2.695-1.355-.23-.445-.308-.595-.003-2.408.3-1.809.43-1.963.806-2.407.556-.658 1.68-1.355 3.15-1.355H59l-.192 1.143h-3.386c-.666 0-1.195.254-1.53.551zm-7.042-.671h-2.554l.168-1.014h6.527l-.172 1.014h-2.558l-1.089 6.503h-1.411l1.089-6.503zm-10.236 4.676c.631.454 1.525.75 2.522.75 1.15 0 1.914-.425 2.021-1.045.086-.526-.225-.931-1.05-1.013-.412-.043-.732-.085-1.206-.138-1.58-.182-2.305-1.024-2.122-2.111.215-1.29 1.479-2.197 3.408-2.197a5.66 5.66 0 0 1 2.893.782l-.943.94a4.53 4.53 0 0 0-2.209-.581c-.863 0-1.62.359-1.74 1.078-.07.421.24.843 1.163.959.244.03.59.074 1.029.116 1.716.168 2.366 1.142 2.191 2.165-.23 1.384-1.636 2.182-3.641 2.182-1.374 0-2.525-.335-3.39-1.033l1.074-.854zm-4.545-5.753c1.468 0 2.36.696 2.695 1.35.228.444.297.666-.006 2.472-.305 1.807-.444 2.026-.821 2.47-.556.654-1.682 1.348-3.15 1.348h-.633c-1.47 0-2.363-.694-2.698-1.349-.226-.443-.295-.662.007-2.47.305-1.805.446-2.027.822-2.47.555-.655 1.679-1.351 3.146-1.351h.638zm.445 5.954c.428-.38.57-.592.83-2.132.257-1.543.187-1.756-.117-2.133-.24-.296-.68-.55-1.348-.55h-.637c-.67 0-1.197.254-1.532.55-.432.377-.573.59-.832 2.133-.258 1.54-.187 1.751.117 2.132.238.295.68.549 1.348.549h.634a2.33 2.33 0 0 0 1.537-.55zm-12.321-5.891h3.378c.734 0 1.364.075 2.007.528.507.347.845.982.711 1.793-.18 1.067-1.388 2.263-3.302 2.263H20.84l-.49 2.933h-1.416l1.26-7.517zm.825 3.504h2.099c1.047 0 1.66-.62 1.76-1.213.086-.508-.112-.815-.433-1.004-.287-.169-.568-.21-.974-.21h-2.045l-.407 2.427zm-6.604-2.217c.23.444.296.666-.007 2.472l-.629 3.756h-1.415l.504-3.003H8.964l-.506 3.003h-1.41l.626-3.756c.3-1.806.444-2.028.821-2.472.554-.653 1.678-1.35 3.148-1.35h.078c1.47 0 2.358.697 2.693 1.35zm-4.496.34c-.404.354-.553.565-.784 1.871h3.9c.208-1.306.128-1.517-.156-1.872-.237-.296-.68-.55-1.349-.55h-.077c-.668 0-1.197.254-1.534.55zM.212 45.036c.13-.757.987-5.897.987-5.897h1.417s-.813 4.923-.938 5.55c-.157.792.041.828.615.828h3.792l-.183 1.147H1.271c-1.181 0-1.17-.99-1.059-1.628zM7.041 21.842c0-2.459.722-4.891 1.875-7.108a21.482 21.482 0 0 1 2.601-3.865 23.779 23.779 0 0 1 1.61-1.743c2.02-2.002 4.492-3.798 7.314-5.265a35.666 35.666 0 0 1 3.875-1.71C27.446.998 30.59.347 33.584.169c.587-.035 1.18-.054 1.776-.054 4.489 0 9.155 1.052 12.736 3.852 2.76 2.175 4.592 5.35 4.775 8.923.01.2.015.399.016.598v.086c-.011 3.22-1.247 6.358-3.012 9a21.39 21.39 0 0 1-.76 1.065 24.95 24.95 0 0 1-2.31 2.615 29.6 29.6 0 0 1-6.049 4.567 33.449 33.449 0 0 1-5.143 2.404c-3.475 1.29-7.186 2.027-10.894 2.039h-.171c-.56-.002-1.12-.02-1.679-.055a24.73 24.73 0 0 1-3.752-.521c-2.808-.624-5.3-1.728-7.284-3.276a13.354 13.354 0 0 1-2.389-2.408 11.746 11.746 0 0 1-1.698-3.112 11.787 11.787 0 0 1-.705-4.05zm4.353 2.783c14.91-3.817 24.797-6.664 38.06-9.204.406-.061.65-.236-.004-.245l-22.971.421c.09.945-.906 2.305-2.987 3.61-1.068.675-3.504 1.98-12.124 5.266-.114.048-.06.17.026.152zm24.244-5.24c.066-.07.063-.14-.048-.103l-20.58 5.256c-.043.017-.073.083.029.081l15.944-.517c.98-.039 1.678-.821 2.043-1.32l2.612-3.397zm3.57-8.63c-1.083-.016-18.276.06-20.278.072-.317-.004-.547-.004-.154.153 2.09.754 5.543 2.096 7.35 3.736l13.207-.146c.373-.466.514-.657.905-1.194.953-1.293 1.015-2.594-1.03-2.622z"/></g></svg>