<?xml version="1.0" encoding="UTF-8"?>
<svg width="65px" height="39px" viewBox="0 0 65 39" version="1.1" xmlns="http://www.w3.org/2000/svg" xmlns:xlink="http://www.w3.org/1999/xlink">
    <!-- Generator: Sketch 48.2 (47327) - http://www.bohemiancoding.com/sketch -->
    <title>Leroy_Merlin</title>
    <desc>Created with Sketch.</desc>
    <defs></defs>
    <g id="Website-iteration-5---Desktop---Home" stroke="none" stroke-width="1" fill="none" fill-rule="evenodd" transform="translate(-236.000000, -3900.000000)">
        <g id="Testimonial-section" transform="translate(0.000000, 3444.000000)" fill="#EDAD6F" fill-rule="nonzero">
            <g id="Testimonial-block" transform="translate(188.000000, 263.000000)">
                <g id="Leroy_Merlin" transform="translate(48.000000, 193.000000)">
                    <polygon id="Shape" points="6.86319209 38.9551132 57.7368927 38.9551132 32.435 13.6058491"></polygon>
                    <polygon id="Shape" points="5.89112994 37.7085849 9.85466102 33.8347075 8.53446328 32.4781698 6.045 34.9123585 1.65951977 30.4074906 0.185084746 31.8486509"></polygon>
                    <polygon id="Shape" points="10.7246328 32.9524245 14.7858475 28.981783 13.670565 27.8371698 11.0918644 30.3574528 9.85355932 29.0855377 11.9199718 27.0656321 10.7529096 25.8680377 8.68649718 27.8868396 7.62556497 26.7974151 10.119435 24.3591792 9.00488701 23.214934 4.95652542 27.1723302"></polygon>
                    <path d="M24.0173164,14.1290377 C22.3794633,12.4468868 19.5381921,12.6481415 18.169887,13.9859151 C16.8012147,15.3236887 16.1027401,17.9911415 18.0354802,19.9760943 C20.1584463,22.1560472 22.6842655,21.3642736 24.0529379,20.0272358 C26.0708757,18.0547925 25.3525706,15.5002925 24.0173164,14.1290377 Z M22.8135311,18.8752642 C21.9075706,19.7608585 20.8,19.5206038 19.5345198,18.2207264 C18.4710169,17.1287264 18.5349153,16.0315755 19.3083051,15.2754906 C19.8400565,14.7556132 20.9200847,14.2905566 22.2050282,15.6103019 C23.6710169,17.1158491 23.7194915,17.9896698 22.8135311,18.8752642 Z" id="Shape"></path>
                    <polygon id="Shape" points="28.5853107 15.5260472 30.0836158 14.0609717 27.829548 11.7463585 26.480339 6.12226415 24.7627966 7.8014717 25.6562712 10.9921132 22.6376271 9.87840566 21.0181356 11.461217 26.1645198 13.1168774"></polygon>
                    <path d="M20.5965537,23.3437075 C20.5965537,23.3437075 16.9499435,22.0971792 16.7766102,22.1273491 C16.7204237,22.1365472 17.5599153,19.8984623 15.6738136,18.9065377 C15.6738136,18.9065377 14.2742938,18.1475094 12.8736723,19.4223679 L9.88844633,22.3698113 L15.6433333,28.1763962 L17.1658757,26.6881415 L14.0517514,23.4908774 L19.0857627,24.8205566 L20.5965537,23.3437075 Z M14.9485311,22.5464151 C14.1024294,23.3720377 13.9882203,23.4371604 13.9882203,23.4371604 C13.9882203,23.4371604 12.6617797,22.0751038 12.614774,22.0269057 C12.5677684,21.9787075 13.5633333,21.1236509 13.7201412,20.9702264 C13.7866102,20.9051038 14.4064972,20.5000189 14.9195198,21.0265189 C14.9195198,21.0265189 15.7942655,21.7193208 14.9485311,22.5464151 Z" id="Shape"></path>
                    <polygon id="Shape" points="28.1203955 7.23045283 26.7888136 5.88532075 32.6020904 0.108537736 34.5047175 2.03020755 32.4103955 6.15979245 36.6801977 4.22782075 38.5108475 6.07737736 32.6975706 11.8541604 31.2943785 10.4369151 34.3629661 7.38792453 30.1651412 9.29598113 29.2973729 8.41921698 31.2484746 4.21751887"></polygon>
                    <polygon id="Shape" points="38.2141243 17.4263774 34.1833898 13.3552925 39.9970339 7.57850943 44.0391525 11.6617358 42.8647458 12.8287925 40.3323164 10.2709811 39.385226 11.2117642 41.3825989 13.2294623 40.1597175 14.4443491 38.1744633 12.4387925 36.9038418 13.7011415 39.4124011 16.2350377"></polygon>
                    <polygon id="Shape" points="51.505339 19.2034528 53.0032768 20.7170943 48.604209 25.0880377 51.0650282 27.573 49.650452 28.9795755 45.6916949 24.9806038"></polygon>
                    <polygon id="Shape" points="50.6966949 30.0366226 56.510339 24.2598396 57.9726554 25.7366887 52.1590113 31.5131038"></polygon>
                    <polygon id="Shape" points="54.8100565 34.1923302 53.4424859 32.8107736 59.2564972 27.0343585 61.2421186 29.0388113 59.5455085 35.036717 63.3937288 31.2125094 64.7253107 32.5576415 58.9120339 38.3340566 57.1757627 36.5812642 58.6707627 30.2846038"></polygon>
                    <path d="M48.8781638,16.5496132 L45.3472316,12.9825849 L39.5214689,18.7475943 L41.0194068,20.2605 L44.1955932,17.1044434 L43.0524011,22.3142547 L44.5859605,23.8635849 C44.5859605,23.8635849 45.794887,20.1368774 45.8319774,19.9816132 C45.8319774,19.9816132 47.1418927,20.7045849 48.5792373,19.4665189 C48.5792373,19.4665189 49.9578249,18.1206509 48.8781638,16.5496132 Z M46.7221469,18.2391226 C46.7221469,18.2391226 45.9799718,18.7383962 45.3259322,18.0779717 L44.3042938,16.9970094 C44.3042938,16.9970094 45.5385593,15.7703491 45.6942655,15.6154528 C45.6942655,15.6154528 46.6453955,16.5764717 46.7643785,16.6964151 C46.8829944,16.8163585 47.6328814,17.3814906 46.7221469,18.2391226 Z" id="Shape"></path>
                </g>
            </g>
        </g>
    </g>
</svg>