<svg width="72" height="43" viewBox="0 0 72 43" xmlns="http://www.w3.org/2000/svg"><title>Leroy_Merlin</title><g fill="#6E6C79" fill-rule="nonzero"><path d="M7.602 42.95h56.353L35.928 15.002zM6.526 41.576l4.39-4.271-1.462-1.496-2.758 2.684-4.858-4.967-1.633 1.59zM11.88 36.332l4.498-4.378-1.235-1.262-2.857 2.779-1.371-1.402 2.289-2.227-1.293-1.32-2.289 2.225-1.175-1.201 2.762-2.688-1.234-1.262-4.485 4.363zM26.604 15.578c-1.814-1.855-4.962-1.633-6.477-.158-1.516 1.475-2.29 4.416-.15 6.605 2.352 2.403 5.15 1.53 6.666.056 2.236-2.174 1.44-4.99-.04-6.503zm-1.334 5.233c-1.003.977-2.23.712-3.632-.721-1.178-1.204-1.107-2.414-.25-3.248.589-.573 1.785-1.086 3.208.37 1.624 1.66 1.678 2.623.674 3.6zM31.664 17.118l1.66-1.615-2.497-2.552-1.495-6.2L27.43 8.6l.99 3.519-3.344-1.228-1.794 1.745 5.7 1.825zM22.815 25.738s-4.04-1.374-4.232-1.341c-.062.01.868-2.458-1.221-3.551 0 0-1.55-.837-3.102.568l-3.307 3.25 6.375 6.402 1.687-1.64-3.45-3.526 5.576 1.466 1.674-1.628zm-6.257-.88c-.937.911-1.063.983-1.063.983l-1.522-1.555c-.052-.053 1.051-.996 1.225-1.165.073-.072.76-.518 1.328.062 0 0 .97.764.032 1.676zM31.149 7.972l-1.475-1.483 6.44-6.37 2.107 2.12-2.32 4.553 4.73-2.13L42.657 6.7l-6.44 6.369-1.553-1.563 3.399-3.361-4.65 2.103-.962-.966 2.162-4.633zM42.33 19.214l-4.465-4.489 6.44-6.37 4.477 4.503-1.301 1.287-2.805-2.82-1.05 1.037 2.213 2.224-1.354 1.34-2.2-2.211-1.407 1.391 2.779 2.794zM57.052 21.173l1.66 1.669-4.873 4.82 2.725 2.739-1.567 1.55-4.385-4.408zM56.156 33.117l6.44-6.369 1.62 1.628-6.44 6.37zM60.713 37.7l-1.515-1.524 6.44-6.369 2.2 2.21-1.88 6.613 4.263-4.216 1.475 1.483-6.44 6.369-1.923-1.933 1.656-6.942zM54.142 18.247l-3.911-3.933-6.453 6.356 1.659 1.668 3.518-3.48-1.266 5.745 1.699 1.708s1.339-4.109 1.38-4.28c0 0 1.45.797 3.043-.568 0 0 1.527-1.484.331-3.216zm-2.388 1.863s-.822.55-1.547-.178l-1.131-1.192 1.54-1.523 1.185 1.192c.13.132.962.755-.047 1.7z"/></g></svg>