<?xml version="1.0" encoding="UTF-8"?>
<svg width="174px" height="54px" viewBox="0 0 174 54" version="1.1" xmlns="http://www.w3.org/2000/svg" xmlns:xlink="http://www.w3.org/1999/xlink">
    <!-- Generator: Sketch 48.2 (47327) - http://www.bohemiancoding.com/sketch -->
    <title>logo exportable asset for website</title>
    <desc>Created with Sketch.</desc>
    <defs>
        <linearGradient x1="89.2039688%" y1="16.3458497%" x2="24.898748%" y2="93.9304332%" id="linearGradient-1">
            <stop stop-color="#F08D4A" offset="0%"></stop>
            <stop stop-color="#E75E31" offset="100%"></stop>
        </linearGradient>
        <path d="M7.96460177,13.7486477 L7.96460177,0 L47.7876106,0 L47.7876106,37.4336283 L35.4660161,37.4336283 C32.3949096,43.5725436 26.0481027,47.7876106 18.7168142,47.7876106 C8.37980313,47.7876106 0,39.4078075 0,29.0707965 C0,22.735343 3.14774304,17.1350842 7.96460177,13.7486477 Z" id="path-2"></path>
    </defs>
    <g id="Symbols" stroke="none" stroke-width="1" fill="none" fill-rule="evenodd">
        <g id="logo-exportable-asset-for-website">
            <g id="Logo" transform="translate(3.000000, -1.000000)">
                <path d="M53.738,36.39 C50.592,36.39 47.966,34.102 47.966,29.994 C47.966,25.886 50.592,23.598 53.738,23.598 C55.688,23.598 56.988,24.43 57.742,25.678 L57.794,25.678 L57.794,23.988 L60.966,23.988 L60.966,36 L57.794,36 L57.794,34.31 L57.742,34.31 C56.988,35.558 55.688,36.39 53.738,36.39 Z M54.544,33.374 C56.468,33.374 57.794,32.022 57.794,29.994 C57.794,27.966 56.468,26.614 54.544,26.614 C52.62,26.614 51.294,27.966 51.294,29.994 C51.294,32.022 52.62,33.374 54.544,33.374 Z M63.722,41.2 L63.722,23.988 L66.894,23.988 L66.894,25.678 L66.946,25.678 C67.7,24.43 69,23.598 70.95,23.598 C74.096,23.598 76.722,25.886 76.722,29.994 C76.722,34.102 74.096,36.39 70.95,36.39 C69,36.39 67.7,35.558 66.946,34.31 L66.894,34.31 L66.894,41.2 L63.722,41.2 Z M70.144,33.374 C72.068,33.374 73.394,32.022 73.394,29.994 C73.394,27.966 72.068,26.614 70.144,26.614 C68.22,26.614 66.894,27.966 66.894,29.994 C66.894,32.022 68.22,33.374 70.144,33.374 Z M78.802,41.2 L78.802,23.988 L81.974,23.988 L81.974,25.678 L82.026,25.678 C82.78,24.43 84.08,23.598 86.03,23.598 C89.176,23.598 91.802,25.886 91.802,29.994 C91.802,34.102 89.176,36.39 86.03,36.39 C84.08,36.39 82.78,35.558 82.026,34.31 L81.974,34.31 L81.974,41.2 L78.802,41.2 Z M85.224,33.374 C87.148,33.374 88.474,32.022 88.474,29.994 C88.474,27.966 87.148,26.614 85.224,26.614 C83.3,26.614 81.974,27.966 81.974,29.994 C81.974,32.022 83.3,33.374 85.224,33.374 Z M98.926,36.39 C95.78,36.39 93.154,34.102 93.154,29.994 C93.154,25.886 95.78,23.598 98.926,23.598 C100.876,23.598 102.176,24.43 102.93,25.678 L102.982,25.678 L102.982,23.988 L106.154,23.988 L106.154,36 L102.982,36 L102.982,34.31 L102.93,34.31 C102.176,35.558 100.876,36.39 98.926,36.39 Z M99.732,33.374 C101.656,33.374 102.982,32.022 102.982,29.994 C102.982,27.966 101.656,26.614 99.732,26.614 C97.808,26.614 96.482,27.966 96.482,29.994 C96.482,32.022 97.808,33.374 99.732,33.374 Z M112.16,17.8 L112.16,36 L108.962,36 L108.962,17.8 L112.16,17.8 Z M120.974,23.598 C124.796,23.598 127.63,26.224 127.63,29.994 C127.63,33.764 124.796,36.39 120.974,36.39 C117.152,36.39 114.318,33.764 114.318,29.994 C114.318,26.224 117.152,23.598 120.974,23.598 Z M120.974,26.614 C119.024,26.614 117.594,27.94 117.594,29.994 C117.594,32.048 119.024,33.374 120.974,33.374 C122.924,33.374 124.328,32.048 124.328,29.994 C124.328,27.94 122.924,26.614 120.974,26.614 Z M135.612,23.598 C139.434,23.598 142.268,26.224 142.268,29.994 C142.268,33.764 139.434,36.39 135.612,36.39 C131.79,36.39 128.956,33.764 128.956,29.994 C128.956,26.224 131.79,23.598 135.612,23.598 Z M135.612,26.614 C133.662,26.614 132.232,27.94 132.232,29.994 C132.232,32.048 133.662,33.374 135.612,33.374 C137.562,33.374 138.966,32.048 138.966,29.994 C138.966,27.94 137.562,26.614 135.612,26.614 Z M148.3,36.39 C146.636,36.39 144.738,36 143.152,35.116 L144.452,32.412 C145.648,33.114 147.026,33.66 148.482,33.66 C149.47,33.66 149.964,33.4 149.964,32.802 C149.964,32.334 149.626,32.1 148.924,31.762 L146.766,30.826 C144.868,29.994 144.062,28.798 144.062,27.238 C144.062,24.898 145.7,23.598 148.716,23.598 C150.094,23.598 151.576,23.91 152.98,24.43 L151.914,27.108 C150.822,26.64 149.626,26.276 148.534,26.276 C147.598,26.276 147.312,26.562 147.312,27.004 C147.312,27.472 147.624,27.732 148.456,28.096 L150.614,29.032 C152.304,29.734 153.266,30.748 153.266,32.542 C153.266,35.194 151.29,36.39 148.3,36.39 Z M160.13,36.39 C156.984,36.39 154.358,34.102 154.358,29.994 C154.358,25.886 156.984,23.598 160.13,23.598 C162.08,23.598 163.38,24.43 164.134,25.678 L164.186,25.678 L164.186,23.988 L167.358,23.988 L167.358,36 L164.186,36 L164.186,34.31 L164.134,34.31 C163.38,35.558 162.08,36.39 160.13,36.39 Z M160.936,33.374 C162.86,33.374 164.186,32.022 164.186,29.994 C164.186,27.966 162.86,26.614 160.936,26.614 C159.012,26.614 157.686,27.966 157.686,29.994 C157.686,32.022 159.012,33.374 160.936,33.374 Z" id="appaloosa" fill="#211F2D"></path>
                <g id="Logo-Appaloosa-Circle-out-+-margin">
                    <g id="Logo-Appaloosa-Circle-out" transform="translate(0.150442, 0.796460)">
                        <circle id="Orange-Circle" fill="url(#linearGradient-1)" cx="18.7168142" cy="29.0707965" r="18.7168142"></circle>
                        <mask id="mask-3" fill="white">
                            <use xlink:href="#path-2"></use>
                        </mask>
                        <g id="Mask"></g>
                        <g id="Quiver" mask="url(#mask-3)">
                            <g transform="translate(-12.349774, -1.958073)">
                                <g transform="translate(30.775639, 30.239476) rotate(-315.000000) translate(-30.775639, -30.239476) translate(18.275639, 0.239476)">
                                    <path d="M24.2179791,22.2105554 C24.0912093,22.2268333 19.1641647,32.2736077 3.89217522,33.4778 C3.89217522,33.4778 9.6303957,21.4865602 24.2179791,22.2105554" id="Fill-12" fill="#A22B30"></path>
                                    <path d="M24.2179791,22.1790425 C24.0912093,22.1953659 19.1641647,32.2702397 3.89217522,33.4778 C3.89104335,33.4295718 12.0231759,23.9538407 24.2179791,22.1790425" id="Fill-13" fill="#8E3127"></path>
                                    <polyline id="Fill-14" fill="#00A2B6" points="6.31105874 33.4778 4.32463913 15.5247516 5.18944502 14.228065 6.91942261 33.1618933 6.31105874 33.4778"></polyline>
                                    <polygon id="Fill-15" fill="#6AC1B9" points="5.9827413 23.0691498 9.08174218 18.8009333 8.26364405 7.1140325 5.16470237 14.0909376"></polygon>
                                    <polygon id="Fill-16" fill="#6AC1B9" points="5.25685177 23.8244782 1.48503255 20.2037158 -3.12638804e-13 8.36944999 4.31456543 14.7348034"></polygon>
                                    <polyline id="Fill-17" fill="#00A2B6" points="9.7238378 32.640855 6.91942261 7.9889592 7.85133801 6.69556 10.3791339 32.3257492 9.7238378 32.640855"></polyline>
                                    <polyline id="Fill-18" fill="#EFA684" points="8.64994732 15.901955 11.6765257 11.6869008 10.8583484 -1.7408297e-13 7.85522541 6.9109069"></polyline>
                                    <polygon id="Fill-19" fill="#EFA684" points="7.86818896 16.3290571 4.07981603 12.6712108 2.59478348 0.836944999 6.84874304 7.21557273"></polygon>
                                    <polyline id="Fill-20" fill="#00A2B6" points="13.2304814 31.3854375 11.2440617 13.4324138 12.1092335 12.1357025 13.8388452 31.0698921 13.2304814 31.3854375"></polyline>
                                    <polygon id="Fill-21" fill="#9CCA7C" points="12.9206794 21.3613942 16.0011648 17.1270433 15.1829876 5.4401425 12.1089896 12.3869093"></polygon>
                                    <polygon id="Fill-22" fill="#9CCA7C" points="12.1838526 21.758892 8.4043505 18.1113533 6.91942261 6.2770875 11.1986483 12.6481706"></polygon>
                                    <polyline id="Fill-23" fill="#00A2B6" points="20.5720233 26.78224 19.89334 8.75858174 20.9078825 7.53250499 21.1907317 26.1723191 20.5720233 26.78224"></polyline>
                                    <polygon id="Fill-24" fill="#F9D69C" points="21.0005839 16.7288694 24.1234594 12.7010789 24.2179791 0.836944999 20.7582678 7.6305306"></polygon>
                                    <polyline id="Fill-25" fill="#F9D69C" points="20.3755705 17.1074387 16.7364421 13.1868972 16.0011648 1.67389 20.0813918 8.37884079"></polyline>
                                    <polyline id="Fill-26" fill="#00A2B6" points="17.2985565 29.561604 17.2316116 12.4877985 16.0011648 11.2987575 16.4836142 30.13002 17.2985565 29.561604"></polyline>
                                    <polygon id="Fill-27" fill="#FAC922" points="16.3583448 20.9059193 12.7374236 16.984896 12.1089896 5.02167 16.068864 11.8870773"></polygon>
                                    <polygon id="Fill-28" fill="#FAC922" points="17.2271445 21.1910052 20.5867682 17.1569022 20.7021362 4.91500164 17.0770906 11.7049567"></polygon>
                                    <g id="Group-36" transform="translate(7.211894, 4.894839)" fill="#AB462C">
                                        <polyline id="Fill-30" points="0.00122685938 50.7635483 0.00122685938 54.1097836 1.81544624 54.1097836 1.81544624 50.6587616"></polyline>
                                        <polyline id="Fill-31" points="2.48880364 50.7635483 2.48880364 54.1097836 4.30302303 54.1097836 4.30302303 50.6587616"></polyline>
                                        <polyline id="Fill-32" points="4.97638043 50.7635483 4.97638043 54.1097836 6.79059981 54.1097836 6.79059981 50.6587616"></polyline>
                                        <polyline id="Fill-33" points="7.46395721 50.7635483 7.46395721 54.1097836 9.27817659 54.1097836 9.27817659 50.6587616"></polyline>
                                        <polyline id="Fill-34" points="9.95191102 50.7635483 9.95191102 54.1097836 11.7661304 54.1097836 11.7661304 50.6587616"></polyline>
                                        <polyline id="Fill-35" points="12.4394878 50.7635483 12.4394878 54.1097836 14.2537072 54.1097836 14.2537072 50.6587616"></polyline>
                                    </g>
                                    <path d="M3.89217522,33.2300583 L7.13159668,55.6568425 L21.3943325,55.4326 L24.2179791,22.1790425 C24.2179791,22.1790425 18.4367475,31.8842408 3.89217522,33.2300583" id="Fill-37" fill="#B76141"></path>
                                    <polyline id="Fill-38" fill="#AB462C" points="24.2179791 22.597515 5.62203087 44.6275613 7.17433191 56.075315 21.424365 55.8488735 24.2179791 22.597515"></polyline>
                                    <path d="M5.62203087,48.7663646 C6.00504182,48.5006784 16.1264396,43.3926701 23.7855152,27.2007125 L23.1357305,37.2818871 C23.1357305,37.2818871 20.4295009,46.5100308 6.26038245,53.1460075 L5.62203087,48.7663646" id="Fill-39" fill="#8E3127"></path>
                                    <path d="M22.9205874,36.1976845 C22.9205874,37.006838 22.2429779,37.662525 21.4067708,37.662525 C20.5709495,37.662525 19.89334,37.006838 19.89334,36.1976845 C19.89334,35.3889044 20.5709495,34.7332175 21.4067708,34.7332175 C22.2429779,34.7332175 22.9205874,35.3889044 22.9205874,36.1976845" id="Fill-40" fill="#AB462C"></path>
                                    <path d="M9.51420609,50.4261229 C9.51420609,51.234903 8.8365966,51.89059 8.00038945,51.89059 C7.16456818,51.89059 6.4869587,51.234903 6.4869587,50.4261229 C6.4869587,49.6169694 7.16456818,48.9612825 8.00038945,48.9612825 C8.8365966,48.9612825 9.51420609,49.6169694 9.51420609,50.4261229" id="Fill-41" fill="#AB462C"></path>
                                </g>
                            </g>
                        </g>
                    </g>
                </g>
            </g>
        </g>
    </g>
</svg>