<svg id="Layer_1" xmlns="http://www.w3.org/2000/svg" viewBox="0 0 48 48" enable-background="new 0 0 48 48"><style>.st0{fill:#ea6d39}.st1{fill:url(#path-2_2_);fill-opacity:.3}.st2{filter:url(#Adobe_OpacityMaskFilter)}.st3{fill:#fff}.st4{mask:url(#mask-4)}.st5{fill:#a22b30}.st6{fill:#8e3127}.st7{fill:#00a2b6}.st8{fill:#6ac1b9}.st9{fill:#efa684}.st10{fill:#9cca7c}.st11{fill:#f9d69c}.st12{fill:#fac922}.st13{fill:#ab462c}.st14{fill:#b76141}</style><g id="Logo-Appaloosa-Circle-out" transform="translate(11.15 .796)"><g id="Orange-Circle"><circle id="path-2" class="st0" cx="7.7" cy="28.1" r="18.7"/><linearGradient id="path-2_2_" gradientUnits="userSpaceOnUse" x1="-6.478" y1="43.175" x2="-7.067" y2="42.406" gradientTransform="matrix(37.4336 0 0 -37.4336 260.667 1630.62)"><stop offset="0" stop-color="#fff"/><stop offset="1" stop-opacity=".5"/></linearGradient><circle id="path-2_1_" class="st1" cx="7.7" cy="28.1" r="18.7"/></g><defs><filter id="Adobe_OpacityMaskFilter" filterUnits="userSpaceOnUse" x="-14.8" y="-.3" width="51.1" height="52.2"><feColorMatrix values="1 0 0 0 0 0 1 0 0 0 0 0 1 0 0 0 0 0 1 0"/></filter></defs><mask maskUnits="userSpaceOnUse" x="-14.8" y="-.3" width="51.1" height="52.2" id="mask-4"><g class="st2"><path id="path-3" class="st3" d="M-3 12.7V-1h39.8v37.4H24.5C21.4 42.6 15 46.8 7.7 46.8-2.6 46.8-11 38.4-11 28.1c0-6.4 3.1-12 8-15.4z"/></g></mask><g transform="rotate(45 17.537 36.294)" id="Quiver" class="st4"><path id="Fill-12" class="st5" d="M15.7 29.3c-.1 0-5.1 10.1-20.3 11.3 0-.1 5.7-12 20.3-11.3"/><path id="Fill-13" class="st6" d="M15.7 29.3c-.1 0-5.1 10.1-20.3 11.3 0-.1 8.1-9.6 20.3-11.3"/><path id="Fill-14" class="st7" d="M-2.2 40.5l-2-17.9.9-1.3 1.7 18.9-.6.3"/><path id="Fill-15" class="st8" d="M-2.5 30.1l3.1-4.2-.8-11.7-3.1 7z"/><path id="Fill-16" class="st8" d="M-3.2 30.9L-7 27.3l-1.5-11.9 4.3 6.4z"/><path id="Fill-17" class="st7" d="M1.2 39.7l-2.8-24.6 1-1.3 2.5 25.6-.7.3"/><path id="Fill-18" class="st9" d="M.2 23l3-4.2-.8-11.7-3 6.9"/><path id="Fill-19" class="st9" d="M-.6 23.4l-3.8-3.7-1.5-11.8 4.3 6.4z"/><path id="Fill-20" class="st7" d="M4.7 38.5l-1.9-18 .8-1.3 1.8 18.9-.7.4"/><path id="Fill-21" class="st10" d="M4.4 28.4l3.1-4.2-.8-11.7-3.1 7z"/><path id="Fill-22" class="st10" d="M3.7 28.8l-3.8-3.6-1.5-11.9 4.3 6.4z"/><path id="Fill-23" class="st7" d="M12.1 33.9l-.7-18.1 1-1.2.3 18.6-.6.7"/><path id="Fill-24" class="st11" d="M12.5 23.8l3.1-4 .1-11.9-3.4 6.8z"/><path id="Fill-25" class="st11" d="M11.9 24.2l-3.6-3.9-.8-11.6 4.1 6.7"/><path id="Fill-26" class="st7" d="M8.8 36.6l-.1-17-1.2-1.2.5 18.8.8-.6"/><path id="Fill-27" class="st12" d="M7.9 28l-3.6-3.9-.7-12 4 6.9z"/><path id="Fill-28" class="st12" d="M8.7 28.3l3.4-4.1.1-12.2-3.6 6.8z"/><g id="Group-36" transform="translate(7.212 4.895)"><path id="Fill-32" class="st13" d="M-3.5 57.8v3.4h1.8v-3.5"/><path id="Fill-33" class="st13" d="M-1 57.8v3.4H.8v-3.5"/></g><path id="Fill-37" class="st14" d="M-4.6 40.3l3.2 22.4 14.3-.2 2.8-33.3c0 .1-5.7 9.8-20.3 11.1"/><path id="Fill-38" class="st13" d="M15.7 29.7l-18.6 22 1.6 11.4 14.2-.2 2.8-33.2"/><path id="Fill-39" class="st6" d="M-2.9 55.8c.4-.3 10.5-5.4 18.2-21.6l-.6 10.1S12 53.5-2.2 60.2l-.7-4.4"/><path id="Fill-40" class="st13" d="M14.4 43.3c0 .8-.7 1.5-1.5 1.5s-1.5-.7-1.5-1.5.7-1.5 1.5-1.5c.9 0 1.5.7 1.5 1.5"/><path id="Fill-41" class="st13" d="M1 57.5C1 58.3.4 59-.5 59c-.8 0-1.5-.7-1.5-1.5S-1.3 56-.5 56c.9 0 1.5.7 1.5 1.5"/></g></g></svg>