<svg width="116" height="26" viewBox="0 0 116 26" xmlns="http://www.w3.org/2000/svg"><title>Playtech</title><g fill="#6E6C79" fill-rule="evenodd"><path d="M28.081 9.65a3.368 3.368 0 0 0-.054-1.206c-.36-1.56-1.37-2.466-2.81-2.915-1.273-.398-2.58-.398-3.883-.227-1.603.21-3.15.656-4.642 1.294-.081.035-.16.079-.27.134.218.15.387.296.58.386.15.07.337.116.496.093 1.034-.15 2.062-.355 3.099-.476 1.38-.162 2.753-.033 4.097.332 1.398.38 2.567 1.097 3.286 2.448.019.036.048.066.101.137M3.866 18.758c-.038.105-.07.182-.094.263a4.848 4.848 0 0 0-.185 1.673c.083 1.264.595 2.273 1.65 2.972.981.65 2.085.842 3.215.912 1.037.065 2.06-.096 3.072-.311 2.445-.52 4.721-1.49 6.87-2.789.084-.051.164-.11.273-.184-.06-.011-.082-.023-.099-.017-.137.045-.276.086-.41.14-1.629.66-3.297 1.17-5.032 1.435-1.615.247-3.231.316-4.848.022-1.012-.184-1.969-.517-2.81-1.148-.692-.52-1.196-1.18-1.416-2.044-.074-.291-.12-.59-.186-.924m6.92-6.775h.047c0 1.568-.006 3.136.005 4.704.002.27.003.585.13.8.24.401.87.712 1.406.368.385-.248.784-.474 1.177-.708l6.859-4.085c.823-.491.835-1.36.028-1.87-.277-.174-.557-.343-.836-.515-2.371-1.462-4.743-2.924-7.113-4.388-.368-.228-.745-.296-1.126-.064-.399.242-.58.617-.579 1.097.004 1.554.002 3.107.002 4.66m-1.701 2.146c-.065.043-.085.051-.098.067-.84.975-1.542 2.04-1.968 3.278-.263.767-.413 1.555-.243 2.363.236 1.124.943 1.822 1.975 2.2 1.186.436 2.401.39 3.616.202 1.646-.256 3.206-.804 4.704-1.54 2.528-1.242 4.752-2.9 6.544-5.136.763-.952 1.375-1.997 1.772-3.17.26-.769.363-1.554.169-2.344-.29-1.174-1.096-1.855-2.19-2.153-1.617-.44-3.22-.244-4.802.245-.036.011-.066.042-.121.078.09.054.157.096.226.134 1.524.863 3.05 1.723 4.572 2.59.968.55 1.045 1.743.152 2.412-.261.196-.554.347-.835.514-2.746 1.642-5.492 3.284-8.24 4.923a357.736 357.736 0 0 1-3.137 1.85c-.695.404-1.903.018-2.037-1.059a5.63 5.63 0 0 1-.05-.665c-.006-1.442-.007-2.884-.01-4.326v-.463M0 18.688c.054-.207.106-.414.161-.621.41-1.534 1.202-2.855 2.176-4.068 1.537-1.915 3.38-3.47 5.402-4.81.383-.253.768-.502 1.16-.738.144-.086.199-.18.197-.352a262.566 262.566 0 0 1-.005-3.011c.003-.828.42-1.416 1.134-1.578.438-.1.862-.037 1.252.204 1.047.646 2.091 1.295 3.141 1.934.08.049.21.071.297.042 1.828-.62 3.692-1.086 5.606-1.296 2.025-.221 4.054-.242 6.051.253 1.35.333 2.61.88 3.607 1.92 1.047 1.094 1.478 2.424 1.338 3.946-.14 1.512-.752 2.841-1.556 4.084-1.198 1.854-2.741 3.369-4.463 4.696-3.394 2.618-7.172 4.402-11.281 5.458-1.892.486-3.811.754-5.761.753-1.73-.002-3.428-.203-5.043-.893-.948-.405-1.79-.96-2.445-1.79-.443-.562-.77-1.182-.915-1.896-.01-.049-.035-.094-.053-.14v-2.097M84.782 13.744c.14 0 .211.004.282 0 1.326-.079 2.596-.387 3.775-1.029.759-.412 1.441-.931 1.98-1.63.41-.53.68-1.125.71-1.807.034-.729-.104-1.148-.767-1.363a1.617 1.617 0 0 0-.532-.068c-1.074.028-1.986.481-2.775 1.197-.989.896-1.658 2.027-2.156 3.27-.183.457-.336.926-.517 1.43m-29.171 2.875c0 .141-.007.283.001.423.05.907.765 1.384 1.565 1 .323-.156.624-.408.869-.679.482-.535.858-1.154 1.164-1.815a22.352 22.352 0 0 0 1.515-4.515c.136-.607.273-1.217.186-1.85-.1-.726-.74-1.125-1.404-.874-.535.203-.889.626-1.202 1.085a17.391 17.391 0 0 0-2.091 4.234c-.329.968-.62 1.948-.603 2.99m-13.344-5.874c.002-.62-.072-.931-.26-1.256-.247-.428-.642-.59-1.107-.452-.688.204-1.172.681-1.503 1.299-.358.667-.707 1.352-.95 2.068-.397 1.175-.722 2.378-1.046 3.578-.21.777-.392 1.565-.532 2.358-.103.582.29 1.008.867 1.029.435.016.802-.172 1.124-.447.674-.575 1.144-1.315 1.53-2.11a21.38 21.38 0 0 0 1.43-3.792c.216-.8.416-1.606.447-2.275M109.356.404l-3.26 11.611.049.027.24-.218c1.367-1.259 2.723-2.532 4.28-3.55.69-.45 1.385-.89 2.154-1.184.573-.218 1.159-.38 1.778-.272.549.096.827.428.87 1 .037.477-.066.932-.201 1.38-.805 2.674-1.617 5.345-2.416 8.02-.097.324-.125.669-.188 1.003-.05.266.15.361.306.484.15.116.314.12.465.013.356-.252.728-.487 1.052-.779.335-.302.62-.663.942-1.014l.475.398c-.01.034-.01.06-.024.074-.841.986-1.726 1.924-2.858 2.566-.594.337-1.22.535-1.908.462-.434-.046-.833-.203-.979-.65a1.666 1.666 0 0 1-.028-.892c.267-1.016.584-2.02.885-3.027.576-1.93 1.154-3.86 1.729-5.79.044-.149.071-.304.094-.458.066-.442-.18-.75-.616-.788-.392-.033-.738.11-1.075.288a12.274 12.274 0 0 0-2.405 1.702 40.658 40.658 0 0 0-2.076 1.955c-.622.638-1.03 1.417-1.277 2.295-.487 1.733-1.008 3.455-1.506 5.184-.048.163-.106.216-.279.212-.677-.014-1.355-.006-2.066-.006l.726-2.624-.107-.08c-.06.092-.105.198-.18.275-.801.83-1.695 1.524-2.758 1.965a6.213 6.213 0 0 1-2.757.45 5.485 5.485 0 0 1-1.174-.172c-1.362-.383-2.262-1.314-2.83-2.616-.024-.054-.044-.11-.068-.164-.005-.012-.021-.017-.046-.036-.053.04-.11.084-.165.128-1.336 1.068-2.751 1.99-4.383 2.51-.99.316-2.006.453-3.036.328-1.24-.15-2.193-.748-2.673-1.995-.085-.22-.164-.443-.265-.716-.103.085-.204.147-.279.232-.763.871-1.573 1.682-2.617 2.2-.508.252-1.042.367-1.598.27-.82-.146-1.347-.85-1.35-1.765-.003-.692.182-1.35.353-2.01l2.261-8.713c.019-.07.032-.143.054-.24h-1.756c.037.248.092.494.108.741.06.891-.205 1.719-.503 2.534-.831 2.267-1.952 4.387-3.157 6.46-1.006 1.73-2.048 3.434-3.29 4.997-.84 1.057-1.737 2.052-2.882 2.776-1.028.649-2.124.913-3.314.63a2.487 2.487 0 0 1-.716-.3c-.629-.389-.847-.998-.755-1.718.104-.811.615-1.276 1.349-1.48a2.2 2.2 0 0 1 1.756.24c.307.18.6.385.912.557.489.27.798.226 1.198-.16.459-.444.877-.933.975-1.593.063-.42.063-.866.003-1.287-.251-1.748-.5-3.497-.818-5.232-.294-1.61-.668-3.206-1.02-4.805a5.287 5.287 0 0 0-.322-.968 2.311 2.311 0 0 0-.4-.6c-.186-.21-.292-.172-.366.094-.593 2.126-1.188 4.251-1.777 6.378a88.06 88.06 0 0 0-.592 2.257 1.302 1.302 0 0 0-.023.525c.068.382.375.543.717.377.159-.078.319-.189.432-.325.314-.378.604-.776.902-1.168.065-.087.122-.181.192-.285l.653.465c-.175.278-.334.541-.503.798-.607.914-1.272 1.775-2.22 2.343-.975.584-2.021.7-3.09.351-.564-.185-.959-.604-.972-1.257-.011-.54.04-1.08.068-1.62.006-.11.029-.219.005-.352-.05.064-.103.127-.152.193-.392.524-.753 1.075-1.181 1.565-.729.832-1.623 1.41-2.715 1.59-.725.12-1.453.107-2.159-.15-.74-.269-1.269-.778-1.595-1.51-.098-.221-.188-.446-.294-.696-.064.075-.11.129-.154.183-.601.728-1.233 1.422-2.075 1.864-.806.423-1.664.49-2.528.275-.791-.196-1.298-.903-1.392-1.796-.068-.645.117-1.252.247-1.866.125-.586.27-1.167.364-1.768-.043.07-.089.139-.129.21-.684 1.23-1.441 2.406-2.45 3.386-.986.96-2.11 1.65-3.477 1.862-1.083.168-2.117.07-3.06-.56-.03-.02-.063-.034-.124-.066-.051.163-.106.313-.146.467-.28 1.059-.564 2.117-.83 3.18-.075.3-.099.61 0 .923.102.322.301.524.61.599.26.063.526.092.789.138.084.014.167.034.252.051v.642h-7.674v-.705c.178-.024.368-.053.558-.074.383-.042.672-.215.878-.566.326-.559.46-1.184.615-1.8 1.056-4.193 2.105-8.39 3.155-12.585.038-.151.065-.305.087-.46.081-.583-.167-.952-.727-1.063-.232-.046-.47-.061-.713-.092v-.557l6.17-.783-.717 2.558.06.036c.054-.06.11-.12.162-.182.687-.804 1.358-1.628 2.271-2.18 1.245-.754 2.538-.87 3.845-.206.811.412 1.259 1.153 1.433 2.043.104.527.107 1.075.152 1.613.007.08.001.162.044.265.055-.12.13-.233.162-.358.644-2.474 1.284-4.948 1.922-7.423.05-.194.09-.39.121-.588.074-.475-.172-.837-.632-.925-.17-.032-.344-.035-.517-.05l-.262-.02v-.629c2.106-.201 4.198-.434 6.296-.899-.06.237-.11.45-.164.661l-3.98 15.43c-.086.33-.192.656-.24.992-.028.184 0 .407.082.57.14.277.446.3.682.097.05-.043.098-.087.146-.133.491-.473.807-1.005.902-1.735.416-3.172 1.876-5.772 4.249-7.825.81-.702 1.729-1.216 2.782-1.428.64-.13 1.275-.122 1.898.117.485.186.842.51 1.061.991.113.248.217.501.338.782.03-.07.056-.115.07-.165.107-.385.215-.77.315-1.158.034-.13.084-.192.233-.191 1.163.007 2.326.003 3.489.006.059 0 .153.014.171.052.097.198.246.157.408.133.936-.137 1.872-.271 2.81-.398.25-.034.504-.033.755-.06.137-.014.204.044.27.162.384.701.6 1.466.763 2.242.377 1.799.727 3.604 1.091 5.406.116.572.24 1.141.361 1.712l.074.045c.01-.035.014-.073.03-.105.725-1.429 1.46-2.853 1.992-4.374.086-.248.116-.518.157-.78.052-.34-.092-.612-.326-.833-.17-.16-.353-.307-.535-.453-.578-.466-.818-1.053-.639-1.806.185-.778.7-1.184 1.425-1.352a2.102 2.102 0 0 1 1.196.058c.31.11.602.11.927.012 1.585-.477 2.777-1.492 3.71-2.852.39-.568.715-1.185 1.063-1.784.061-.107.118-.168.248-.16.2.013.403.004.641.004l-1.134 4.672h2.337c-.071.31-.13.595-.209.875-.013.045-.121.085-.186.086-.68.007-1.358.01-2.037.001-.152-.002-.213.05-.252.198-.771 2.968-1.554 5.933-2.313 8.905-.1.387-.115.806-.107 1.209.008.43.307.692.726.68.174-.004.369-.044.514-.135.3-.188.588-.404.852-.642.271-.243.5-.535.763-.79.326-.32.47-.682.485-1.16.048-1.638.616-3.116 1.426-4.504.927-1.588 2.152-2.863 3.749-3.74 1.234-.68 2.552-.983 3.946-.88.785.059 1.524.282 2.09.897.263.286.439.618.494 1.02.161 1.173-.18 2.169-.978 3.01-.872.918-1.943 1.508-3.092 1.96-1.323.52-2.703.79-4.107.947-.086.01-.171.026-.257.035-.503.053-.507.051-.608.573-.118.607-.207 1.217-.108 1.837.188 1.166.969 1.9 2.154 1.963.38.02.785-.03 1.15-.146 1.499-.474 2.772-1.374 4.03-2.307.319-.237.424-.486.436-.893.087-3.001 1.37-5.386 3.643-7.22 1.12-.902 2.394-1.462 3.814-1.625 1.107-.127 2.196-.068 3.186.548a2.286 2.286 0 0 1 1.043 2.344c-.168.952-1.22 1.586-2.086 1.252-.393-.151-.62-.456-.683-.876a1.715 1.715 0 0 1 .152-1.02c.1-.205.198-.413.289-.623.119-.273.057-.464-.195-.617-.295-.18-.624-.173-.947-.162-.94.033-1.752.424-2.467 1.023-1.244 1.041-2.051 2.398-2.606 3.929a8.205 8.205 0 0 0-.478 3.347c.094 1.486 1.068 2.653 2.487 2.954.46.098.917.059 1.365-.103a6.901 6.901 0 0 0 2.2-1.31c.764-.666 1.45-1.41 2.01-2.267.153-.235.267-.511.344-.785a2784.8 2784.8 0 0 0 3.058-10.89c.078-.28.114-.582.12-.875.01-.374-.168-.589-.526-.64-.363-.053-.732-.067-1.1-.082-.315-.013-.632-.002-.975-.002.04-.214.059-.416.125-.598.024-.067.163-.122.252-.126a14.298 14.298 0 0 0 3.99-.752c.397-.135.792-.125 1.217-.107"/></g></svg>