<svg width="109" height="45" viewBox="0 0 109 45" xmlns="http://www.w3.org/2000/svg"><title>St_Gobain</title><g fill="#FFF" fill-rule="evenodd"><path d="M32.188 41.725c-.146-.176-.215-.25-.275-.331-1.568-2.128-3.147-4.247-4.69-6.392-.312-.435-.645-.6-1.162-.566-.636.042-.797.157-.798.808-.005 2.982-.003 5.963.003 8.944.002.646.187.783.97.772.579-.008.732-.165.732-.762l.004-6.053c0-.136.014-.272.026-.498 1.743 2.372 3.42 4.656 5.1 6.94.263.357.884.514 1.382.345.438-.15.427-.524.427-.894 0-2.921.003-5.842.004-8.763 0-.657-.176-.834-.826-.832-.763.003-.896.126-.896.832v6.45M107.318 41.796c-.122-.151-.168-.205-.21-.262-1.568-2.109-3.158-4.201-4.685-6.338-.396-.554-.818-.764-1.467-.697-.41.043-.606.224-.606.623 0 3.076-.004 6.152.008 9.228 0 .174.105.475.21.498.37.08.773.134 1.14.067.356-.064.35-.435.35-.743V39.04v-1.184c.208.103.31.227.405.356 1.52 2.05 3.052 4.092 4.549 6.158.326.45.669.673 1.238.623.582-.05.745-.173.745-.759v-5.356c0-1.23.018-2.462-.016-3.691-.006-.221-.173-.562-.352-.633-.831-.331-1.308.025-1.31.908l.001.18v6.154M57.854 40.93c0 .499-.013.935.004 1.369.011.26-.09.417-.314.53-.813.41-1.654.57-2.571.436-2.334-.34-3.746-2.898-2.747-5.022 1.032-2.197 3.921-2.824 5.864-1.273.508.406.715.367 1.174-.22.355-.454.318-.755-.131-1.106-1.419-1.11-3.016-1.425-4.763-1.079-2.913.578-4.828 3.711-4.003 6.535 1.11 3.797 5.696 5.118 8.833 2.631a.908.908 0 0 0 .3-.612c.029-1.086.015-2.173.007-3.26-.003-.396-.211-.622-.616-.625a88.075 88.075 0 0 0-2.126.008c-.382.007-.572.226-.575.607 0 .106-.003.212-.003.317 0 .596.154.757.734.764.284.003.568 0 .933 0M3.862 45c.655-.153 1.335-.241 1.96-.475 1-.374 1.643-1.131 1.764-2.213.117-1.045-.137-2.007-1.092-2.598-.532-.33-1.124-.57-1.705-.81-.665-.276-1.36-.482-2.019-.77-.39-.17-.604-.538-.572-.976.033-.438.342-.673.732-.805 1.107-.373 2.152-.18 3.162.349.453.238.68.177.917-.235.372-.65.37-.98-.08-1.232-1.523-.857-3.13-1.08-4.77-.416-2.127.859-2.09 3.367-.856 4.372.525.427 1.192.695 1.823.967.62.267 1.293.412 1.916.675.646.274.915.739.843 1.269-.067.488-.477.85-1.117.995-1.296.294-2.422-.075-3.431-.888-.402-.323-.675-.352-.933-.076-.459.491-.538.995-.18 1.336 1.012.962 2.231 1.407 3.638 1.531M38.764 36.063v.53c0 2.453-.005 4.907.01 7.36.001.21.098.566.224.602.352.1.757.14 1.113.066.356-.073.359-.45.359-.768-.003-2.233-.003-4.466-.004-6.699v-1.092c.838 0 1.621.003 2.404 0 .546-.003.721-.19.73-.76.01-.659-.15-.865-.708-.866-2.183-.006-4.366-.005-6.55-.001-.575.001-.702.156-.7.808 0 .648.14.816.694.82.786.003 1.572 0 2.428 0M22.146 39.73v-4.539c-.001-.595-.158-.751-.75-.759-.785-.01-.977.122-.978.724-.004 3.041-.003 6.082.005 9.123.001.592.212.733.987.72.555-.009.733-.182.734-.73.002-1.513.001-3.026.002-4.539M95.505 39.69h.002c0 1.527-.002 3.056 0 4.584.001.544.17.716.692.725.819.015 1.031-.12 1.033-.727.005-3.026.004-6.053-.005-9.079-.001-.657-.158-.77-.936-.76-.649.007-.785.136-.786.762v4.494M45.654 41.237v.01c.455 0 .91.008 1.365-.002.561-.014.74-.216.733-.806-.007-.695-.156-.882-.751-.887a136.4 136.4 0 0 0-2.684 0c-.512.006-.71.22-.717.735-.008.73.122.922.69.946.454.019.91.004 1.364.004"/><path d="M32.188 41.725v-6.45c0-.706.134-.829.897-.832.65-.002.826.175.826.832-.001 2.92-.004 5.842-.004 8.763 0 .37.01.744-.427.894-.498.17-1.119.012-1.382-.346-1.68-2.283-3.357-4.567-5.1-6.939-.012.226-.026.362-.026.498l-.004 6.053c0 .597-.153.754-.732.762-.783.01-.968-.126-.97-.772-.006-2.981-.008-5.962-.003-8.944 0-.651.162-.766.798-.808.517-.034.85.131 1.162.566 1.543 2.145 3.122 4.264 4.69 6.392.06.081.129.155.275.331M107.318 41.796v-6.154-.18c0-.883.478-1.24 1.309-.908.18.071.346.412.352.633.034 1.23.016 2.46.016 3.69v5.357c0 .586-.163.708-.745.76-.57.049-.912-.174-1.238-.624-1.497-2.066-3.03-4.108-4.55-6.158a1.042 1.042 0 0 0-.404-.356v6.316c0 .308.006.679-.35.743-.367.067-.77.013-1.14-.067-.105-.023-.21-.324-.21-.498-.012-3.076-.008-6.152-.008-9.228 0-.399.195-.58.606-.623.65-.067 1.07.143 1.467.697 1.527 2.137 3.117 4.23 4.684 6.338.043.057.09.11.211.262M72.664 39.704c.099 2.789-2.477 5.392-5.745 5.293-2.867-.086-5.34-2.49-5.325-5.32.015-2.9 2.55-5.281 5.582-5.245 3.078.037 5.498 2.362 5.488 5.272zm-5.488-3.568c-2.106-.01-3.854 1.608-3.852 3.565.002 1.956 1.77 3.614 3.834 3.594 2.067-.02 3.746-1.621 3.778-3.602.031-1.89-1.72-3.547-3.76-3.557zM57.854 40.93c-.365 0-.649.003-.933 0-.58-.007-.734-.168-.734-.764l.003-.317c.003-.381.193-.6.575-.607a88.075 88.075 0 0 1 2.126-.008c.405.003.613.23.616.626.008 1.086.022 2.173-.006 3.259a.908.908 0 0 1-.3.612c-3.138 2.487-7.725 1.166-8.834-2.63-.825-2.825 1.09-5.958 4.003-6.536 1.747-.346 3.344-.03 4.763 1.08.449.35.486.65.13 1.106-.458.586-.665.625-1.173.22-1.943-1.552-4.832-.925-5.864 1.272-.999 2.124.413 4.682 2.747 5.022.917.134 1.758-.026 2.57-.436.224-.113.326-.27.315-.53-.017-.434-.004-.87-.004-1.369M13.822 42.276c-.657 0-1.316.023-1.972-.01-.353-.017-.52.117-.648.418a48.216 48.216 0 0 1-.838 1.85c-.215.456-1.322.65-1.607.247-.131-.186-.137-.56-.04-.782.708-1.611 1.454-3.206 2.19-4.804.656-1.421 1.329-2.835 1.964-4.264.182-.407.455-.503.863-.5.435.005.774.036.992.515 1.375 3.012 2.78 6.01 4.173 9.013.307.664.078.969-.659 1.019-.581.04-.912-.166-1.116-.699-.214-.56-.506-1.091-.737-1.646-.117-.282-.288-.373-.592-.363-.657.021-1.315.006-1.973.006zm-.163-5.117l-1.548 3.41h3.114l-1.566-3.41zM88.916 34.46c.477-.092.737.099.931.525 1.373 3.006 2.77 6 4.154 9.001.29.628.047.937-.657.987-.593.043-.928-.166-1.132-.718-.208-.561-.5-1.092-.737-1.644-.102-.236-.229-.346-.507-.343-1.367.014-2.734-.005-4.101.019-.16.002-.388.155-.462.3-.309.6-.567 1.226-.85 1.839-.238.512-1.133.755-1.58.42-.286-.215-.284-.494-.14-.806.884-1.924 1.76-3.851 2.64-5.776.489-1.066 1.004-2.12 1.461-3.198.202-.477.47-.721.98-.606zm1.398 6.108l-1.577-3.409-1.537 3.41h3.114zM3.862 45c-1.407-.124-2.626-.57-3.638-1.53-.358-.342-.279-.846.18-1.337.258-.276.531-.247.933.076 1.01.813 2.135 1.182 3.43.888.641-.145 1.051-.507 1.118-.995.072-.53-.197-.995-.843-1.269-.623-.263-1.295-.408-1.916-.675-.631-.272-1.298-.54-1.823-.967-1.234-1.005-1.271-3.513.855-4.372 1.642-.663 3.248-.441 4.771.416.45.252.452.581.08 1.232-.236.412-.464.473-.917.235-1.01-.53-2.055-.722-3.162-.349-.39.132-.7.367-.732.805-.032.438.181.805.572.976.66.288 1.354.494 2.02.77.58.24 1.172.48 1.704.81.955.591 1.21 1.553 1.092 2.598-.12 1.082-.765 1.84-1.764 2.213-.625.234-1.305.322-1.96.475M38.764 36.063c-.856 0-1.642.003-2.428 0-.554-.004-.694-.172-.695-.82 0-.652.126-.807.701-.808 2.184-.004 4.367-.005 6.55 0 .559.002.717.208.708.867-.009.57-.184.757-.73.76-.783.003-1.566 0-2.404 0v1.092c0 2.233 0 4.466.004 6.7 0 .317-.003.694-.36.767-.355.074-.76.034-1.112-.066-.126-.036-.223-.392-.224-.602-.015-2.453-.01-4.907-.01-7.36v-.53M22.145 39.73v4.539c-.002.548-.18.721-.735.73-.775.013-.986-.128-.987-.72-.008-3.04-.009-6.082-.005-9.123 0-.602.193-.734.978-.724.592.008.749.164.75.76v4.538M95.505 39.69v-4.495c.001-.626.137-.755.786-.763.778-.009.935.104.936.761.009 3.026.01 6.053.005 9.08-.002.605-.214.74-1.033.726-.523-.01-.69-.18-.692-.725-.002-1.528 0-3.057 0-4.585h-.002zM45.654 41.237c-.455 0-.91.015-1.364-.004-.568-.024-.698-.216-.69-.946.007-.515.205-.73.717-.734a136.4 136.4 0 0 1 2.684-.001c.595.005.744.192.751.887.006.59-.172.792-.733.806-.455.01-.91.002-1.365.002v-.01M94.332 28.966c.501.04.837.381.826.83-.01.487-.352.819-.866.84-.06.004-.12.002-.181.002-2.224 0-4.448.014-6.67-.017a1.483 1.483 0 0 1-.913-.363c-1.4-1.318-2.764-2.671-4.142-4.012-.115-.111-.236-.217-.439-.403-.018.268-.04.435-.04.603-.003 1.074.005 2.147-.003 3.22-.006.704-.279.984-.98.991-1.074.012-2.148.013-3.222.003-.666-.007-.955-.31-.955-.973-.002-4.22-.008-8.44.006-12.661.002-.435-.115-.74-.45-1.04-1.14-1.022-2.24-2.089-3.366-3.126-.699-.643-.77-.65-1.827-.523-.009.163-.027.336-.027.51-.003 5.562-.004 11.124-.006 16.687 0 .894-.243 1.124-1.16 1.122-.967-.002-1.94.002-2.907 0-.796-.003-1.077-.27-1.077-1.039 0-8.679-.014-17.358-.014-26.037v-.6c-.126.083-.182.119-.237.174-1.954 1.953-3.888 3.91-5.846 5.859a.957.957 0 0 0-.311.745c.013 2.118.013 4.235 0 6.353-.001.283.084.457.317.623.857.61 1.683 1.263 2.55 1.86.41.281.55.625.548 1.09-.01 2.953-.008 5.906-.01 8.859 0 .417.01.835-.008 1.252-.023.554-.28.849-.827.86-1.164.022-2.329.013-3.493-.004-.41-.007-.673-.249-.756-.647a2.843 2.843 0 0 1-.056-.577c.001-3.922.008-7.844 0-11.766 0-.163-.098-.383-.225-.48-1.103-.832-2.228-1.634-3.331-2.466-.23-.174-.342-.06-.5.064-1.896 1.5-3.775 3.024-5.705 4.482-.579.437-.772.891-.762 1.595.04 2.922.017 5.846.016 8.769 0 .781-.272 1.056-1.057 1.057-.998 0-1.997-.006-2.995-.01-.791-.003-1.068-.269-1.069-1.039-.002-1.923.001-3.847-.001-5.77-.001-.598-.142-1.16-.55-1.616-.971-1.09-2.748-.738-3.218.645a3.404 3.404 0 0 0-.17 1.05c-.017 1.91-.008 3.818-.01 5.727 0 .712-.29.997-1.018 1a381.31 381.31 0 0 1-3.086-.001c-.76-.004-1.025-.275-1.026-1.035-.001-1.267.002-2.535-.004-3.803a4.008 4.008 0 0 0-.059-.71c-.115-.618-.587-1.019-1.151-1-.601.02-1.056.437-1.1 1.092-.046.669-.03 1.341-.034 2.012-.005.82.004 1.64-.009 2.46-.01.685-.305.975-1.006.98a180.84 180.84 0 0 1-3.221-.011c-.6-.007-.91-.316-.92-.924-.015-.85-.01-1.7-.013-2.55-.001-.588-.29-.952-.77-.965-.498-.013-.836.365-.84.955-.005.85 0 1.7-.003 2.55-.003.616-.315.933-.947.934-2.753.003-5.506 0-8.259-.005-.544-.002-.895-.32-.905-.792-.012-.518.353-.864.936-.865 2.315-.004 4.629-.011 6.943.005.406.003.571-.093.54-.52-.037-.52-.021-1.044-.007-1.566.04-1.382 1.149-2.41 2.572-2.393 1.377.016 2.47 1.09 2.479 2.446.004.654 0 1.361 0 1.982h1.707c0-1.118-.014-2.29.007-3.432a4.01 4.01 0 0 1 .169-1.087c.424-1.395 1.681-2.157 3.194-1.967 1.252.157 2.335 1.346 2.377 2.669.035 1.087.015 2.174.02 3.263v.554h1.697c.007-.124.018-.292.02-.436.011-1.714-.018-3.425.045-5.138.064-1.751 1.476-3.273 3.07-3.419 2.089-.191 3.638.823 4.12 2.734.109.428.14.882.145 1.325.017 1.461.006 2.923.007 4.384 0 .594.002.594.582.593.303-.001.606-.003.908-.007.03 0 .059-.012.15-.031.008-.184.026-.385.026-.585.002-2.804.02-5.608-.011-8.41-.008-.667.232-1.11.75-1.513 2.29-1.78 4.56-3.586 6.833-5.386.722-.572.965-.586 1.712-.037.87.64 1.752 1.287 2.621 1.929.094.069.149.124.4.231v-.616c0-1.804-.05-3.61-.014-5.414.007-.307.14-.684.36-.905 2.606-2.637 5.236-5.254 7.864-7.87.135-.136.297-.25.446-.374h.544c.5.248.614.648.614 1.15-.008 9.038.015 18.082.015 27.119v.676h1.764v-.496c0-5.562-.028-11.125-.028-16.687 0-.903.197-1.124 1.125-1.128.666-.004 1.332-.035 1.994.012.291.02.632.136.841.326a231.018 231.018 0 0 1 4.738 4.422c.195.187.285.554.286.838.02 4.041-.01 8.083-.01 12.124v.63c.63 0 1.047.007 1.541-.003.318-.007.26-.262.261-.435.005-1.551-.002-3.102.007-4.653 0-.186.027-.397.117-.554.293-.513.888-.594 1.34-.167 1.045.99 2.071 1.999 3.103 3.002.829.806 1.663 1.607 2.477 2.428.264.267.548.37.921.366 1.891-.015 3.782-.011 5.673-.014.166 0 .333-.003.499.01zm-33.087-.138c.002-2.881.005-5.76 0-8.64-.001-.105-.016-.246-.098-.305-.521-.372-1.087-.724-1.63-1.133v10.227h1.687c.02 0 .04-.107.04-.149zM81.423 39.419c1.478 1.016 1.534 2.888.877 4.018-.555.955-1.454 1.405-2.474 1.47-1.602.102-3.21.08-4.817.093-.431.003-.61-.246-.61-.768-.003-1.953-.002-3.907-.002-5.86l.001-3.181c.001-.579.175-.76.74-.758 1.4.002 2.8-.012 4.198.022 1.397.033 2.535.885 2.803 2.151.177.841.222 1.708-.716 2.813zm-5.296.808v3.064c.816 0 1.61.013 2.403-.006.44-.01.888-.032 1.317-.127.72-.161 1.113-.67 1.124-1.347.011-.65-.351-1.2-1.092-1.3-1.222-.166-2.461-.194-3.752-.284zm0-1.366c.834 0 1.618.009 2.401-.005a6.598 6.598 0 0 0 1.034-.094c.63-.112 1.036-.587 1.062-1.2.025-.598-.324-1.17-.94-1.235-1.174-.125-2.36-.133-3.557-.19v2.724z"/></g></svg>