<svg width="109" height="45" viewBox="0 0 109 45" xmlns="http://www.w3.org/2000/svg"><title>St_Gobain</title><g fill="none" fill-rule="evenodd" opacity=".598"><path d="M81.423 39.419c.938-1.105.893-1.972.716-2.813-.268-1.266-1.406-2.118-2.803-2.151-1.399-.034-2.798-.02-4.198-.022-.565-.002-.739.18-.74.758-.002 1.06 0 2.12 0 3.18 0 1.954-.002 3.908 0 5.861 0 .522.18.771.611.768 1.606-.012 3.215.01 4.817-.093 1.02-.065 1.919-.515 2.474-1.47.657-1.13.601-3.002-.877-4.018M32.188 41.725c-.146-.176-.215-.25-.275-.331-1.568-2.128-3.147-4.247-4.69-6.392-.312-.435-.645-.6-1.162-.566-.636.042-.797.157-.798.808-.005 2.982-.003 5.963.003 8.944.002.646.187.783.97.772.579-.008.732-.165.732-.762l.004-6.053c0-.136.014-.272.026-.498 1.743 2.372 3.42 4.656 5.1 6.94.263.357.884.514 1.382.345.438-.15.427-.524.427-.894 0-2.921.003-5.842.004-8.763 0-.657-.176-.834-.826-.832-.763.003-.896.126-.896.832v6.45M107.318 41.796c-.122-.151-.168-.205-.21-.262-1.568-2.109-3.158-4.201-4.685-6.338-.396-.554-.818-.764-1.467-.697-.41.043-.606.224-.606.623 0 3.076-.004 6.152.008 9.228 0 .174.105.475.21.498.37.08.773.134 1.14.067.356-.064.35-.435.35-.743V39.04v-1.184c.208.103.31.227.405.356 1.52 2.05 3.052 4.092 4.549 6.158.326.45.669.673 1.238.623.582-.05.745-.173.745-.759v-5.356c0-1.23.018-2.462-.016-3.691-.006-.221-.173-.562-.352-.633-.831-.331-1.308.025-1.31.908l.001.18v6.154" fill="#A8A5B5"/><path d="M72.664 39.704c.01-2.91-2.41-5.235-5.488-5.272-3.031-.036-5.567 2.345-5.582 5.244-.015 2.831 2.458 5.235 5.325 5.321 3.268.099 5.844-2.504 5.745-5.293" fill="#FFF"/><path d="M57.854 40.93c0 .499-.013.935.004 1.369.011.26-.09.417-.314.53-.813.41-1.654.57-2.571.436-2.334-.34-3.746-2.898-2.747-5.022 1.032-2.197 3.921-2.824 5.864-1.273.508.406.715.367 1.174-.22.355-.454.318-.755-.131-1.106-1.419-1.11-3.016-1.425-4.763-1.079-2.913.578-4.828 3.711-4.003 6.535 1.11 3.797 5.696 5.118 8.833 2.631a.908.908 0 0 0 .3-.612c.029-1.086.015-2.173.007-3.26-.003-.396-.211-.622-.616-.625a88.075 88.075 0 0 0-2.126.008c-.382.007-.572.226-.575.607 0 .106-.003.212-.003.317 0 .596.154.757.734.764.284.003.568 0 .933 0M13.822 42.276c.658 0 1.316.015 1.973-.006.304-.01.475.082.592.363.231.555.523 1.086.737 1.646.204.533.535.739 1.116.699.737-.05.966-.355.659-1.019-1.392-3.004-2.798-6.001-4.173-9.013-.218-.479-.557-.51-.992-.514-.408-.004-.681.092-.863.499-.635 1.43-1.308 2.843-1.963 4.264-.737 1.598-1.483 3.193-2.19 4.804-.098.221-.092.596.039.782.285.403 1.392.209 1.607-.247.29-.612.575-1.227.838-1.85.128-.301.295-.435.648-.417.656.032 1.315.009 1.972.01M88.916 34.46c-.51-.115-.778.13-.98.606-.457 1.078-.972 2.132-1.46 3.198-.881 1.925-1.757 3.852-2.641 5.776-.144.312-.146.59.14.805.447.336 1.342.093 1.58-.42.283-.612.541-1.238.85-1.838.074-.145.302-.298.462-.3 1.367-.024 2.734-.005 4.101-.02.278-.002.405.108.507.344.236.552.529 1.083.737 1.644.204.552.54.76 1.132.718.704-.05.947-.36.657-.987-1.384-3-2.781-5.995-4.154-9.001-.194-.426-.454-.617-.931-.525M3.862 45c.655-.153 1.335-.241 1.96-.475 1-.374 1.643-1.131 1.764-2.213.117-1.045-.137-2.007-1.092-2.598-.532-.33-1.124-.57-1.705-.81-.665-.276-1.36-.482-2.019-.77-.39-.17-.604-.538-.572-.976.033-.438.342-.673.732-.805 1.107-.373 2.152-.18 3.162.349.453.238.68.177.917-.235.372-.65.37-.98-.08-1.232-1.523-.857-3.13-1.08-4.77-.416-2.127.859-2.09 3.367-.856 4.372.525.427 1.192.695 1.823.967.62.267 1.293.412 1.916.675.646.274.915.739.843 1.269-.067.488-.477.85-1.117.995-1.296.294-2.422-.075-3.431-.888-.402-.323-.675-.352-.933-.076-.459.491-.538.995-.18 1.336 1.012.962 2.231 1.407 3.638 1.531M38.764 36.063v.53c0 2.453-.005 4.907.01 7.36.001.21.098.566.224.602.352.1.757.14 1.113.066.356-.073.359-.45.359-.768-.003-2.233-.003-4.466-.004-6.699v-1.092c.838 0 1.621.003 2.404 0 .546-.003.721-.19.73-.76.01-.659-.15-.865-.708-.866-2.183-.006-4.366-.005-6.55-.001-.575.001-.702.156-.7.808 0 .648.14.816.694.82.786.003 1.572 0 2.428 0M22.146 39.73v-4.539c-.001-.595-.158-.751-.75-.759-.785-.01-.977.122-.978.724-.004 3.041-.003 6.082.005 9.123.001.592.212.733.987.72.555-.009.733-.182.734-.73.002-1.513.001-3.026.002-4.539M95.505 39.69h.002c0 1.527-.002 3.056 0 4.584.001.544.17.716.692.725.819.015 1.031-.12 1.033-.727.005-3.026.004-6.053-.005-9.079-.001-.657-.158-.77-.936-.76-.649.007-.785.136-.786.762v4.494M45.654 41.237v.01c.455 0 .91.008 1.365-.002.561-.014.74-.216.733-.806-.007-.695-.156-.882-.751-.887a136.4 136.4 0 0 0-2.684 0c-.512.006-.71.22-.717.735-.008.73.122.922.69.946.454.019.91.004 1.364.004" fill="#A8A5B5"/><path d="M59.517 18.75v10.227h1.688c.019-.071.04-.113.04-.154.002-2.878.005-5.756 0-8.634 0-.104-.046-.247-.126-.306-.502-.372-1.02-.725-1.602-1.133" fill="#000"/><path d="M81.423 39.419c1.478 1.016 1.534 2.888.877 4.018-.555.955-1.454 1.405-2.474 1.47-1.602.102-3.21.08-4.817.093-.431.003-.61-.246-.61-.768-.003-1.953-.002-3.907-.002-5.86l.001-3.181c.001-.579.175-.76.74-.758 1.4.002 2.8-.012 4.198.022 1.397.033 2.535.885 2.803 2.151.177.841.222 1.708-.716 2.813" fill="#A8A5B5"/><path d="M76.127 40.227v3.064c.816 0 1.61.013 2.403-.006.44-.01.888-.032 1.317-.127.72-.161 1.113-.67 1.124-1.347.011-.65-.351-1.2-1.092-1.3-1.222-.166-2.461-.194-3.752-.284M76.127 38.86c.834 0 1.618.01 2.401-.004a6.598 6.598 0 0 0 1.034-.094c.63-.112 1.036-.587 1.062-1.2.025-.598-.324-1.17-.94-1.235-1.174-.125-2.36-.133-3.557-.19v2.724z" fill="#000"/><path d="M32.188 41.725v-6.45c0-.706.134-.829.897-.832.65-.002.826.175.826.832-.001 2.92-.004 5.842-.004 8.763 0 .37.01.744-.427.894-.498.17-1.119.012-1.382-.346-1.68-2.283-3.357-4.567-5.1-6.939-.012.226-.026.362-.026.498l-.004 6.053c0 .597-.153.754-.732.762-.783.01-.968-.126-.97-.772-.006-2.981-.008-5.962-.003-8.944 0-.651.162-.766.798-.808.517-.034.85.131 1.162.566 1.543 2.145 3.122 4.264 4.69 6.392.06.081.129.155.275.331M107.318 41.796v-6.154-.18c0-.883.478-1.24 1.309-.908.18.071.346.412.352.633.034 1.23.016 2.46.016 3.69v5.357c0 .586-.163.708-.745.76-.57.049-.912-.174-1.238-.624-1.497-2.066-3.03-4.108-4.55-6.158a1.042 1.042 0 0 0-.404-.356v6.316c0 .308.006.679-.35.743-.367.067-.77.013-1.14-.067-.105-.023-.21-.324-.21-.498-.012-3.076-.008-6.152-.008-9.228 0-.399.195-.58.606-.623.65-.067 1.07.143 1.467.697 1.527 2.137 3.117 4.23 4.684 6.338.043.057.09.11.211.262M72.664 39.704c.099 2.789-2.477 5.392-5.745 5.293-2.867-.086-5.34-2.49-5.325-5.32.015-2.9 2.55-5.281 5.582-5.245 3.078.037 5.498 2.362 5.488 5.272" fill="#A8A5B5"/><path d="M67.176 36.136c-2.106-.01-3.854 1.608-3.852 3.565.002 1.956 1.77 3.614 3.834 3.594 2.067-.02 3.746-1.621 3.778-3.602.031-1.89-1.72-3.547-3.76-3.557" fill="#000"/><path d="M57.854 40.93c-.365 0-.649.003-.933 0-.58-.007-.734-.168-.734-.764l.003-.317c.003-.381.193-.6.575-.607a88.075 88.075 0 0 1 2.126-.008c.405.003.613.23.616.626.008 1.086.022 2.173-.006 3.259a.908.908 0 0 1-.3.612c-3.138 2.487-7.725 1.166-8.834-2.63-.825-2.825 1.09-5.958 4.003-6.536 1.747-.346 3.344-.03 4.763 1.08.449.35.486.65.13 1.106-.458.586-.665.625-1.173.22-1.943-1.552-4.832-.925-5.864 1.272-.999 2.124.413 4.682 2.747 5.022.917.134 1.758-.026 2.57-.436.224-.113.326-.27.315-.53-.017-.434-.004-.87-.004-1.369M13.822 42.276c-.657 0-1.316.023-1.972-.01-.353-.017-.52.117-.648.418a48.216 48.216 0 0 1-.838 1.85c-.215.456-1.322.65-1.607.247-.131-.186-.137-.56-.04-.782.708-1.611 1.454-3.206 2.19-4.804.656-1.421 1.329-2.835 1.964-4.264.182-.407.455-.503.863-.5.435.005.774.036.992.515 1.375 3.012 2.78 6.01 4.173 9.013.307.664.078.969-.659 1.019-.581.04-.912-.166-1.116-.699-.214-.56-.506-1.091-.737-1.646-.117-.282-.288-.373-.592-.363-.657.021-1.315.006-1.973.006" fill="#A8A5B5"/><path d="M13.659 37.16l-1.548 3.408h3.114L13.66 37.16" fill="#000"/><path d="M88.916 34.46c.477-.092.737.099.931.525 1.373 3.006 2.77 6 4.154 9.001.29.628.047.937-.657.987-.593.043-.928-.166-1.132-.718-.208-.561-.5-1.092-.737-1.644-.102-.236-.229-.346-.507-.343-1.367.014-2.734-.005-4.101.019-.16.002-.388.155-.462.3-.309.6-.567 1.226-.85 1.839-.238.512-1.133.755-1.58.42-.286-.215-.284-.494-.14-.806.884-1.924 1.76-3.851 2.64-5.776.489-1.066 1.004-2.12 1.461-3.198.202-.477.47-.721.98-.606" fill="#A8A5B5"/><path d="M90.314 40.568l-1.577-3.409-1.537 3.41h3.114z" fill="#000"/><path d="M3.862 45c-1.407-.124-2.626-.57-3.638-1.53-.358-.342-.279-.846.18-1.337.258-.276.531-.247.933.076 1.01.813 2.135 1.182 3.43.888.641-.145 1.051-.507 1.118-.995.072-.53-.197-.995-.843-1.269-.623-.263-1.295-.408-1.916-.675-.631-.272-1.298-.54-1.823-.967-1.234-1.005-1.271-3.513.855-4.372 1.642-.663 3.248-.441 4.771.416.45.252.452.581.08 1.232-.236.412-.464.473-.917.235-1.01-.53-2.055-.722-3.162-.349-.39.132-.7.367-.732.805-.032.438.181.805.572.976.66.288 1.354.494 2.02.77.58.24 1.172.48 1.704.81.955.591 1.21 1.553 1.092 2.598-.12 1.082-.765 1.84-1.764 2.213-.625.234-1.305.322-1.96.475M38.764 36.063c-.856 0-1.642.003-2.428 0-.554-.004-.694-.172-.695-.82 0-.652.126-.807.701-.808 2.184-.004 4.367-.005 6.55 0 .559.002.717.208.708.867-.009.57-.184.757-.73.76-.783.003-1.566 0-2.404 0v1.092c0 2.233 0 4.466.004 6.7 0 .317-.003.694-.36.767-.355.074-.76.034-1.112-.066-.126-.036-.223-.392-.224-.602-.015-2.453-.01-4.907-.01-7.36v-.53M22.145 39.73v4.539c-.002.548-.18.721-.735.73-.775.013-.986-.128-.987-.72-.008-3.04-.009-6.082-.005-9.123 0-.602.193-.734.978-.724.592.008.749.164.75.76v4.538M95.505 39.69v-4.495c.001-.626.137-.755.786-.763.778-.009.935.104.936.761.009 3.026.01 6.053.005 9.08-.002.605-.214.74-1.033.726-.523-.01-.69-.18-.692-.725-.002-1.528 0-3.057 0-4.585h-.002zM45.654 41.237c-.455 0-.91.015-1.364-.004-.568-.024-.698-.216-.69-.946.007-.515.205-.73.717-.734a136.4 136.4 0 0 1 2.684-.001c.595.005.744.192.751.887.006.59-.172.792-.733.806-.455.01-.91.002-1.365.002v-.01M59.619 18.637c.504.412 1.029.768 1.512 1.143.077.06.105.203.105.308.006 2.904-.004 5.803-.007 8.707 0 .042-.027.15-.045.15h-1.565V18.637zm34.713 10.329c-.166-.013-.333-.01-.5-.01-1.89.003-3.78 0-5.672.014-.373.003-.657-.1-.921-.366-.814-.82-1.648-1.622-2.477-2.428-1.032-1.003-2.058-2.012-3.104-3.002-.451-.427-1.046-.346-1.34.167-.09.157-.115.368-.116.554-.009 1.55-.002 3.102-.007 4.653 0 .173.057.428-.26.435-.495.01-.911.003-1.541.003v-.63c0-4.041.03-8.083.01-12.124-.002-.284-.092-.651-.287-.838a231.018 231.018 0 0 0-4.738-4.422c-.21-.19-.55-.306-.841-.326-.662-.047-1.328-.016-1.994-.012-.928.004-1.125.225-1.125 1.128 0 5.562.028 11.125.028 16.687v.496h-1.764v-.676c0-9.037-.023-18.081-.015-27.118 0-.503-.113-.903-.614-1.151h-.544c-.15.124-.31.238-.446.373-2.628 2.617-5.258 5.234-7.865 7.87-.219.222-.352.599-.359.906-.035 1.804.015 3.61.015 5.414v.616c-.252-.107-.307-.162-.4-.231-.87-.642-1.751-1.29-2.622-1.93-.747-.548-.99-.534-1.712.038-2.272 1.8-4.544 3.606-6.832 5.386-.519.403-.759.846-.751 1.512.03 2.803.013 5.607.011 8.41 0 .201-.018.402-.027.586-.09.02-.12.03-.149.031-.302.004-.605.006-.908.007-.58.001-.581 0-.582-.593-.001-1.461.01-2.923-.007-4.384-.005-.443-.036-.897-.144-1.325-.483-1.91-2.032-2.925-4.122-2.734-1.593.146-3.005 1.668-3.07 3.419-.062 1.713-.033 3.424-.045 5.138 0 .144-.012.312-.019.436h-1.698v-.554c-.004-1.089.016-2.176-.019-3.263-.042-1.323-1.125-2.512-2.377-2.669-1.513-.19-2.77.572-3.194 1.967a4.01 4.01 0 0 0-.169 1.087c-.02 1.143-.007 2.314-.007 3.432h-1.707c0-.62.004-1.328 0-1.982-.01-1.356-1.102-2.43-2.479-2.446-1.423-.017-2.533 1.011-2.572 2.393-.014.522-.03 1.047.007 1.566.031.427-.134.523-.54.52-2.314-.016-4.628-.01-6.943-.005-.583.001-.948.347-.936.865.01.472.361.79.905.792 2.753.006 5.506.008 8.259.005.632 0 .944-.318.947-.934.003-.85-.002-1.7.004-2.55.003-.59.341-.968.84-.955.48.013.768.377.77.965.001.85-.003 1.7.012 2.55.01.608.32.917.92.924 1.073.012 2.147.018 3.221.011.7-.005.996-.295 1.006-.98.013-.82.004-1.64.01-2.46.004-.67-.013-1.343.033-2.012.044-.655.499-1.072 1.1-1.092.564-.019 1.036.382 1.151 1 .044.232.058.473.059.71.006 1.268.003 2.536.004 3.803.001.76.266 1.031 1.026 1.035 1.029.005 2.057.004 3.086 0 .729-.002 1.017-.287 1.018-1 .002-1.908-.007-3.817.01-5.726.002-.351.057-.717.17-1.05.47-1.383 2.247-1.735 3.218-.645.408.457.549 1.018.55 1.615.002 1.924 0 3.848.001 5.771.001.77.278 1.036 1.069 1.039.998.004 1.997.01 2.995.01.785-.001 1.057-.276 1.057-1.057.001-2.923.024-5.847-.016-8.769-.01-.704.183-1.158.762-1.595 1.93-1.458 3.809-2.981 5.706-4.482.157-.124.269-.238.499-.064 1.103.832 2.228 1.634 3.33 2.467.128.096.225.316.226.48.008 3.921.001 7.843 0 11.765 0 .193.017.388.056.577.083.398.346.64.756.647 1.164.017 2.329.026 3.493.004.548-.011.804-.306.827-.86.017-.417.007-.835.007-1.252.003-2.953.001-5.906.011-8.858.002-.466-.139-.81-.549-1.092-.866-.596-1.692-1.249-2.549-1.859-.233-.166-.318-.34-.317-.623.013-2.118.013-4.235 0-6.353a.957.957 0 0 1 .31-.745c1.959-1.949 3.893-3.906 5.847-5.859.055-.055.111-.09.237-.173v.599c0 8.679.014 17.358.014 26.037 0 .77.281 1.036 1.077 1.038.968.003 1.94 0 2.908.001.916.002 1.16-.228 1.16-1.122.001-5.563.002-11.125.005-16.688 0-.173.018-.346.027-.51 1.057-.127 1.128-.12 1.827.524 1.127 1.037 2.226 2.104 3.366 3.126.335.3.452.605.45 1.04-.014 4.22-.008 8.44-.006 12.66 0 .665.29.967.955.974 1.074.01 2.148.009 3.221-.003.702-.007.975-.287.98-.99.009-1.074.001-2.147.004-3.221 0-.168.022-.335.04-.603.203.186.324.292.44.403 1.377 1.341 2.741 2.694 4.141 4.012.224.21.603.36.912.363 2.223.03 4.447.017 6.67.017.061 0 .122.002.182-.001.514-.022.855-.354.866-.841.01-.449-.325-.79-.826-.83z" fill="#A8A5B5"/><path d="M61.245 28.828c.002-2.881.005-5.76 0-8.64-.001-.105-.016-.246-.098-.305-.521-.372-1.087-.724-1.63-1.133v10.227h1.687c.02 0 .04-.107.04-.149M76.127 40.227c1.29.09 2.53.118 3.752.284.74.1 1.103.65 1.092 1.3-.011.677-.405 1.186-1.124 1.347-.429.095-.877.117-1.317.127-.793.02-1.587.006-2.403.006v-3.064zM76.127 38.86v-2.724c1.197.058 2.383.066 3.557.19.616.066.965.638.94 1.237-.026.612-.431 1.087-1.062 1.199-.34.06-.688.088-1.034.094-.783.014-1.567.005-2.401.005M67.176 36.136c2.04.01 3.791 1.667 3.76 3.557-.032 1.98-1.711 3.582-3.778 3.602-2.063.02-3.832-1.638-3.834-3.594-.002-1.957 1.746-3.574 3.852-3.565M13.659 37.16l1.566 3.408h-3.114l1.548-3.409M90.314 40.568H87.2l1.537-3.409 1.577 3.41" fill="#FFF"/></g></svg>