<svg width="67" height="37" viewBox="0 0 67 37" xmlns="http://www.w3.org/2000/svg"><title>Logo_SNCF</title><path d="M1.41.51C2.55.461 4.078.423 5.927.423c12.898 0 41.296 1.806 60.286 14.238.597.388.739.75.52 1.464-.104.34-6.014 19.236-6.014 19.236-.247.706-.665.755-1.188.755H1.223c-.629 0-1.037-.526-1.037-1.108V1.64C.186.891.668.541 1.41.51zm35.928 26.31c-.816-.972-1.139-2.225-.937-3.622.48-3.332 3.654-5.438 7.9-5.438.894 0 1.815.058 2.643.165l.84-2.513c-1.024-.161-2.264-.23-3.48-.23-3.766 0-7.04 1.325-9.162 3.66-.067.073-.135.071-.177.071-.065 0-.11-.012-.092-.071l1.064-3.408h-3.109L29.426 26.34c-1.083-3.218-3.31-7.45-6.035-10.905h-3.338l-2.496 7.938c1.255.953 1.652 1.641 1.98 2.62.02.057.06.07.12.07s.09-.016.107-.07l2.177-6.899c2.196 3.21 4.377 7.435 5.545 11.896h3.58l1.771-5.652c.02-.057.058-.07.117-.07.062 0 .102.017.11.07.538 3.549 3.992 5.934 8.888 5.934 3.165 0 6.025-.849 6.737-1.238l1.856-5.97h7.124l.725-2.312h-7.126l1.23-3.92h8.49l.74-2.397H49.802l-4.05 12.929c-.858.221-1.92.33-3.029.33-2.39 0-4.302-.58-5.385-1.874zm-20.107-9l.709-2.277a16.245 16.245 0 0 0-2.963-.318c-3.91-.092-7.444 1.01-8.353 3.343-1.077 2.766 1.978 4.322 4.626 5.604 2.101 1.018 3.762 1.986 3.178 3.255-.454.983-1.941 1.45-4.104 1.4-1.873-.046-4.209-.594-6.05-1.541L3.18 29.704c1.354.642 4.146 1.515 6.527 1.571 4.473.105 7.37-1.045 8.53-3.533 1.371-2.946-2.032-4.556-4.766-5.905-2.14-1.056-3.6-1.607-3.248-2.67.416-1.257 2.568-1.734 4.518-1.689.986.024 1.688.153 2.49.343z" fill="#FFF" fill-rule="nonzero"/></svg>