<svg width="91" height="26" viewBox="0 0 91 26" xmlns="http://www.w3.org/2000/svg"><title>Tapptic</title><g fill="#FFF" fill-rule="evenodd"><path d="M51.378 4.22c-2.224.246-4.051 1.292-5.47 3.057-1.27 1.58-1.896 3.41-1.894 5.464.003 4.043 0 8.104 0 12.146 0 .094-.002.178-.004.3h3.403c-.003-.122-.008-.135-.008-.194l-.001-12.295c0-.36.023-.72.098-1.072.555-2.63 3.004-4.306 5.638-3.857 2.586.442 4.388 3.074 3.912 5.717-.44 2.444-2.4 4.12-4.825 4.125-.836.001-1.672.005-2.508-.002-.167-.002-.213.052-.212.22.007 1.005.007 2.01 0 3.014-.001.167.042.221.21.22.905-.008 1.81-.003 2.715-.003.344 0 .687-.029 1.027-.083 2.036-.326 3.757-1.26 5.096-2.874 1.628-1.961 2.292-4.237 1.902-6.787-.674-4.42-4.724-7.578-9.08-7.096M33.918 4.201c-1.918.177-3.59.923-4.972 2.263-1.654 1.606-2.497 3.62-2.505 5.944-.014 4.253-.004 8.48-.005 12.78h2.999c0-4.054.011-8.021-.008-12.022a5.696 5.696 0 0 1 .496-2.363c.958-2.172 3.258-3.457 5.574-3.025 1.9.354 3.223 1.485 3.819 3.34.597 1.861.182 3.56-1.145 4.99-.945 1.018-2.155 1.466-3.519 1.497-1.092.024-2.184.022-3.276.023-.168 0-.235.037-.233.224.009.999.008 1.997 0 2.996-.001.176.06.214.222.213 1.022-.005 2.045-.002 3.068 0 .35.001.696-.02 1.043-.065 2.338-.298 4.29-1.33 5.747-3.212 1.828-2.361 2.324-5.017 1.37-7.856-1.294-3.844-5.028-6.064-8.675-5.727M3.592 7.634c1.396 0 2.792-.003 4.188.003.16 0 .204-.054.202-.22-.006-.896-.002-1.792-.003-2.688 0-.231 0-.232-.217-.232-1.396 0-2.792-.003-4.188.004-.167 0-.213-.054-.212-.23.006-1.365.003-2.729.004-4.093 0-.058.005-.117.008-.175C2.301.003 1.228.005.154 0 .038 0 0 .017 0 .157.004 4.57.004 8.981.004 13.393c.037.223.064.45.114.67.569 2.511 1.85 4.481 3.896 5.86 1.154.777 2.431 1.13 3.783 1.2.113.007.185-.008.185-.162-.005-1.06-.004-2.12-.002-3.18 0-.117-.04-.163-.152-.17-1.254-.069-2.298-.61-3.147-1.606-.858-1.006-1.324-2.17-1.318-3.545.008-1.528.002-3.056.002-4.585 0-.24.001-.241.227-.241M90.842 18.508c-.74-.715-1.47-1.428-2.206-2.148-.107-.105-.163-.12-.292-.017-1.628 1.31-3.425 1.602-5.314.715-3.113-1.463-3.777-5.453-1.44-7.898.961-1.006 2.155-1.52 3.554-1.501.16.002.21-.046.209-.208a282.962 282.962 0 0 1-.001-3.1c0-.153-.031-.218-.201-.218-.496.003-.99.036-1.478.123-4 .715-6.915 4.178-6.965 8.264-.027 2.255.747 4.21 2.269 5.835 1.947 2.078 4.368 2.95 7.19 2.628 1.798-.205 3.343-.942 4.675-2.18.047-.043.133-.097.133-.113v-.07c0-.012-.087-.068-.133-.112M65.605 7.623c1.475 0 2.95-.003 4.425.003.168 0 .217-.052.216-.22-.007-.896-.003-1.793-.004-2.69 0-.232 0-.233-.23-.233-1.474 0-2.95-.002-4.425.004-.175 0-.225-.053-.224-.23.006-1.195.003-2.384.004-3.579 0-.228.006-.433.009-.678h-3.113c.001 4.411-.001 8.889.007 13.336 0 .545.076 1.085.22 1.612.607 2.225 1.915 3.909 3.847 5.097 1.138.7 2.396 1.01 3.717 1.079.108.005.19 0 .19-.15a566.535 566.535 0 0 1 0-3.2c0-.122-.051-.16-.166-.167a5.822 5.822 0 0 1-.515-.055c-1.237-.173-2.193-.834-2.984-1.781-.813-.972-1.226-2.087-1.216-3.37.012-1.511.003-3.023.003-4.535 0-.243.001-.243.239-.243M25.462 11.715c-.373-1.842-1.08-3.517-2.376-4.89-2.177-2.31-4.819-3.217-7.895-2.548-3.686.802-6.345 4.222-6.409 8.106-.026 1.565.291 3.051 1.07 4.4 1.602 2.773 3.96 4.284 7.15 4.337.93.015 1.86-.008 2.79-.004.17.001.215-.055.214-.224-.006-1.055-.003-2.111-.003-3.168 0-.239-.001-.24-.244-.24-.964.001-1.93 0-2.894.002-1.018.003-1.93-.318-2.745-.935-1.873-1.42-2.475-4.075-1.42-6.248.991-2.043 3.155-3.128 5.265-2.64 1.066.246 1.92.839 2.641 1.66.887 1.01 1.357 2.18 1.356 3.542v7.991c0 .256 0 .257.244.257h3.086c.25 0 .251 0 .251-.255v-4.325c0-1.246.002-2.491-.001-3.737-.001-.362-.008-.725-.08-1.081M75.608 4.063c-.905.007-1.784.003-2.689.003-.275 0-.25 0-.25.259v7.854c0 2.636-.024 5.27-.029 7.906 0 .17.033.229.217.227.917-.008 1.827-.007 2.744 0 .179.002.233-.047.232-.222-.004-5.271-.005-10.542-.002-15.812 0-.163-.049-.217-.223-.215"/></g></svg>