<svg id="Layer_1" xmlns="http://www.w3.org/2000/svg" viewBox="0 0 54 35.6" enable-background="new 0 0 54 35.6"><style>.st0{opacity:.5}.st1{filter:url(#filter-3)}.st2{fill:#169984}.st3{fill:url(#path-2_3_);fill-opacity:.1}.st4{filter:url(#filter-5)}.st5{fill:url(#path-4_3_);fill-opacity:.1}.st6{filter:url(#filter-7)}.st7{fill:url(#path-6_3_);fill-opacity:.1}</style><filter filterUnits="objectBoundingBox" height="178.6%" id="filter-7" width="191.2%" x="-45.6%" y="-28.1%"><feOffset dy="4" in="SourceAlpha" result="shadowOffsetOuter1"/><feGaussianBlur in="shadowOffsetOuter1" result="shadowBlurOuter1" stdDeviation="4"/><feColorMatrix in="shadowBlurOuter1" values="0 0 0 0 0 0 0 0 0 0 0 0 0 0 0 0 0 0 0.11 0"/></filter><filter filterUnits="objectBoundingBox" height="228.9%" id="filter-5" width="249.6%" x="-74.8%" y="-46%"><feOffset dy="4" in="SourceAlpha" result="shadowOffsetOuter1"/><feGaussianBlur in="shadowOffsetOuter1" result="shadowBlurOuter1" stdDeviation="4"/><feColorMatrix in="shadowBlurOuter1" values="0 0 0 0 0 0 0 0 0 0 0 0 0 0 0 0 0 0 0.11 0"/></filter><filter filterUnits="objectBoundingBox" height="228.9%" id="filter-3" width="249.6%" x="-74.8%" y="-46%"><feOffset dy="4" in="SourceAlpha" result="shadowOffsetOuter1"/><feGaussianBlur in="shadowOffsetOuter1" result="shadowBlurOuter1" stdDeviation="4"/><feColorMatrix in="shadowBlurOuter1" values="0 0 0 0 0 0 0 0 0 0 0 0 0 0 0 0 0 0 0.11 0"/></filter><g id="Welcome"><g id="Website-iteration-5---Desktop---Pricing" transform="translate(-113 -736)"><g id="Content" transform="translate(0 149)"><g id="Comparison-table" transform="translate(0 276)"><g id="Features-column" transform="translate(28 91)"><g id="Users-icon" transform="translate(93 224)"><g id="Combined-Shape-Copy-2" class="st0"><g class="st1"><path id="path-2_3_" d="M.5 1.3c.3 0 .6-.1.8-.1.3 0 .6 0 .8.1 2.5.3 4 2.2 4.2 4.7.2 2.5-.8 4.4-1.8 5.8-.4.6-.9 1-.8 1.7.1.9 1 1.1 1.6 1.4.8.3 1.6.8 2 1 1.3.7 2.8 1.6 3.2 2.9.7 2.7-1.7 3.6-3.8 3.9C5 23 3 23 1.4 23h-.1c-1.6 0-3.6 0-5.4-.4-2.1-.4-4.5-1.2-3.8-3.9.3-1.2 1.8-2.1 3.2-2.9.4-.2 1.2-.7 2-1 .6-.3 1.6-.5 1.6-1.4.1-.7-.4-1.1-.8-1.7-1-1.4-1.9-3.2-1.8-5.8C-3.5 3.6-2 1.6.5 1.3z"/></g><path id="path-2_1_" class="st2" d="M.5 1.3c.3 0 .6-.1.8-.1.3 0 .6 0 .8.1 2.5.3 4 2.2 4.2 4.7.2 2.5-.8 4.4-1.8 5.8-.4.6-.9 1-.8 1.7.1.9 1 1.1 1.6 1.4.8.3 1.6.8 2 1 1.3.7 2.8 1.6 3.2 2.9.7 2.7-1.7 3.6-3.8 3.9C5 23 3 23 1.4 23h-.1c-1.6 0-3.6 0-5.4-.4-2.1-.4-4.5-1.2-3.8-3.9.3-1.2 1.8-2.1 3.2-2.9.4-.2 1.2-.7 2-1 .6-.3 1.6-.5 1.6-1.4.1-.7-.4-1.1-.8-1.7-1-1.4-1.9-3.2-1.8-5.8C-3.5 3.6-2 1.6.5 1.3z"/><linearGradient id="path-2_3_" gradientUnits="userSpaceOnUse" x1="-1.074" y1="38.287" x2="-1.34" y2="37.287" gradientTransform="matrix(18.72 0 0 -21.7233 25.72 832.747)"><stop offset="0" stop-color="#fff"/><stop offset="1"/></linearGradient><path id="path-2_2_" class="st3" d="M.5 1.3c.3 0 .6-.1.8-.1.3 0 .6 0 .8.1 2.5.3 4 2.2 4.2 4.7.2 2.5-.8 4.4-1.8 5.8-.4.6-.9 1-.8 1.7.1.9 1 1.1 1.6 1.4.8.3 1.6.8 2 1 1.3.7 2.8 1.6 3.2 2.9.7 2.7-1.7 3.6-3.8 3.9C5 23 3 23 1.4 23h-.1c-1.6 0-3.6 0-5.4-.4-2.1-.4-4.5-1.2-3.8-3.9.3-1.2 1.8-2.1 3.2-2.9.4-.2 1.2-.7 2-1 .6-.3 1.6-.5 1.6-1.4.1-.7-.4-1.1-.8-1.7-1-1.4-1.9-3.2-1.8-5.8C-3.5 3.6-2 1.6.5 1.3z"/></g><g id="Combined-Shape-Copy-2_1_" class="st0"><g class="st4"><path id="path-4_3_" d="M35.8 1.3c.3 0 .6-.1.8-.1.3 0 .6 0 .8.1 2.5.3 4 2.2 4.2 4.7.2 2.5-.8 4.4-1.8 5.8-.4.6-.9 1-.8 1.7.1.9 1 1.1 1.6 1.4.8.3 1.6.8 2 1 1.3.7 2.8 1.6 3.2 2.9.7 2.7-1.7 3.6-3.8 3.9-1.7.3-3.7.3-5.3.3h-.1c-1.6 0-3.6 0-5.4-.4-2.1-.4-4.5-1.2-3.8-3.9.3-1.2 1.8-2.1 3.2-2.9.4-.2 1.2-.7 2-1 .6-.3 1.6-.5 1.6-1.4.1-.7-.4-1.1-.8-1.7-1-1.4-1.9-3.2-1.8-5.8.2-2.3 1.7-4.3 4.2-4.6z"/></g><path id="path-4_1_" class="st2" d="M35.8 1.3c.3 0 .6-.1.8-.1.3 0 .6 0 .8.1 2.5.3 4 2.2 4.2 4.7.2 2.5-.8 4.4-1.8 5.8-.4.6-.9 1-.8 1.7.1.9 1 1.1 1.6 1.4.8.3 1.6.8 2 1 1.3.7 2.8 1.6 3.2 2.9.7 2.7-1.7 3.6-3.8 3.9-1.7.3-3.7.3-5.3.3h-.1c-1.6 0-3.6 0-5.4-.4-2.1-.4-4.5-1.2-3.8-3.9.3-1.2 1.8-2.1 3.2-2.9.4-.2 1.2-.7 2-1 .6-.3 1.6-.5 1.6-1.4.1-.7-.4-1.1-.8-1.7-1-1.4-1.9-3.2-1.8-5.8.2-2.3 1.7-4.3 4.2-4.6z"/><linearGradient id="path-4_3_" gradientUnits="userSpaceOnUse" x1="-1.074" y1="38.287" x2="-1.34" y2="37.287" gradientTransform="matrix(18.72 0 0 -21.7233 61 832.747)"><stop offset="0" stop-color="#fff"/><stop offset="1"/></linearGradient><path id="path-4_2_" class="st5" d="M35.8 1.3c.3 0 .6-.1.8-.1.3 0 .6 0 .8.1 2.5.3 4 2.2 4.2 4.7.2 2.5-.8 4.4-1.8 5.8-.4.6-.9 1-.8 1.7.1.9 1 1.1 1.6 1.4.8.3 1.6.8 2 1 1.3.7 2.8 1.6 3.2 2.9.7 2.7-1.7 3.6-3.8 3.9-1.7.3-3.7.3-5.3.3h-.1c-1.6 0-3.6 0-5.4-.4-2.1-.4-4.5-1.2-3.8-3.9.3-1.2 1.8-2.1 3.2-2.9.4-.2 1.2-.7 2-1 .6-.3 1.6-.5 1.6-1.4.1-.7-.4-1.1-.8-1.7-1-1.4-1.9-3.2-1.8-5.8.2-2.3 1.7-4.3 4.2-4.6z"/></g><g id="Combined-Shape-Copy"><g class="st6"><path id="path-6_3_" d="M17.5-3.9c.4-.1.9-.1 1.4-.1.5 0 .9 0 1.4.1 4.1.5 6.6 3.7 6.9 7.7.3 4.1-1.3 7.2-2.9 9.4-.7 1-1.5 1.6-1.3 2.8.1 1.4 1.6 1.8 2.7 2.2 1.3.5 2.6 1.3 3.3 1.6 2.2 1.2 4.6 2.7 5.2 4.7 1.2 4.5-2.9 5.8-6.2 6.5-2.9.5-6.1.6-8.8.6H19c-2.7 0-5.9 0-8.8-.6-3.4-.6-7.4-2-6.2-6.5.5-2 3-3.5 5.2-4.7.6-.4 2-1.1 3.3-1.6 1.1-.4 2.5-.8 2.7-2.2.1-1.2-.6-1.8-1.3-2.8-1.6-2.2-3.2-5.3-2.9-9.4-.1-4 2.4-7.2 6.5-7.7z"/></g><path id="path-6_1_" class="st2" d="M17.5-3.9c.4-.1.9-.1 1.4-.1.5 0 .9 0 1.4.1 4.1.5 6.6 3.7 6.9 7.7.3 4.1-1.3 7.2-2.9 9.4-.7 1-1.5 1.6-1.3 2.8.1 1.4 1.6 1.8 2.7 2.2 1.3.5 2.6 1.3 3.3 1.6 2.2 1.2 4.6 2.7 5.2 4.7 1.2 4.5-2.9 5.8-6.2 6.5-2.9.5-6.1.6-8.8.6H19c-2.7 0-5.9 0-8.8-.6-3.4-.6-7.4-2-6.2-6.5.5-2 3-3.5 5.2-4.7.6-.4 2-1.1 3.3-1.6 1.1-.4 2.5-.8 2.7-2.2.1-1.2-.6-1.8-1.3-2.8-1.6-2.2-3.2-5.3-2.9-9.4-.1-4 2.4-7.2 6.5-7.7z"/><linearGradient id="path-6_3_" gradientUnits="userSpaceOnUse" x1="-.761" y1="38.179" x2="-1.028" y2="37.179" gradientTransform="matrix(30.6999 0 0 -35.6252 49.22 1355.758)"><stop offset="0" stop-color="#fff"/><stop offset="1"/></linearGradient><path id="path-6_2_" class="st7" d="M17.5-3.9c.4-.1.9-.1 1.4-.1.5 0 .9 0 1.4.1 4.1.5 6.6 3.7 6.9 7.7.3 4.1-1.3 7.2-2.9 9.4-.7 1-1.5 1.6-1.3 2.8.1 1.4 1.6 1.8 2.7 2.2 1.3.5 2.6 1.3 3.3 1.6 2.2 1.2 4.6 2.7 5.2 4.7 1.2 4.5-2.9 5.8-6.2 6.5-2.9.5-6.1.6-8.8.6H19c-2.7 0-5.9 0-8.8-.6-3.4-.6-7.4-2-6.2-6.5.5-2 3-3.5 5.2-4.7.6-.4 2-1.1 3.3-1.6 1.1-.4 2.5-.8 2.7-2.2.1-1.2-.6-1.8-1.3-2.8-1.6-2.2-3.2-5.3-2.9-9.4-.1-4 2.4-7.2 6.5-7.7z"/></g></g></g></g></g></g></g></svg>