<svg width="112" height="30" viewBox="0 0 112 30" xmlns="http://www.w3.org/2000/svg"><title>Vinci</title><g fill="#6E6C79" fill-rule="evenodd"><path d="M96.903 29.654c-.899 0-1.797.003-2.695-.001-.948-.005-1.533-.569-1.541-1.54a327.765 327.765 0 0 1-.001-5.562c.008-.994.587-1.548 1.564-1.55 1.317-.001 2.634.008 3.952-.002 2.07-.016 3.683-1.39 3.963-3.448.078-.576-.017-1.191-.112-1.775-.34-2.086.878-4.654 3.38-5.477 1.922-.632 3.697-.276 5.133 1.21 1.419 1.468 1.798 3.266 1.142 5.202-.665 1.963-2.073 3.133-4.107 3.408-.603.082-1.249.026-1.85-.094-2.068-.416-4.532 1.189-4.55 3.965-.01 1.353 0 2.707-.002 4.061-.001 1.03-.563 1.599-1.582 1.602-.898.003-1.796 0-2.694 0zM82.812 18.966v-8.657H87.98c2.107-.004 3.954-1.256 4.732-3.25.154-.398.236-.848.246-1.277.03-1.35.009-2.702.012-4.053C92.97.552 93.512 0 94.659 0c1.735 0 3.47-.002 5.205 0 1.055 0 1.613.572 1.614 1.648v5.405c-.001 1.025-.572 1.602-1.583 1.604-1.233.002-2.473.085-3.697-.019-2.003-.17-4.29 1.759-4.705 3.821-.09.45-.144.915-.149 1.374-.018 1.57-.007 3.14-.007 4.711v.42h-8.525zM49.552 20.221v-9.404c5.657-1.093 11.297-1.086 16.97.002 0 1.001 0 1.947-.002 2.893 0 .084-.015.167-.025.284-.593-.086-1.168-.174-1.745-.25-3.77-.504-7.543-.695-11.326-.133-.203.03-.296.092-.296.315.003 1.046-.004 2.092-.008 3.138-.001.206.046.318.292.356 2.974.459 5.956.43 8.94.152 1.377-.128 2.75-.307 4.146-.466v3.118c-5.648 1.075-11.29 1.083-16.946-.005M32.408 15.143v.483c0 1.535-.012 3.069.008 4.603.005.373-.116.469-.467.46a81.352 81.352 0 0 0-2.738-.004c-.244.003-.363-.05-.363-.336.009-3.236.006-6.472.007-9.708 0-.08.019-.161.035-.294 4.839 1.087 8.94 3.646 13.018 6.4v-6.402h3.547c.008.14.023.279.023.417v9.457c0 .461 0 .462-.476.463-.865 0-1.731-.012-2.596.006-.34.007-.603-.092-.876-.297-2.72-2.043-5.595-3.818-8.747-5.107-.098-.04-.198-.075-.375-.141M2.708 10.09l6.41 6.258 6.412-6.26 2.7 2.518-9.11 8.332L0 12.601l2.708-2.511M24.776 20.653c-.104.013-.187.032-.27.033-1.044.002-2.088-.001-3.131.004-.215 0-.333-.042-.333-.297.008-3.285.005-6.57.007-9.855 0-.057.015-.114.026-.193h3.7v10.308zM70.601 15.662c0-1.629.008-3.257-.007-4.886-.003-.34.094-.438.427-.43a77.13 77.13 0 0 0 2.928.002c.271-.004.38.058.378.363-.01 3.319-.008 6.637-.001 9.956 0 .27-.079.37-.35.366-1-.012-2-.015-3 .001-.312.005-.382-.12-.38-.413.01-1.653.005-3.306.005-4.96M78.884 29.608h-.823v-4.686c.637-.194.892-.108 1.27.44.61.886 1.217 1.774 1.825 2.66.032.046.072.086.158.189v-3.325h.82v4.686c-.618.165-.762.112-1.12-.407-.69-1.006-1.382-2.011-2.13-3.1v3.543zM40.513 26.025v3.576h-.804v-4.765c.269 0 .538-.025.8.012.114.016.239.137.315.246.657.946 1.305 1.9 1.956 2.85.046.067.097.129.204.27v-3.356h.798v4.71c-.576.172-.746.112-1.082-.383-.675-.994-1.352-1.987-2.029-2.98-.026-.038-.06-.07-.158-.18M75.756 27.221c-.076-.403-.12-.807-.233-1.186-.121-.405-.409-.638-.825-.651-.427-.014-.738.193-.889.61a3.577 3.577 0 0 0-.01 2.44c.148.423.465.612.891.603.417-.009.715-.219.837-.629.113-.38.154-.784.229-1.187m.947.043c-.011.174-.01.384-.04.59-.175 1.219-.933 1.847-2.159 1.799-1.061-.042-1.779-.777-1.857-1.948-.027-.41-.028-.84.051-1.238.224-1.127 1-1.704 2.116-1.634 1.065.067 1.752.775 1.861 1.92.015.159.018.318.028.511M57.358 24.828h1.033v.404c0 .963-.003 1.926 0 2.889.002.584.302.89.864.894.56.004.876-.306.88-.88.005-.963.001-1.926.001-2.889v-.418h.955v3.085c0 .998-.375 1.514-1.305 1.69a3.09 3.09 0 0 1-1.124.001c-.929-.174-1.304-.691-1.304-1.69v-2.663-.423M47.654 25.087l-.204.478c-.167-.043-.327-.098-.49-.122-.177-.026-.362-.054-.538-.03-.317.044-.56.218-.608.587-.046.36.157.573.432.71.308.153.634.265.937.429.41.221.68.556.671 1.091-.009.55-.266.936-.702 1.162-.76.395-1.535.299-2.352.018l.213-.523c.358.044.68.111 1.004.119.431.01.728-.232.798-.59.068-.346-.104-.608-.54-.816-.279-.133-.579-.228-.838-.395-.772-.5-.778-1.56-.005-2.063.71-.46 1.447-.358 2.222-.055M65.622 28.874l.22.496c-.864.514-2.192.31-2.818-.42-.754-.88-.77-2.453-.033-3.363.623-.768 1.904-.995 2.83-.489-.06.324-.16.475-.568.38-.88-.204-1.518.237-1.644 1.14-.065.468-.048.98.067 1.437.196.78.865 1.111 1.64.911.092-.024.182-.054.306-.092M33.351 28.874l.208.485c-.783.53-2.08.324-2.7-.413-.719-.854-.732-2.472-.027-3.358.61-.768 1.89-.996 2.708-.473-.053.311-.143.464-.524.37-.845-.21-1.453.218-1.59 1.121-.068.445-.063.93.03 1.368.173.83.845 1.2 1.627.982.078-.022.155-.047.268-.082M66.182 24.828h3.054v.52h-1.018v3.962H67.21v-3.939h-1.03zM49.576 25.347h-1.043v-.52h3.055v.513h-1.023v3.97h-.989zM70.255 29.31h1.018v-4.482h-1.018zM53.713 27.306c-.054-.035-.095-.14-.096-.212a31.568 31.568 0 0 1-.001-1.487c.012-.402.333-.235.5-.294.837-.001 1.205.426 1.082 1.222-.09.582-1.018 1.068-1.485.77m.984.239c.2-.034.314-.047.426-.073.804-.183 1.217-.805 1.034-1.562-.13-.531-.508-.795-.967-.931-.776-.23-1.552-.177-2.328.031-.22.06-.257.196-.256.408.007 1.294.003 2.557.004 3.851 0 .109.015.292.023.292h.933v-1.94c.122-.014.08-.028.108-.041.079.1.172.197.247.3.383.519.768 1.041 1.154 1.558.062.083.15.198.232.204.318.024.64.01 1.032.01l-1.642-2.107M37.414 28.41c-.143.402-.458.611-.905.618-.459.007-.804-.184-.947-.605-.131-.384-.179-.796-.265-1.2.089-.408.138-.807.266-1.18.141-.415.468-.638.93-.634.443.004.752.217.905.617.301.79.296 1.594.016 2.385m1.023-2.405a1.709 1.709 0 0 0-.926-.942c-1.483-.66-2.943.112-3.193 1.692-.026.167-.027.338-.04.507.01 1.335.607 2.144 1.737 2.346 1.07.19 2.023-.213 2.397-1.055.373-.838.363-1.7.025-2.548"/></g></svg>